<svg xmlns="http://www.w3.org/2000/svg" width="17" height="17" viewBox="0 0 17 17" fill="none">
  <path d="M6.74371 7.6214C7.368 8.7192 8.2808 9.632 9.3786 10.2563L9.96827 9.43073C10.1643 9.15633 10.5344 9.07153 10.8304 9.2332C11.7683 9.74553 12.8047 10.0569 13.8859 10.1425C14.2327 10.1699 14.5 10.4593 14.5 10.8071V13.7823C14.5 14.1241 14.2415 14.4105 13.9015 14.4454C13.5482 14.4817 13.1918 14.5 12.8333 14.5C7.12639 14.5 2.5 9.8736 2.5 4.16667C2.5 3.80818 2.51828 3.45181 2.55459 3.09851C2.58953 2.7585 2.87596 2.5 3.21777 2.5H6.19295C6.54073 2.5 6.83009 2.76736 6.85753 3.11406C6.94311 4.19525 7.25447 5.23176 7.7668 6.16963C7.92847 6.4656 7.84367 6.83569 7.56927 7.03171L6.74371 7.6214ZM5.06283 7.18347L6.32947 6.27873C5.97031 5.50343 5.72419 4.68122 5.59818 3.83333H3.83938C3.83535 3.94421 3.83333 4.05533 3.83333 4.16667C3.83333 9.1372 7.8628 13.1667 12.8333 13.1667C12.9447 13.1667 13.0558 13.1647 13.1667 13.1606V11.4018C12.3188 11.2758 11.4966 11.0297 10.7213 10.6705L9.81653 11.9372C9.45053 11.795 9.09707 11.6277 8.75827 11.4374L8.71953 11.4153C7.41313 10.6725 6.32756 9.58687 5.58467 8.28047L5.56263 8.24173C5.37233 7.90293 5.20503 7.54947 5.06283 7.18347Z" fill="#3166B6"/>
</svg>