<svg xmlns="http://www.w3.org/2000/svg" width="24" height="25" viewBox="0 0 24 25" fill="none">
  <path d="M12.2439 4.16406C12.778 4.167 14.1143 4.17992 15.5341 4.23679L16.0375 4.25874C17.467 4.32642 18.8953 4.44204 19.6037 4.63956C20.5486 4.90501 21.2913 5.67956 21.5423 6.66138C21.942 8.22047 21.992 11.2635 21.9982 11.9999L21.9991 12.1525V12.1632C21.9991 12.1632 21.9991 12.1669 21.9991 12.174L21.9982 12.3266C21.992 13.063 21.942 16.106 21.5423 17.6651C21.2878 18.6505 20.5451 19.4251 19.6037 19.6869C18.8953 19.8844 17.467 20 16.0375 20.0677L15.5341 20.0896C14.1143 20.1465 12.778 20.1594 12.2439 20.1624L12.0095 20.1632H11.9991C11.9991 20.1632 11.9956 20.1632 11.9887 20.1632L11.7545 20.1624C10.6241 20.1562 5.89772 20.1051 4.39451 19.6869C3.4496 19.4214 2.70692 18.6469 2.45587 17.6651C2.0562 16.106 2.00624 13.063 2 12.3266V11.9999C2.00624 11.2635 2.0562 8.22047 2.45587 6.66138C2.7104 5.67592 3.45308 4.90138 4.39451 4.63956C5.89772 4.22129 10.6241 4.17028 11.7545 4.16406H12.2439ZM9.99911 8.6632V15.6632L15.9991 12.1632L9.99911 8.6632Z" fill="#B6B8C8"/>
</svg>