<?xml version="1.0" encoding="UTF-8"?>
<svg xmlns="http://www.w3.org/2000/svg" width="40" height="40" viewBox="0 0 40 40" fill="none">
  <g id="management 1">
    <g id="Layer 25">
      <path id="Vector" d="M21.25 20H18.75C18.5842 20 18.4253 19.9342 18.3081 19.8169C18.1908 19.6997 18.125 19.5408 18.125 19.375V17.7612L18.0481 17.7294L16.9044 18.8731C16.7872 18.9903 16.6282 19.0561 16.4625 19.0561C16.2968 19.0561 16.1378 18.9903 16.0206 18.8731L14.2519 17.1044C14.1938 17.0463 14.1477 16.9774 14.1162 16.9015C14.0848 16.8257 14.0686 16.7443 14.0686 16.6622C14.0686 16.5801 14.0848 16.4987 14.1162 16.4228C14.1477 16.347 14.1938 16.278 14.2519 16.22L15.3963 15.08L15.3638 15H13.75C13.5842 15 13.4253 14.9342 13.3081 14.8169C13.1908 14.6997 13.125 14.5408 13.125 14.375V11.875C13.125 11.7092 13.1908 11.5503 13.3081 11.4331C13.4253 11.3158 13.5842 11.25 13.75 11.25H15.3638C15.3746 11.2238 15.3852 11.1981 15.3956 11.1731L14.2519 10.0294C14.1347 9.91217 14.0689 9.75323 14.0689 9.5875C14.0689 9.42177 14.1347 9.26283 14.2519 9.14563L16.0206 7.37688C16.1378 7.25966 16.2968 7.19379 16.4625 7.19375C16.5446 7.19385 16.6259 7.21013 16.7017 7.24166C16.7775 7.27319 16.8464 7.31935 16.9044 7.3775L18.0444 8.52188L18.125 8.48875V6.875C18.125 6.70924 18.1908 6.55027 18.3081 6.43306C18.4253 6.31585 18.5842 6.25 18.75 6.25H21.25C21.4158 6.25 21.5747 6.31585 21.6919 6.43306C21.8092 6.55027 21.875 6.70924 21.875 6.875V8.48875L21.9556 8.52188L23.0944 7.375C23.1524 7.31677 23.2214 7.27057 23.2973 7.23904C23.3732 7.20751 23.4547 7.19127 23.5369 7.19125C23.7026 7.19129 23.8616 7.25716 23.9788 7.37437L25.7475 9.14312C25.8647 9.26033 25.9305 9.41927 25.9305 9.585C25.9305 9.75073 25.8647 9.90967 25.7475 10.0269L24.6038 11.1706C24.615 11.1956 24.625 11.2213 24.6356 11.2475H26.25C26.4158 11.2475 26.5747 11.3133 26.6919 11.4306C26.8092 11.5478 26.875 11.7067 26.875 11.8725V14.3725C26.875 14.5383 26.8092 14.6972 26.6919 14.8144C26.5747 14.9317 26.4158 14.9975 26.25 14.9975H24.6362L24.6031 15.0775L25.75 16.22C25.8081 16.278 25.8542 16.347 25.8857 16.4228C25.9171 16.4987 25.9333 16.5801 25.9333 16.6622C25.9333 16.7443 25.9171 16.8257 25.8857 16.9015C25.8542 16.9774 25.8081 17.0463 25.75 17.1044L23.9812 18.8731C23.864 18.9903 23.7051 19.0561 23.5394 19.0561C23.3736 19.0561 23.2147 18.9903 23.0975 18.8731L21.9537 17.7294L21.875 17.7612V19.375C21.875 19.5408 21.8092 19.6997 21.6919 19.8169C21.5747 19.9342 21.4158 20 21.25 20ZM19.375 18.75H20.625V17.3187C20.625 17.1847 20.668 17.0542 20.7478 16.9465C20.8276 16.8388 20.9399 16.7596 21.0681 16.7206C21.3152 16.6473 21.5542 16.5488 21.7812 16.4269C21.8998 16.362 22.0361 16.3373 22.1699 16.3565C22.3036 16.3756 22.4276 16.4376 22.5231 16.5331L23.5375 17.5475L24.4213 16.6638L23.4087 15.655C23.3505 15.597 23.3043 15.528 23.2728 15.4521C23.2413 15.3761 23.225 15.2947 23.225 15.2125C23.2249 15.1059 23.2511 15.0009 23.3013 14.9069C23.4237 14.6797 23.5224 14.4405 23.5956 14.1931C23.6346 14.0649 23.7138 13.9526 23.8215 13.8728C23.9292 13.793 24.0597 13.75 24.1937 13.75H25.625V12.5H24.1937C24.0597 12.5 23.9292 12.457 23.8215 12.3772C23.7138 12.2974 23.6346 12.1851 23.5956 12.0569C23.5224 11.8095 23.4237 11.5703 23.3013 11.3431C23.2366 11.2246 23.2121 11.0883 23.2314 10.9547C23.2506 10.8211 23.3126 10.6973 23.4081 10.6019L24.4225 9.5875L23.5387 8.70312L22.5306 9.71563C22.4326 9.80987 22.3075 9.87095 22.1729 9.89024C22.0384 9.90953 21.9011 9.88605 21.7806 9.82312C21.5535 9.70116 21.3146 9.60273 21.0675 9.52937C20.9394 9.49026 20.8272 9.41102 20.7476 9.30333C20.6679 9.19564 20.6249 9.06521 20.625 8.93125V7.5H19.375V8.93125C19.3751 9.06521 19.3321 9.19564 19.2524 9.30333C19.1728 9.41102 19.0606 9.49026 18.9325 9.52937C18.6852 9.60262 18.446 9.70106 18.2188 9.82312C18.0983 9.88643 17.961 9.91012 17.8263 9.89081C17.6917 9.87151 17.5665 9.8102 17.4688 9.71563L16.46 8.70312L15.5775 9.5875L16.5919 10.6019C16.6874 10.6974 16.7494 10.8214 16.7685 10.9551C16.7877 11.0889 16.763 11.2252 16.6981 11.3438C16.5761 11.571 16.4776 11.8102 16.4044 12.0575C16.3653 12.1856 16.286 12.2978 16.1783 12.3774C16.0706 12.4571 15.9402 12.5001 15.8063 12.5H14.375V13.75H15.8063C15.9402 13.7499 16.0706 13.7929 16.1783 13.8726C16.286 13.9522 16.3653 14.0644 16.4044 14.1925C16.4776 14.4398 16.5761 14.679 16.6981 14.9062C16.7485 14.9982 16.7749 15.1014 16.775 15.2063C16.7752 15.3743 16.7089 15.5356 16.5906 15.655L15.5781 16.6638L16.4625 17.5475L17.4769 16.5331C17.5724 16.4376 17.6964 16.3756 17.8301 16.3565C17.9639 16.3373 18.1002 16.362 18.2188 16.4269C18.446 16.5489 18.6852 16.6474 18.9325 16.7206C19.0606 16.7597 19.1728 16.839 19.2524 16.9467C19.3321 17.0544 19.3751 17.1848 19.375 17.3187V18.75Z" fill="white"></path>
      <path id="Vector_2" d="M20 15.625C19.5055 15.625 19.0222 15.4784 18.6111 15.2037C18.2 14.929 17.8795 14.5385 17.6903 14.0817C17.5011 13.6249 17.4516 13.1222 17.548 12.6373C17.6445 12.1523 17.8826 11.7069 18.2322 11.3572C18.5819 11.0076 19.0273 10.7695 19.5123 10.673C19.9972 10.5766 20.4999 10.6261 20.9567 10.8153C21.4135 11.0045 21.804 11.325 22.0787 11.7361C22.3534 12.1472 22.5 12.6305 22.5 13.125C22.5 13.788 22.2366 14.4239 21.7678 14.8928C21.2989 15.3616 20.663 15.625 20 15.625ZM20 11.875C19.7528 11.875 19.5111 11.9483 19.3055 12.0857C19.1 12.223 18.9398 12.4182 18.8452 12.6466C18.7505 12.8751 18.7258 13.1264 18.774 13.3689C18.8223 13.6113 18.9413 13.8341 19.1161 14.0089C19.2909 14.1837 19.5137 14.3028 19.7561 14.351C19.9986 14.3992 20.2499 14.3745 20.4784 14.2799C20.7068 14.1852 20.902 14.025 21.0393 13.8195C21.1767 13.6139 21.25 13.3722 21.25 13.125C21.25 12.7935 21.1183 12.4755 20.8839 12.2411C20.6495 12.0067 20.3315 11.875 20 11.875Z" fill="white"></path>
      <path id="Vector_3" d="M28.3871 11.25C28.2524 11.25 28.1214 11.2064 28.0136 11.1259C27.9057 11.0454 27.8267 10.9322 27.7883 10.8032C27.4053 9.50827 26.7045 8.32974 25.7497 7.3749C24.7949 6.42006 23.6163 5.71926 22.3214 5.3363C22.1636 5.28813 22.0313 5.17953 21.9533 5.03418C21.8752 4.88884 21.8578 4.71853 21.9048 4.5604C21.9518 4.40227 22.0595 4.26914 22.2043 4.19004C22.349 4.11095 22.5192 4.0923 22.6777 4.13817C24.1719 4.58006 25.5319 5.38879 26.6337 6.49068C27.7355 7.59257 28.5441 8.95261 28.9858 10.4469C29.033 10.6057 29.0151 10.7767 28.9363 10.9224C28.8574 11.0681 28.7239 11.1765 28.5652 11.2238C28.5074 11.2413 28.4474 11.2502 28.3871 11.25Z" fill="white"></path>
      <path id="Vector_4" d="M17.4998 22.1382C17.4395 22.138 17.3795 22.1291 17.3217 22.1119C15.8274 21.67 14.4674 20.8612 13.3655 19.7593C12.2636 18.6575 11.4549 17.2975 11.0129 15.8032C10.9671 15.6447 10.9857 15.4745 11.0648 15.3297C11.1439 15.185 11.277 15.0773 11.4352 15.0303C11.5933 14.9833 11.7636 15.0007 11.9089 15.0787C12.0543 15.1568 12.1629 15.2891 12.2111 15.4469C12.594 16.7418 13.2948 17.9204 14.2496 18.8752C15.2044 19.8301 16.383 20.5309 17.6779 20.9138C17.8221 20.9564 17.9461 21.0496 18.0272 21.1762C18.1082 21.3028 18.1409 21.4544 18.1193 21.6031C18.0976 21.7519 18.0231 21.8879 17.9093 21.9862C17.7955 22.0844 17.6501 22.1384 17.4998 22.1382Z" fill="white"></path>
      <path id="Vector_5" d="M31.8375 12.2063C31.6039 9.46642 30.4357 6.8901 28.5286 4.90907C26.6216 2.92803 24.0915 1.66267 21.3625 1.32504C19.6961 1.1268 18.0065 1.28688 16.4069 1.79457C14.8073 2.30225 13.3347 3.14582 12.0875 4.26879C10.6876 5.52 9.60432 7.08535 8.92658 8.83636C8.24884 10.5874 7.99597 12.4741 8.18871 14.3418C8.38146 16.2095 9.01433 18.0048 10.0354 19.5805C11.0564 21.1562 12.4366 22.4673 14.0625 23.4063C14.5293 23.6631 14.9198 24.039 15.1942 24.4957C15.4687 24.9523 15.6173 25.4735 15.625 26.0063V26.3625C15.2608 26.4923 14.9454 26.7311 14.7218 27.0464C14.4981 27.3618 14.377 27.7384 14.375 28.125C14.3762 28.5879 14.5501 29.0336 14.8625 29.375C14.549 29.7158 14.375 30.162 14.375 30.625C14.375 31.0881 14.549 31.5343 14.8625 31.875C14.6528 32.1041 14.5038 32.3821 14.4293 32.6836C14.3548 32.9851 14.3571 33.3005 14.4361 33.6009C14.5151 33.9013 14.6682 34.177 14.8814 34.4029C15.0945 34.6288 15.361 34.7976 15.6563 34.8938C15.7839 35.9561 16.2964 36.9348 17.0969 37.6447C17.8973 38.3547 18.9301 38.7468 20 38.7468C21.07 38.7468 22.1028 38.3547 22.9032 37.6447C23.7036 36.9348 24.2161 35.9561 24.3438 34.8938C24.6391 34.7976 24.9055 34.6288 25.1187 34.4029C25.3319 34.177 25.485 33.9013 25.564 33.6009C25.643 33.3005 25.6453 32.9851 25.5708 32.6836C25.4963 32.3821 25.3473 32.1041 25.1375 31.875C25.4511 31.5343 25.6251 31.0881 25.6251 30.625C25.6251 30.162 25.4511 29.7158 25.1375 29.375C25.45 29.0336 25.6238 28.5879 25.625 28.125C25.6231 27.7384 25.502 27.3618 25.2783 27.0464C25.0547 26.7311 24.7393 26.4923 24.375 26.3625V25.9063C24.3814 25.4014 24.5227 24.9074 24.7842 24.4755C25.0458 24.0436 25.4181 23.6896 25.8625 23.45C27.8297 22.3438 29.4382 20.6964 30.4972 18.7035C31.5563 16.7105 32.0215 14.4556 31.8375 12.2063ZM20 37.5C19.2799 37.4991 18.5821 37.25 18.0243 36.7946C17.4664 36.3392 17.0826 35.7054 16.9375 35H23.0625C22.9175 35.7054 22.5337 36.3392 21.9758 36.7946C21.418 37.25 20.7202 37.4991 20 37.5ZM23.75 33.75H16.25C16.0843 33.75 15.9253 33.6842 15.8081 33.567C15.6909 33.4498 15.625 33.2908 15.625 33.125C15.625 32.9593 15.6909 32.8003 15.8081 32.6831C15.9253 32.5659 16.0843 32.5 16.25 32.5H23.75C23.9158 32.5 24.0748 32.5659 24.192 32.6831C24.3092 32.8003 24.375 32.9593 24.375 33.125C24.375 33.2908 24.3092 33.4498 24.192 33.567C24.0748 33.6842 23.9158 33.75 23.75 33.75ZM23.75 31.25H16.25C16.0843 31.25 15.9253 31.1842 15.8081 31.067C15.6909 30.9498 15.625 30.7908 15.625 30.625C15.625 30.4593 15.6909 30.3003 15.8081 30.1831C15.9253 30.0659 16.0843 30 16.25 30H23.75C23.9158 30 24.0748 30.0659 24.192 30.1831C24.3092 30.3003 24.375 30.4593 24.375 30.625C24.375 30.7908 24.3092 30.9498 24.192 31.067C24.0748 31.1842 23.9158 31.25 23.75 31.25ZM23.75 28.75H16.25C16.0843 28.75 15.9253 28.6842 15.8081 28.567C15.6909 28.4498 15.625 28.2908 15.625 28.125C15.625 27.9593 15.6909 27.8003 15.8081 27.6831C15.9253 27.5659 16.0843 27.5 16.25 27.5H23.75C23.9158 27.5 24.0748 27.5659 24.192 27.6831C24.3092 27.8003 24.375 27.9593 24.375 28.125C24.375 28.2908 24.3092 28.4498 24.192 28.567C24.0748 28.6842 23.9158 28.75 23.75 28.75ZM25.2438 22.3625C24.6098 22.7142 24.0799 23.2272 23.7079 23.8495C23.3358 24.4718 23.1348 25.1813 23.125 25.9063V26.25H16.875V26.0063C16.8689 25.254 16.6631 24.5168 16.2788 23.87C15.8945 23.2233 15.3454 22.6901 14.6875 22.325C13.2328 21.4855 11.9978 20.3129 11.0841 18.9035C10.1705 17.4941 9.60405 15.8881 9.43142 14.2174C9.25879 12.5466 9.48487 10.8587 10.0911 9.2923C10.6973 7.72587 11.6664 6.32554 12.9188 5.20629C14.035 4.19953 15.3537 3.44329 16.7864 2.98837C18.2191 2.53345 19.7325 2.39039 21.225 2.56879C23.6656 2.87108 25.9281 4.00279 27.6337 5.77437C29.3393 7.54595 30.3843 9.8498 30.5938 12.3C30.7585 14.3134 30.342 16.3318 29.3937 18.1154C28.4453 19.8991 27.005 21.3731 25.2438 22.3625Z" fill="white"></path>
    </g>
  </g>
</svg>
