<?xml version="1.0" encoding="UTF-8"?>
<svg xmlns="http://www.w3.org/2000/svg" width="80" height="80" viewBox="0 0 80 80" fill="none">
  <g id="studia magisterskie (1) 1">
    <g id="Group">
      <path id="Vector" d="M37.4044 55.4232H9.96601C7.23927 55.4232 5.01562 53.1995 5.01562 50.4728V14.009C5.01562 11.2822 7.23927 9.05859 9.96601 9.05859H64.2492C66.9759 9.05859 69.1996 11.2822 69.1996 14.009V20.5491C69.1996 21.1629 68.7065 21.6559 68.0928 21.6559C67.479 21.6559 66.986 21.1629 66.986 20.5491V14.009C66.986 12.4997 65.7584 11.2722 64.2492 11.2722H9.96601C8.45674 11.2722 7.22921 12.4997 7.22921 14.009V50.4728C7.22921 51.982 8.45674 53.2096 9.96601 53.2096H37.4044C38.0182 53.2096 38.5112 53.7026 38.5112 54.3164C38.5112 54.9301 38.0182 55.4232 37.4044 55.4232Z" fill="white"></path>
      <path id="Vector_2" d="M36.5223 19.6472H14.0443C13.4305 19.6472 12.9375 19.1542 12.9375 18.5404C12.9375 17.9266 13.4305 17.4336 14.0443 17.4336H36.5223C37.136 17.4336 37.629 17.9266 37.629 18.5404C37.629 19.1542 37.136 19.6472 36.5223 19.6472Z" fill="white"></path>
      <path id="Vector_3" d="M36.5223 28.2331H14.0443C13.4305 28.2331 12.9375 27.7401 12.9375 27.1263C12.9375 26.5126 13.4305 26.0195 14.0443 26.0195H36.5223C37.136 26.0195 37.629 26.5126 37.629 27.1263C37.629 27.7401 37.136 28.2331 36.5223 28.2331Z" fill="white"></path>
      <path id="Vector_4" d="M30.5355 36.8269H14.0443C13.4305 36.8269 12.9375 36.3338 12.9375 35.7201C12.9375 35.1063 13.4305 34.6133 14.0443 34.6133H30.5355C31.1493 34.6133 31.6423 35.1063 31.6423 35.7201C31.6423 36.3338 31.1493 36.8269 30.5355 36.8269Z" fill="white"></path>
      <path id="Vector_5" d="M33.2321 45.4558H14.0443C13.4305 45.4558 12.9375 44.9627 12.9375 44.349C12.9375 43.7352 13.4305 43.2422 14.0443 43.2422H33.2321C33.8458 43.2422 34.3389 43.7352 34.3389 44.349C34.3389 44.9627 33.8458 45.4558 33.2321 45.4558Z" fill="white"></path>
      <g id="Group_2">
        <g id="Group_3">
          <path id="Vector_6" d="M55.3956 56.834C54.4196 56.834 53.4537 56.4617 52.7091 55.7272L50.1635 53.1815C49.8717 52.8898 49.4592 52.7187 49.0467 52.7187H45.4446C43.3517 52.7187 41.6412 51.0183 41.6412 48.9154V45.3133C41.6412 44.8907 41.4702 44.4882 41.1784 44.1863L38.6327 41.6407C37.1537 40.1616 37.1537 37.7468 38.6327 36.2677L41.1784 33.7221C41.4702 33.4303 41.6412 33.0178 41.6412 32.6053V29.0031C41.6412 26.9103 43.3416 25.1998 45.4446 25.1998H49.0467C49.4592 25.1998 49.8717 25.0288 50.1635 24.737L52.7091 22.1913C54.1882 20.7123 56.603 20.7123 58.0821 22.1913L60.6277 24.737C60.9296 25.0388 61.322 25.1998 61.7547 25.1998H65.3568C67.4496 25.1998 69.1601 26.9002 69.1601 29.0031V32.6053C69.1601 33.0178 69.3312 33.4303 69.6229 33.7221L72.1686 36.2677C73.6476 37.7468 73.6476 40.1616 72.1686 41.6407L69.6229 44.1863C69.3312 44.4781 69.1601 44.8907 69.1601 45.3133V48.9154C69.1601 51.0082 67.4597 52.7187 65.3568 52.7187H61.7547C61.3321 52.7187 60.9296 52.8797 60.6277 53.1815L58.0821 55.7272C57.3375 56.4717 56.3716 56.834 55.3956 56.834ZM45.4345 27.4134C44.5591 27.4134 43.8447 28.1278 43.8447 29.0031V32.6053C43.8447 33.6014 43.4423 34.5874 42.7379 35.2917L40.1923 37.8374C39.5785 38.4511 39.5785 39.4573 40.1923 40.0811L42.7379 42.6268C43.4523 43.3411 43.8548 44.297 43.8548 45.3133V48.9154C43.8548 49.7907 44.5692 50.5051 45.4446 50.5051H49.0467C50.0629 50.5051 51.0188 50.8975 51.7331 51.622L54.2788 54.1676C54.9026 54.7914 55.8987 54.7814 56.5225 54.1676L59.0682 51.622C59.7826 50.9076 60.7384 50.5051 61.7547 50.5051H65.3568C66.2321 50.5051 66.9465 49.7907 66.9465 48.9154V45.3133C66.9465 44.297 67.3389 43.3411 68.0533 42.6268L70.5989 40.0811C71.2127 39.4674 71.2127 38.4612 70.5989 37.8374L68.0533 35.2917C67.349 34.5874 66.9365 33.6014 66.9365 32.6053V29.0031C66.9365 28.1278 66.2221 27.4134 65.3467 27.4134H61.7446C60.7284 27.4134 59.7725 27.021 59.0581 26.2965L56.5125 23.7509C55.8887 23.1371 54.8925 23.1371 54.2687 23.7509L51.7231 26.2965C51.0087 27.0109 50.0528 27.4134 49.0366 27.4134H45.4345Z" fill="white"></path>
          <g id="Group_4">
            <path id="Vector_7" d="M55.3973 48.8142C49.964 48.8142 45.5469 44.3971 45.5469 38.9637C45.5469 33.5304 49.964 29.1133 55.3973 29.1133C56.0111 29.1133 56.5041 29.6063 56.5041 30.2201C56.5041 30.8338 56.0111 31.3269 55.3973 31.3269C51.1815 31.3269 47.7605 34.7579 47.7605 38.9637C47.7605 43.1696 51.1915 46.6006 55.3973 46.6006C59.6031 46.6006 63.0342 43.1696 63.0342 38.9637C63.0342 38.35 63.5272 37.8569 64.141 37.8569C64.7548 37.8569 65.2478 38.35 65.2478 38.9637C65.2478 44.3971 60.8307 48.8142 55.3973 48.8142Z" fill="white"></path>
          </g>
        </g>
      </g>
      <path id="Vector_8" d="M49.3221 18.8347H43.4662C42.8524 18.8347 42.3594 18.3417 42.3594 17.7279C42.3594 17.1141 42.8524 16.6211 43.4662 16.6211H49.3221C49.9359 16.6211 50.4289 17.1141 50.4289 17.7279C50.4289 18.3417 49.9359 18.8347 49.3221 18.8347Z" fill="white"></path>
      <path id="Vector_9" d="M61.2461 70.6437C61.1757 70.6437 61.1053 70.6337 61.0348 70.6236C60.6122 70.5431 60.2802 70.2211 60.1796 69.8086L57.4327 58.9922C57.2818 58.3986 57.644 57.7949 58.2276 57.6439C58.8212 57.5031 59.425 57.8552 59.5759 58.4388L61.7492 66.9913L64.8583 62.7754C65.0495 62.5138 65.3413 62.3528 65.6632 62.3327L70.8853 61.9101L64.7677 55.5511C64.3451 55.1084 64.3552 54.4141 64.7979 53.9814C65.2407 53.5589 65.9349 53.5689 66.3676 54.0116L74.1051 62.051C74.3968 62.3629 74.4975 62.8056 74.3465 63.2081C74.1956 63.6105 73.8233 63.8822 73.4007 63.9225L66.3474 64.496L62.1517 70.1809C61.9303 70.4827 61.5983 70.6437 61.2461 70.6437Z" fill="white"></path>
      <path id="Vector_10" d="M49.5426 70.6493C49.2005 70.6493 48.8685 70.4883 48.6572 70.1965L44.4514 64.5116L37.4081 63.9381C36.9855 63.9079 36.6132 63.6262 36.4623 63.2237C36.3114 62.8212 36.402 62.3685 36.7038 62.0666L44.4413 54.0273C44.8639 53.5845 45.5682 53.5745 46.0109 53.9971C46.4536 54.4197 46.4637 55.124 46.0411 55.5667L39.9236 61.9257L45.1456 62.3483C45.4676 62.3785 45.7594 62.5395 45.9506 62.791L49.0596 67.0069L51.233 58.4544C51.3839 57.8608 51.9876 57.5086 52.5812 57.6495C53.1749 57.8004 53.5371 58.4041 53.3862 58.9978L50.6192 69.8142C50.5085 70.2267 50.1765 70.5487 49.764 70.6292C49.6835 70.6392 49.613 70.6493 49.5426 70.6493Z" fill="white"></path>
    </g>
  </g>
</svg>
