<svg xmlns="http://www.w3.org/2000/svg" width="32" height="32" viewBox="0 0 32 32" fill="none">
  <path d="M11.9993 1.3335V4.00016H19.9993V1.3335H22.666V4.00016H27.9993C28.7358 4.00016 29.3327 4.59712 29.3327 5.3335V26.6668C29.3327 27.4032 28.7358 28.0002 27.9993 28.0002H3.99935C3.26298 28.0002 2.66602 27.4032 2.66602 26.6668V5.3335C2.66602 4.59712 3.26298 4.00016 3.99935 4.00016H9.33268V1.3335H11.9993ZM26.666 14.6668H5.33268V25.3335H26.666V14.6668ZM10.666 17.3335V20.0002H7.99935V17.3335H10.666ZM17.3327 17.3335V20.0002H14.666V17.3335H17.3327ZM23.9993 17.3335V20.0002H21.3327V17.3335H23.9993ZM9.33268 6.66683H5.33268V12.0002H26.666V6.66683H22.666V9.3335H19.9993V6.66683H11.9993V9.3335H9.33268V6.66683Z" fill="#E8F4FF"/>
</svg>