<svg xmlns="http://www.w3.org/2000/svg" width="16" height="16" viewBox="0 0 16 16" fill="none">
  <path d="M7.99967 14.6667C4.31777 14.6667 1.33301 11.6819 1.33301 8.00004C1.33301 4.31814 4.31777 1.33337 7.99967 1.33337C11.6815 1.33337 14.6663 4.31814 14.6663 8.00004C14.6663 11.6819 11.6815 14.6667 7.99967 14.6667ZM7.99967 13.3334C10.9452 13.3334 13.333 10.9456 13.333 8.00004C13.333 5.05452 10.9452 2.66671 7.99967 2.66671C5.05415 2.66671 2.66634 5.05452 2.66634 8.00004C2.66634 10.9456 5.05415 13.3334 7.99967 13.3334ZM8.66634 8.00004H11.333V9.33337H7.33301V4.66671H8.66634V8.00004Z" fill="#3166B6"/>
</svg>