<svg xmlns="http://www.w3.org/2000/svg" width="24" height="25" viewBox="0 0 24 25" fill="none">
  <path d="M12 22.0771C6.47715 22.0771 2 17.6 2 12.0771C2 6.55431 6.47715 2.07715 12 2.07715C17.5228 2.07715 22 6.55431 22 12.0771C22 17.6 17.5228 22.0771 12 22.0771ZM12 20.0771C16.4183 20.0771 20 16.4954 20 12.0771C20 7.65888 16.4183 4.07715 12 4.07715C7.58172 4.07715 4 7.65888 4 12.0771C4 16.4954 7.58172 20.0771 12 20.0771ZM12 18.0771V6.07715C15.3137 6.07715 18 8.76345 18 12.0771C18 15.3908 15.3137 18.0771 12 18.0771Z" fill="white"/>
</svg>