<svg xmlns="http://www.w3.org/2000/svg" width="16" height="16" viewBox="0 0 16 16" fill="none">
  <path d="M8.00016 14.6667C4.31826 14.6667 1.3335 11.6819 1.3335 8.00004C1.3335 4.31814 4.31826 1.33337 8.00016 1.33337C11.682 1.33337 14.6668 4.31814 14.6668 8.00004C14.6668 11.6819 11.682 14.6667 8.00016 14.6667ZM6.47351 13.1116C5.83178 11.7506 5.43838 10.2495 5.3517 8.66671H2.70809C2.97216 10.7844 4.47776 12.5165 6.47351 13.1116ZM6.6873 8.66671C6.78756 10.2926 7.25203 11.8198 8.00016 13.168C8.7483 11.8198 9.21276 10.2926 9.31303 8.66671H6.6873ZM13.2922 8.66671H10.6486C10.562 10.2495 10.1686 11.7506 9.52683 13.1116C11.5226 12.5165 13.0282 10.7844 13.2922 8.66671ZM2.70809 7.33337H5.3517C5.43838 5.75055 5.83178 4.24942 6.47351 2.88841C4.47776 3.48359 2.97216 5.21571 2.70809 7.33337ZM6.6873 7.33337H9.31303C9.21276 5.70752 8.7483 4.18021 8.00016 2.83203C7.25203 4.18021 6.78756 5.70752 6.6873 7.33337ZM9.52683 2.88841C10.1686 4.24942 10.562 5.75055 10.6486 7.33337H13.2922C13.0282 5.21571 11.5226 3.48359 9.52683 2.88841Z" fill="#3166B6"/>
</svg>