<svg xmlns="http://www.w3.org/2000/svg" width="32" height="32" viewBox="0 0 32 32" fill="none">
  <path d="M5.33333 15.1109L0 11.9998L16 2.6665L32 11.9998V23.3332H29.3333V13.5554L26.6667 15.1109V24.0149L26.3699 24.3817C23.9276 27.3997 20.1891 29.3332 16 29.3332C11.8109 29.3332 8.07239 27.3997 5.63017 24.3817L5.33333 24.0149V15.1109ZM8 16.6665V23.0554C9.95628 25.2718 12.8148 26.6665 16 26.6665C19.1852 26.6665 22.0437 25.2718 24 23.0554V16.6665L16 21.3332L8 16.6665ZM5.29236 11.9998L16 18.246L26.7076 11.9998L16 5.75372L5.29236 11.9998Z" fill="#E8F4FF"/>
</svg>