<svg xmlns="http://www.w3.org/2000/svg" width="24" height="25" viewBox="0 0 24 25" fill="none">
  <path d="M13.0271 2.16406C14.1525 2.16592 14.7228 2.17188 15.2156 2.18655L15.4097 2.19289C15.6339 2.20086 15.8551 2.21086 16.1218 2.22336C17.1859 2.27253 17.9118 2.44086 18.5493 2.68836C19.2084 2.94253 19.7651 3.28586 20.3209 3.8417C20.8759 4.39753 21.2193 4.95586 21.4743 5.61336C21.7209 6.25003 21.8893 6.9767 21.9393 8.04086C21.9512 8.30753 21.9608 8.52873 21.9687 8.75297L21.975 8.94706C21.9896 9.4398 21.9963 10.0102 21.9984 11.1356L21.9992 11.8812C21.9993 11.9723 21.9993 12.0663 21.9993 12.1633L21.9992 12.4454L21.9986 13.1911C21.9967 14.3165 21.9908 14.8869 21.9761 15.3796L21.9697 15.5737C21.9618 15.798 21.9518 16.0192 21.9393 16.2858C21.8901 17.35 21.7209 18.0758 21.4743 18.7133C21.2201 19.3725 20.8759 19.9292 20.3209 20.485C19.7651 21.04 19.2059 21.3833 18.5493 21.6383C17.9118 21.885 17.1859 22.0533 16.1218 22.1033C15.8551 22.1152 15.6339 22.1249 15.4097 22.1327L15.2156 22.139C14.7228 22.1537 14.1525 22.1603 13.0271 22.1625L12.2814 22.1633C12.1903 22.1633 12.0963 22.1633 11.9993 22.1633H11.7172L10.9715 22.1626C9.84612 22.1608 9.27574 22.1548 8.78299 22.1401L8.58891 22.1338C8.36466 22.1258 8.14346 22.1158 7.8768 22.1033C6.81263 22.0542 6.08763 21.885 5.4493 21.6383C4.79096 21.3842 4.23346 21.04 3.67763 20.485C3.1218 19.9292 2.7793 19.37 2.5243 18.7133C2.2768 18.0758 2.1093 17.35 2.0593 16.2858C2.04742 16.0192 2.03773 15.798 2.02988 15.5737L2.02359 15.3796C2.00896 14.8869 2.00229 14.3165 2.00013 13.1911L2 11.1356C2.00186 10.0102 2.00781 9.4398 2.02248 8.94706L2.02883 8.75297C2.0368 8.52873 2.0468 8.30753 2.0593 8.04086C2.10846 6.97586 2.2768 6.25086 2.5243 5.61336C2.77846 4.95503 3.1218 4.39753 3.67763 3.8417C4.23346 3.28586 4.7918 2.94336 5.4493 2.68836C6.0868 2.44086 6.8118 2.27336 7.8768 2.22336C8.14346 2.21149 8.36466 2.2018 8.58891 2.19395L8.78299 2.18766C9.27574 2.17302 9.84612 2.16635 10.9715 2.16419L13.0271 2.16406ZM11.9993 7.16336C9.2364 7.16336 6.9993 9.40289 6.9993 12.1633C6.9993 14.9262 9.23883 17.1633 11.9993 17.1633C14.7622 17.1633 16.9993 14.9238 16.9993 12.1633C16.9993 9.40046 14.7597 7.16336 11.9993 7.16336ZM11.9993 9.16336C13.6562 9.16336 14.9993 10.506 14.9993 12.1633C14.9993 13.8202 13.6566 15.1633 11.9993 15.1633C10.3424 15.1633 8.9993 13.8207 8.9993 12.1633C8.9993 10.5064 10.3419 9.16336 11.9993 9.16336ZM17.2493 5.66336C16.56 5.66336 15.9993 6.22327 15.9993 6.91251C15.9993 7.60176 16.5592 8.16253 17.2493 8.16253C17.9385 8.16253 18.4993 7.60263 18.4993 6.91251C18.4993 6.22327 17.9376 5.6625 17.2493 5.66336Z" fill="#B6B8C8"/>
</svg>