<svg xmlns="http://www.w3.org/2000/svg" width="24" height="25" viewBox="0 0 24 25" fill="none">
  <path d="M18.3352 18.5031H15.6697V14.3263C15.6697 13.3303 15.6495 12.0486 14.2807 12.0486C12.891 12.0486 12.6787 13.1324 12.6787 14.2528V18.5031H10.0132V9.91406H12.5737V11.0848H12.6082C12.966 10.4098 13.836 9.69731 15.1357 9.69731C17.8365 9.69731 18.336 11.4749 18.336 13.7886L18.3352 18.5031ZM7.00275 8.73881C6.14475 8.73881 5.4555 8.04431 5.4555 7.19006C5.4555 6.33656 6.1455 5.64281 7.00275 5.64281C7.85775 5.64281 8.55075 6.33656 8.55075 7.19006C8.55075 8.04431 7.857 8.73881 7.00275 8.73881ZM8.33925 18.5031H5.66625V9.91406H8.33925V18.5031ZM19.6687 3.16406H4.32825C3.594 3.16406 3 3.74456 3 4.46081V19.8674C3 20.5843 3.594 21.1641 4.32825 21.1641H19.6665C20.4 21.1641 21 20.5843 21 19.8674V4.46081C21 3.74456 20.4 3.16406 19.6665 3.16406H19.6687Z" fill="#B6B8C8"/>
</svg>