<svg width="18" height="23" viewBox="0 0 18 23" fill="none" xmlns="http://www.w3.org/2000/svg">
<path d="M9 19.3995L13.9497 14.4497C16.6834 11.7161 16.6834 7.28392 13.9497 4.55025C11.2161 1.81658 6.78392 1.81658 4.05025 4.55025C1.31658 7.28392 1.31658 11.7161 4.05025 14.4497L9 19.3995ZM9 22.2279L2.63604 15.864C-0.87868 12.3492 -0.87868 6.65076 2.63604 3.13604C6.15076 -0.37868 11.8492 -0.37868 15.364 3.13604C18.8787 6.65076 18.8787 12.3492 15.364 15.864L9 22.2279ZM9 11.5C10.1046 11.5 11 10.6046 11 9.5C11 8.39543 10.1046 7.5 9 7.5C7.8954 7.5 7 8.39543 7 9.5C7 10.6046 7.8954 11.5 9 11.5ZM9 13.5C6.79086 13.5 5 11.7091 5 9.5C5 7.29086 6.79086 5.5 9 5.5C11.2091 5.5 13 7.29086 13 9.5C13 11.7091 11.2091 13.5 9 13.5Z" fill="#83B5EA"/>
</svg>
