<svg xmlns="http://www.w3.org/2000/svg" width="49" height="48" viewBox="0 0 49 48" fill="none">
  <path d="M8.5 44C8.5 35.1634 15.6634 28 24.5 28C33.3366 28 40.5 35.1634 40.5 44H36.5C36.5 37.3726 31.1274 32 24.5 32C17.8726 32 12.5 37.3726 12.5 44H8.5ZM24.5 26C17.87 26 12.5 20.63 12.5 14C12.5 7.37 17.87 2 24.5 2C31.13 2 36.5 7.37 36.5 14C36.5 20.63 31.13 26 24.5 26ZM24.5 22C28.92 22 32.5 18.42 32.5 14C32.5 9.58 28.92 6 24.5 6C20.08 6 16.5 9.58 16.5 14C16.5 18.42 20.08 22 24.5 22Z" fill="#83B5EA"/>
</svg>