<?xml version="1.0" encoding="UTF-8"?>
<svg xmlns="http://www.w3.org/2000/svg" width="48" height="48" viewBox="0 0 48 48" fill="none">
  <g id="instytuty naukowe">
    <path id="Vector" d="M42.6223 44.3807H6.60435C4.99999 44.3807 3.70312 43.0838 3.70312 41.4794V5.4481C3.70312 3.84374 4.99999 2.54688 6.60435 2.54688H42.6223C44.2267 2.54688 45.5235 3.84374 45.5235 5.4481V41.4661C45.5235 43.0704 44.2267 44.3807 42.6223 44.3807ZM25.4155 42.7763H42.6223C43.3443 42.7763 43.9192 42.188 43.9192 41.4794V24.2726H37.7959C37.7424 24.4063 37.7156 24.5668 37.7156 24.7272C37.729 25.1016 37.9295 25.3422 38.3707 25.7968C39.0259 26.4786 39.9216 27.4145 39.9216 29.4467C39.9216 32.3479 37.5686 34.701 34.6673 34.701C31.7661 34.701 29.4131 32.3479 29.4131 29.4467C29.4131 27.6685 30.1751 26.7327 30.7233 26.0374C31.1511 25.5026 31.3517 25.2353 31.3383 24.7807C31.3383 24.6737 31.2848 24.4865 31.1779 24.286H25.4021V29.9949C25.4021 30.1687 25.3353 30.3559 25.2283 30.4895C24.7337 31.1179 23.7176 31.7998 22.7951 31.8265C21.6987 31.8934 21.0704 31.3185 20.4821 30.8505C19.8671 30.3558 19.2922 29.8879 18.0756 29.8879C16.0701 29.8879 14.4256 31.519 14.4256 33.5378C14.4256 35.5567 16.0567 37.1878 18.0756 37.1878C19.4526 37.1878 20.0142 36.653 20.6158 36.0781C21.1372 35.57 21.7388 35.0085 22.7549 34.9818C23.9448 34.9149 25.0278 35.6904 25.362 36.7733C25.3888 36.8535 25.4021 36.9337 25.4021 37.014V42.7763H25.4155ZM5.30749 24.2726V41.4794C5.30749 42.2014 5.89576 42.7763 6.60435 42.7763H23.8112V37.1343C23.6507 36.7867 23.2496 36.5594 22.8218 36.5728C22.4474 36.5861 22.2068 36.7867 21.7522 37.2279C21.0704 37.883 20.1345 38.7788 18.1023 38.7788C15.2011 38.7788 12.848 36.4257 12.848 33.5245C12.848 30.6232 15.2011 28.2702 18.1023 28.2702C19.8805 28.2702 20.8163 29.0322 21.5116 29.5804C22.0463 30.0082 22.3271 30.1954 22.7683 30.1954C23.0357 30.1954 23.5036 29.9414 23.8112 29.6606V24.2593H17.5942C17.3402 24.2593 17.0996 24.1389 16.9525 23.925C16.7118 23.5908 16.2974 22.9223 16.284 22.2003C16.2573 21.1441 16.7921 20.4756 17.26 19.8874C17.7547 19.2724 18.2226 18.6975 18.2226 17.4808C18.2226 15.4754 16.5915 13.8309 14.5727 13.8309C12.5539 13.8309 10.9228 15.462 10.9228 17.4808C10.9228 18.8579 11.4576 19.4194 12.0324 20.0211C12.5271 20.5425 13.102 21.1441 13.1288 22.1602C13.1421 22.8287 12.9282 23.4705 12.5138 23.9651C12.3667 24.1523 12.1394 24.2593 11.8987 24.2593H5.30749V24.2726ZM25.4155 22.6683H31.6324C31.8864 22.6683 32.1271 22.7886 32.2875 23.0025C32.5282 23.3368 32.9427 24.0052 32.956 24.7272C32.9828 25.7968 32.448 26.4519 31.98 27.0402C31.4854 27.6552 31.0174 28.2301 31.0174 29.4467C31.0174 31.4522 32.6485 33.0966 34.6673 33.0966C36.6862 33.0966 38.3173 31.4655 38.3173 29.4467C38.3173 28.0696 37.7825 27.5081 37.2076 26.9065C36.6995 26.385 36.138 25.7968 36.1113 24.7673C36.0979 24.0988 36.3118 23.4571 36.7263 22.9624C36.8733 22.7752 37.1006 22.6683 37.3413 22.6683H43.9192V5.4481C43.9192 4.72614 43.3309 4.15124 42.6223 4.15124H25.4155V9.79325C25.5759 10.1409 25.9637 10.3681 26.4182 10.3548C26.7926 10.3414 27.0332 10.1409 27.4744 9.69966C28.1563 9.04455 29.0922 8.14878 31.1244 8.14878C34.0256 8.14878 36.3787 10.5018 36.3787 13.4031C36.3787 16.3043 34.0256 18.6574 31.1244 18.6574C29.3462 18.6574 28.397 17.8953 27.7151 17.3471C27.1803 16.9193 26.8862 16.7054 26.4584 16.7188C26.191 16.7321 25.7364 16.9728 25.4289 17.2535V22.6683H25.4155ZM18.0354 22.6683H23.8112V16.946C23.8112 16.7722 23.878 16.5851 23.985 16.4514C24.4796 15.823 25.4957 15.1411 26.4182 15.1144C27.4611 15.0743 28.1429 15.6224 28.7312 16.0904C29.3462 16.5851 29.9211 17.053 31.1377 17.053C33.1432 17.053 34.7877 15.4219 34.7877 13.4031C34.7877 11.3842 33.1566 9.75314 31.1377 9.75314C29.7607 9.75314 29.1858 10.2879 28.5975 10.8628C28.0761 11.3575 27.4744 11.9324 26.4717 11.9591C25.2551 11.9725 24.1989 11.2505 23.8646 10.1676C23.8379 10.0874 23.8245 10.0072 23.8245 9.92695V4.15124H6.60435C5.88239 4.15124 5.30749 4.73951 5.30749 5.4481V22.6549H11.4308C11.4843 22.5212 11.511 22.3608 11.511 22.2003C11.4977 21.826 11.2971 21.5853 10.8559 21.1308C10.2008 20.4489 9.30503 19.513 9.30503 17.4808C9.30503 14.5796 11.6581 12.2265 14.5593 12.2265C17.4605 12.2265 19.8136 14.5796 19.8136 17.4808C19.8136 19.259 19.0515 20.1949 18.5034 20.8901C18.0755 21.4249 17.875 21.6923 17.875 22.1469C17.875 22.2806 17.9285 22.4544 18.0354 22.6683Z" fill="#3166B6"></path>
  </g>
</svg>
