<?xml version="1.0" encoding="UTF-8"?>
<svg xmlns="http://www.w3.org/2000/svg" width="48" height="48" viewBox="0 0 48 48" fill="none">
  <g id="konferencjie akademickie">
    <g id="Group">
      <path id="Vector" d="M23.1371 36.9633C21.613 36.9633 20.0606 36.7516 18.5506 36.3142C14.3027 35.1005 10.7887 32.3062 8.64362 28.4394C6.49853 24.5726 5.99048 20.1131 7.21826 15.8652C9.73028 7.10136 18.9034 2.02088 27.6672 4.5329C31.9151 5.74657 35.4291 8.54083 37.5742 12.4076C39.7193 16.2745 40.2273 20.734 38.9995 24.9818C37.7858 29.2297 34.9916 32.7437 31.1248 34.8888C28.641 36.2577 25.9032 36.9633 23.1371 36.9633ZM23.0948 5.57722C20.611 5.57722 18.1554 6.21228 15.9257 7.44006C12.454 9.35936 9.95608 12.5205 8.85531 16.3309C7.76865 20.1413 8.22025 24.1492 10.1395 27.6068C12.0588 31.0784 15.22 33.5904 19.0304 34.6771C22.8408 35.7779 26.8487 35.3122 30.3062 33.3929C33.7779 31.4736 36.2899 28.3124 37.3766 24.502C38.4633 20.6917 38.0116 16.6837 36.0924 13.2262C34.1731 9.76862 31.0119 7.2566 27.2015 6.15583C25.8467 5.77479 24.4637 5.57722 23.0948 5.57722Z" fill="white"></path>
      <path id="Vector_2" d="M38.1766 25.6004C38.106 25.6004 38.0214 25.5863 37.9367 25.5722L7.80658 16.9212C7.35498 16.7942 7.10096 16.3285 7.22797 15.8769C7.35498 15.4253 7.83481 15.1713 8.27229 15.2983L38.4165 23.9351C38.8681 24.0621 39.1221 24.5278 38.9951 24.9794C38.8822 25.3464 38.5435 25.6004 38.1766 25.6004Z" fill="white"></path>
      <path id="Vector_3" d="M30.7539 34.8172C30.4717 34.8172 30.1894 34.6761 30.0342 34.4221C28.3689 31.7548 24.9396 29.4686 20.8611 28.2973C16.7685 27.1259 12.6477 27.2529 9.81105 28.636C9.38767 28.8335 8.87962 28.6642 8.68205 28.2408C8.47036 27.8174 8.65383 27.3094 9.0772 27.1118C12.2666 25.5453 16.8532 25.3901 21.3268 26.6743C25.8005 27.9586 29.5967 30.5129 31.4737 33.5189C31.7277 33.914 31.6007 34.4362 31.2055 34.6902C31.0644 34.7749 30.9092 34.8172 30.7539 34.8172Z" fill="white"></path>
      <path id="Vector_4" d="M30.8447 15.0459C28.9396 15.0459 26.9074 14.7636 24.9175 14.185C20.4297 12.9008 16.6335 10.3323 14.7565 7.31224C14.5025 6.91709 14.6295 6.39493 15.0247 6.14091C15.4198 5.90099 15.942 6.01389 16.196 6.40904C17.8613 9.0763 21.2906 11.3766 25.3832 12.548C29.4617 13.7193 33.5826 13.5923 36.405 12.2234C36.8284 12.0258 37.3365 12.1951 37.534 12.6185C37.7316 13.0419 37.5623 13.5499 37.1389 13.7475C35.389 14.6225 33.2015 15.0459 30.8447 15.0459Z" fill="white"></path>
      <path id="Vector_5" d="M18.9456 36.1323C18.6493 36.1323 18.3529 35.977 18.1977 35.6948C17.9719 35.2855 18.1271 34.7634 18.5364 34.5517C22.6572 32.2796 26.1007 27.4954 27.7518 21.7376C29.403 15.9656 29.0219 10.0807 26.7075 5.95982C26.4817 5.55056 26.6228 5.04251 27.0321 4.8026C27.4413 4.5768 27.9635 4.71793 28.1893 5.12719C30.7154 9.61495 31.1529 15.9938 29.3747 22.1891C27.5966 28.3704 23.8568 33.5356 19.3549 36.0194C19.2279 36.0899 19.0868 36.1323 18.9456 36.1323Z" fill="white"></path>
      <path id="Vector_6" d="M18.5473 36.0132C18.2509 36.0132 17.9687 35.858 17.8134 35.5757C15.3014 31.088 14.8639 24.7233 16.6421 18.542C18.4203 12.3466 22.1742 7.16736 26.6902 4.69768C27.0994 4.47188 27.6216 4.62712 27.8333 5.03638C28.0591 5.44564 27.9038 5.9678 27.4946 6.17949C23.3596 8.43748 19.9162 13.2357 18.2509 19.0077C16.5998 24.7656 16.9808 30.6505 19.2811 34.7572C19.5069 35.1665 19.3658 35.6745 18.9565 35.9144C18.8295 35.9709 18.6884 36.0132 18.5473 36.0132Z" fill="white"></path>
      <path id="Vector_7" d="M27.4048 5.81379C27.3342 5.81379 27.2495 5.79968 27.179 5.78556C26.7274 5.65855 26.4592 5.19284 26.5862 4.74124L27.4894 1.49538C27.6165 1.04378 28.0822 0.775642 28.5338 0.902654C28.9854 1.02967 29.2535 1.49538 29.1265 1.94698L28.2233 5.19284C28.1245 5.55977 27.7858 5.81379 27.4048 5.81379Z" fill="white"></path>
      <path id="Vector_8" d="M17.936 39.9797C17.8655 39.9797 17.7808 39.9656 17.7102 39.9514C17.2586 39.8244 16.9905 39.3587 17.1175 38.9071L18.1054 35.3226C18.2324 34.871 18.6981 34.6169 19.1497 34.7298C19.6013 34.8568 19.8694 35.3226 19.7424 35.7742L18.7545 39.3587C18.6416 39.7256 18.3029 39.9797 17.936 39.9797Z" fill="white"></path>
      <path id="Vector_9" d="M34.1467 46.2638H12.0889C11.6232 46.2638 11.2422 45.8828 11.2422 45.4171C11.2422 44.9513 11.6232 44.5703 12.0889 44.5703H34.1467C34.6124 44.5703 34.9935 44.9513 34.9935 45.4171C34.9935 45.8828 34.6124 46.2638 34.1467 46.2638Z" fill="white"></path>
      <path id="Vector_10" d="M23.1046 45.6975C22.6388 45.6975 22.2578 45.3165 22.2578 44.8508V40.4053C22.2578 39.9396 22.6388 39.5586 23.1046 39.5586C23.5703 39.5586 23.9513 39.9396 23.9513 40.4053V44.8508C23.9513 45.3306 23.5703 45.6975 23.1046 45.6975Z" fill="white"></path>
      <path id="Vector_11" d="M23.1108 40.9704C21.262 40.9704 19.4274 40.7305 17.6633 40.2366C17.2117 40.1096 16.9436 39.6439 17.0706 39.1923C17.1976 38.7407 17.6633 38.4866 18.1149 38.5995C19.7379 39.0511 21.4173 39.2769 23.1108 39.2769C33.4975 39.2769 41.9509 30.8236 41.9509 20.4368C41.9509 11.9834 36.2636 4.51796 28.1348 2.27407C27.6832 2.14706 27.4151 1.68135 27.5421 1.22975C27.6691 0.778153 28.1348 0.510017 28.5864 0.637029C37.449 3.07848 43.6444 11.2214 43.6444 20.4368C43.6444 31.755 34.4431 40.9704 23.1108 40.9704Z" fill="white"></path>
    </g>
  </g>
</svg>
