<?xml version="1.0" encoding="UTF-8"?>
<svg xmlns="http://www.w3.org/2000/svg" width="48" height="48" viewBox="0 0 48 48" fill="none">
  <g id="laboratorium">
    <path id="Vector" d="M45.6145 46.778H3.60687C3.16567 46.778 2.80469 46.4171 2.80469 45.9759V44.2512C2.80469 41.6976 5.01069 39.6119 7.73811 39.6119H31.4158C35.1594 34.0501 36.4295 30.2798 33.7021 24.3169C33.6753 24.2635 33.6619 24.2234 33.6486 24.1699C32.8731 23.9961 32.1512 23.6752 31.5228 23.234L23.4208 31.336C23.1133 31.6435 22.6052 31.6435 22.2843 31.336L21.1212 30.1729L18.4205 32.6596C18.0996 32.9538 17.6183 32.9404 17.3108 32.6329L13.3801 28.7022C13.2331 28.5551 13.1395 28.3412 13.1395 28.1273C13.1395 27.9134 13.2331 27.6995 13.3935 27.5524L16.014 25.079L14.677 23.742C14.5299 23.595 14.4363 23.3811 14.4363 23.1805C14.4363 22.98 14.5165 22.7661 14.677 22.619L36.9242 0.385186C37.0712 0.23812 37.2718 0.144531 37.4857 0.144531C37.6996 0.144531 37.9001 0.22475 38.0472 0.385186L45.6412 7.97917C45.9487 8.28668 45.9487 8.79473 45.6412 9.1156L39.9992 14.7576C40.6944 15.747 41.0955 16.9369 41.0955 18.2337C41.0955 19.5306 40.6944 20.7339 39.9992 21.7232C40.2666 21.6965 40.534 21.8034 40.7078 22.0174C46.1626 28.876 44.9727 33.5955 42.0849 39.6386C44.5315 39.9194 46.43 41.8714 46.43 44.2512V45.9759C46.4166 46.4304 46.0557 46.778 45.6145 46.778ZM4.40905 45.187H44.8123V44.2645C44.8123 42.5933 43.3149 41.2296 41.4832 41.2296H40.8147C40.534 41.2296 40.28 41.0825 40.1329 40.8553C39.9858 40.6146 39.9724 40.3205 40.0928 40.0798C43.4486 33.2746 44.4914 29.3707 39.451 23.0335C39.3441 22.8998 39.2906 22.7393 39.2772 22.5789C38.2745 23.5682 36.9375 24.21 35.4535 24.3169C38.1141 30.6809 36.4562 35.0929 32.5122 40.882C32.3651 41.0959 32.1111 41.2296 31.8437 41.2296H7.73811C5.90646 41.2296 4.40905 42.5933 4.40905 44.2645V45.187ZM15.1315 28.1541L17.9258 30.9483L20.0115 29.0365L17.1905 26.2154L15.1315 28.1541ZM16.415 23.1672L22.8726 29.6247L30.3596 22.1377C29.4772 21.0815 28.9424 19.7178 28.9424 18.2337C28.9424 14.8779 31.6699 12.1505 35.0257 12.1505C36.5097 12.1505 37.8734 12.6853 38.9296 13.5677L43.9566 8.5407L37.4991 2.08314L16.415 23.1672ZM35.0123 13.7549C32.5389 13.7549 30.5334 15.7603 30.5334 18.2337C30.5334 20.7071 32.5389 22.7126 35.0123 22.7126C37.4857 22.7126 39.4911 20.7071 39.4911 18.2337C39.4911 15.7603 37.4723 13.7549 35.0123 13.7549ZM18.5275 38.1278H8.90127C8.46007 38.1278 8.09909 37.7669 8.09909 37.3257C8.09909 36.8845 8.46007 36.5235 8.90127 36.5235H18.5275C18.9687 36.5235 19.3296 36.8845 19.3296 37.3257C19.3296 37.7669 18.9687 38.1278 18.5275 38.1278Z" fill="white"></path>
  </g>
</svg>
