<?xml version="1.0" encoding="UTF-8"?>
<svg xmlns="http://www.w3.org/2000/svg" width="38" height="38" viewBox="0 0 38 38" fill="none">
  <g id="projekty badawcze">
    <path id="Vector" d="M33.6366 36.7329C33.4672 36.7329 33.3085 36.6693 33.192 36.5423L24.6611 28.0008C22.2796 29.5778 19.4324 30.4881 16.3841 30.4881C8.08598 30.4881 1.34375 23.7353 1.34375 15.4477C1.34375 7.1602 8.06481 0.417969 16.3629 0.417969C24.6611 0.417969 31.4033 7.17078 31.4033 15.4583C31.4033 18.5066 30.493 21.3538 28.9266 23.7247L37.4681 32.2663C37.7116 32.5097 37.7116 32.9119 37.4681 33.1659L34.0811 36.5529C33.9647 36.6693 33.7954 36.7329 33.6366 36.7329ZM25.8359 27.408L33.626 35.1981L36.1133 32.7108L28.3656 24.9631L25.8359 27.408ZM16.3629 1.68809C8.76338 1.68809 2.5927 7.86935 2.5927 15.4583C2.5927 23.0579 8.77396 29.2286 16.3629 29.2286C23.9519 29.2286 30.1438 23.0579 30.1438 15.4583C30.1438 7.85876 23.9625 1.68809 16.3629 1.68809ZM27.6035 16.5168C27.2542 16.5168 26.9685 16.231 26.9685 15.8817C26.9685 9.78511 22.0044 4.83164 15.9184 4.83164C15.5691 4.83164 15.2833 4.54586 15.2833 4.19658C15.2833 3.8473 15.5691 3.56152 15.9184 3.56152C22.7135 3.56152 28.2386 9.08655 28.2386 15.8923C28.2386 16.231 27.9528 16.5168 27.6035 16.5168Z" fill="white"></path>
  </g>
</svg>
