<?xml version="1.0" encoding="UTF-8"?>
<svg xmlns="http://www.w3.org/2000/svg" width="80" height="80" viewBox="0 0 80 80" fill="none">
  <g id="studia 2-go stopnia">
    <g id="Group">
      <g id="Group_2">
        <g id="Group_3">
          <path id="Vector" d="M37.9121 76.2822C32.1971 76.2822 27.8906 65.8582 27.8906 52.0435C27.8906 38.2287 32.1971 27.8047 37.9121 27.8047C43.6171 27.8047 47.9236 38.2287 47.9236 52.0435C47.9336 65.8582 43.6272 76.2822 37.9121 76.2822ZM37.9121 30.0183C34.2195 30.0183 30.1143 39.0638 30.1143 52.0435C30.1143 65.0231 34.2295 74.0686 37.9121 74.0686C41.5947 74.0686 45.71 65.0231 45.71 52.0435C45.71 39.0638 41.6048 30.0183 37.9121 30.0183Z" fill="white"></path>
          <path id="Vector_2" d="M37.9106 76.2822C24.5486 76.2822 13.6719 65.4055 13.6719 52.0435C13.6719 38.6814 24.5486 27.8047 37.9106 27.8047C51.2726 27.8047 62.1494 38.6814 62.1494 52.0435C62.1494 65.4055 51.2827 76.2822 37.9106 76.2822ZM37.9106 30.0183C25.7661 30.0183 15.8855 39.8989 15.8855 52.0435C15.8855 64.188 25.7661 74.0686 37.9106 74.0686C50.0552 74.0686 59.9358 64.188 59.9358 52.0435C59.9358 39.8989 50.0552 30.0183 37.9106 30.0183Z" fill="white"></path>
          <path id="Vector_3" d="M37.9106 46.1799C30.6058 46.1799 23.5827 44.7209 17.596 41.9439C17.0426 41.6923 16.8011 41.0283 17.0526 40.4749C17.3042 39.9215 17.9682 39.68 18.5216 39.9315C24.2166 42.5677 30.9177 43.9562 37.9006 43.9562C44.8734 43.9562 51.5644 42.5677 57.2493 39.9416C57.8027 39.69 58.4668 39.9315 58.7183 40.4849C58.9699 41.0383 58.7284 41.7024 58.175 41.9539C52.2084 44.7209 45.1953 46.1799 37.9106 46.1799Z" fill="white"></path>
          <path id="Vector_4" d="M18.0666 64.2513C17.644 64.2513 17.2516 64.0098 17.0604 63.6074C16.8089 63.054 17.0504 62.3899 17.6038 62.1383C23.5905 59.3714 30.6136 57.9023 37.9184 57.9023C45.2032 57.9023 52.2162 59.3613 58.1929 62.1182C58.7463 62.3698 58.9878 63.0338 58.7362 63.5872C58.4847 64.1406 57.8206 64.3821 57.2672 64.1306C51.5823 61.5045 44.8912 60.1159 37.9184 60.1159C30.9356 60.1159 24.2345 61.5045 18.5395 64.1406C18.3785 64.2211 18.2175 64.2513 18.0666 64.2513Z" fill="white"></path>
        </g>
      </g>
      <path id="Vector_5" d="M17.6981 30.621C17.5169 30.621 17.3358 30.5808 17.1648 30.4802L5.50321 24.0306C5.15105 23.8394 4.93975 23.4671 4.92969 23.0747C4.92969 22.6723 5.14098 22.31 5.48308 22.1088L37.4795 3.56499C37.8216 3.36375 38.2442 3.36375 38.5863 3.56499L70.5826 22.1088C70.9247 22.31 71.136 22.6723 71.136 23.0647V26.9485C71.136 27.5623 70.643 28.0553 70.0292 28.0553C69.4155 28.0553 68.9224 27.5623 68.9224 26.9485V23.6986L38.0329 5.7987L8.29031 23.0445L18.2414 28.5483C18.7747 28.8401 18.9658 29.5143 18.674 30.0475C18.4627 30.4198 18.0905 30.621 17.6981 30.621Z" fill="white"></path>
      <path id="Vector_6" d="M53.078 28.5983C52.4643 28.5983 51.9712 28.1052 51.9712 27.4915V23.5573L51.8404 23.4466L51.9712 23.2253V23.0643L51.7398 23.3661C50.1903 22.1789 44.6463 18.3151 38.2369 18.3151C31.9987 18.3151 26.7162 21.8468 24.7341 23.3661L24.5026 23.1247V23.2555L24.6435 23.4366L24.5026 23.5473V27.4915C24.5026 28.1052 24.0096 28.5983 23.3959 28.5983C22.7821 28.5983 22.2891 28.1052 22.2891 27.4915V23.024C22.2891 22.7021 22.4299 22.4002 22.6714 22.1889L23.2147 21.7462L23.3455 21.6456C25.5591 19.9552 31.3346 16.1016 38.2369 16.1016C45.1494 16.1016 50.9248 19.9552 53.078 21.6053L53.1887 21.6858L53.8025 22.1889C54.0339 22.4002 54.1748 22.7021 54.1748 23.014V27.4814C54.1848 28.1052 53.6918 28.5983 53.078 28.5983ZM52.0014 23.0341H52.092L52.414 22.5008L52.0014 23.0341ZM24.3215 23.0341H24.4121L23.9694 22.5813L24.3215 23.0341Z" fill="white"></path>
      <path id="Vector_7" d="M70.2059 42.2013C67.8414 42.2013 65.9297 39.7865 65.9297 36.8283C65.9297 33.8702 67.8515 31.4453 70.2059 31.4453C72.5604 31.4453 74.4822 33.8601 74.4822 36.8283C74.4822 39.7966 72.5604 42.2013 70.2059 42.2013ZM70.2059 33.6589C69.0891 33.6589 68.1433 35.1078 68.1433 36.8283C68.1433 38.5489 69.0891 39.9978 70.2059 39.9978C71.3228 39.9978 72.2686 38.5489 72.2686 36.8283C72.2686 35.1078 71.3228 33.6589 70.2059 33.6589Z" fill="white"></path>
    </g>
  </g>
</svg>
