<?xml version="1.0" encoding="UTF-8"?>
<svg xmlns="http://www.w3.org/2000/svg" width="80" height="80" viewBox="0 0 80 80" fill="none">
  <g id="studia 1-go stopnia">
    <g id="Group">
      <g id="Group_2">
        <g id="Group_3">
          <g id="Group_4">
            <g id="Group_5">
              <path id="Vector" d="M48.8478 66.0513H25.9271C25.3133 66.0513 24.8203 65.5583 24.8203 64.9445C24.8203 64.3308 25.3133 63.8377 25.9271 63.8377H48.8478C50.2665 63.8377 51.6047 63.2944 52.631 62.3184L65.9226 51.1599C66.8885 50.2343 67.2407 49.3488 66.9288 48.5942C66.6772 47.9905 66.0232 47.6081 65.2585 47.6283C64.2724 47.6685 63.3266 48.1716 61.4149 49.2885L49.4213 56.2814C48.888 56.5832 48.2139 56.4122 47.912 55.8789C47.6001 55.3456 47.7812 54.6715 48.3145 54.3696L60.298 47.3767C62.3003 46.1995 63.5983 45.475 65.1679 45.4147C66.8281 45.3342 68.3575 46.28 68.9713 47.7289C69.3738 48.6747 69.6957 50.5965 67.4117 52.8L54.1 63.9585C52.7216 65.2866 50.8299 66.0513 48.8478 66.0513Z" fill="#3166B6"></path>
              <path id="Vector_2" d="M42.0316 57.4181L30.0481 57.3477C29.4343 57.3477 28.9413 56.8446 28.9514 56.2309C28.9514 55.6171 29.4947 55.114 30.0682 55.1341L41.9411 55.2046C42.9372 54.9933 43.6818 54.1179 43.7321 53.0916C43.7824 51.8641 42.8265 50.8076 41.599 50.7371H41.5889C37.0008 50.7371 33.3886 49.5297 29.8972 48.3626C28.4483 47.8796 27.0698 47.4168 25.6712 47.0646C18.3966 45.9377 15.9717 49.6505 14.8045 51.4314C14.6939 51.5924 14.6033 51.7433 14.5127 51.8641C14.1606 52.3671 13.4663 52.4879 12.9733 52.1357C12.4702 51.7836 12.3495 51.0893 12.7016 50.5963C12.7721 50.4856 12.8626 50.3649 12.9532 50.224C14.1505 48.3928 17.3401 43.5229 26.0636 44.8913C26.0938 44.9013 26.1341 44.9013 26.1643 44.9114C27.6735 45.2937 29.1627 45.7868 30.6015 46.2697C33.9319 47.3866 37.3731 48.5336 41.6694 48.5336C44.1647 48.6745 46.0463 50.7673 45.9457 53.2023C45.8551 55.2951 44.2955 57.066 42.2329 57.4181C42.1524 57.4081 42.092 57.4181 42.0316 57.4181Z" fill="#3166B6"></path>
              <path id="Vector_3" d="M14.3434 73.5359C13.1561 73.5359 11.9688 73.0831 11.0633 72.1776L2.7724 63.8867C0.961284 62.0756 0.961284 59.1375 2.7724 57.3264L5.14697 54.9518C6.95809 53.1407 9.89612 53.1407 11.7072 54.9518L19.9981 63.2427C20.8735 64.1181 21.3565 65.2853 21.3565 66.5229C21.3565 67.7605 20.8735 68.9276 19.9981 69.803L17.6235 72.1776C16.718 73.0831 15.5307 73.5359 14.3434 73.5359ZM8.4271 55.8071C7.80328 55.8071 7.18951 56.0486 6.71661 56.5215L4.34203 58.8961C3.87919 59.3589 3.62765 59.9626 3.62765 60.6065C3.62765 61.2505 3.87919 61.8643 4.34203 62.317L12.6329 70.6079C13.5787 71.5537 15.1182 71.5537 16.064 70.6079L18.4386 68.2334C18.9014 67.7806 19.1529 67.1668 19.1529 66.5229C19.1529 65.8789 18.9014 65.2651 18.4386 64.8124L10.1477 56.5215C9.67476 56.0486 9.05093 55.8071 8.4271 55.8071Z" fill="#3166B6"></path>
            </g>
          </g>
        </g>
      </g>
      <g id="Group_6">
        <g id="Group_7">
          <path id="Vector_4" d="M44.3136 29.3061C44.1928 29.3061 44.062 29.286 43.9413 29.2457L14.2189 18.7815C13.7762 18.6306 13.4844 18.208 13.4844 17.7351C13.4844 17.2622 13.7762 16.8496 14.2189 16.6887L43.9413 6.22443C44.1828 6.14394 44.4343 6.14394 44.6758 6.22443L74.3982 16.6887C74.8409 16.8396 75.1327 17.2622 75.1327 17.7351C75.1327 18.208 74.8409 18.6205 74.3982 18.7815L44.6758 29.2457C44.5651 29.286 44.4444 29.3061 44.3136 29.3061ZM17.9216 17.7351L44.3136 27.0321L70.7056 17.7351L44.3136 8.43802L17.9216 17.7351Z" fill="#3166B6"></path>
          <path id="Vector_5" d="M44.3085 41.3005C38.7644 41.3005 33.2204 40.244 27.7066 38.121C27.284 37.96 26.9922 37.5474 26.9922 37.0846V27.8177C26.9922 27.204 27.4852 26.7109 28.099 26.7109C28.7127 26.7109 29.2058 27.204 29.2058 27.8177V36.3199C39.2273 40.0025 49.3796 40.0025 59.4011 36.3199V27.8177C59.4011 27.204 59.8941 26.7109 60.5079 26.7109C61.1217 26.7109 61.6147 27.204 61.6147 27.8177V37.0846C61.6147 37.5474 61.333 37.9499 60.9003 38.121C55.4066 40.2339 49.8525 41.3005 44.3085 41.3005Z" fill="#3166B6"></path>
          <path id="Vector_6" d="M74.0365 29.7385C73.4227 29.7385 72.9297 29.2454 72.9297 28.6317V22.2123C72.9297 21.5985 73.4227 21.1055 74.0365 21.1055C74.6502 21.1055 75.1433 21.5985 75.1433 22.2123V28.6317C75.1433 29.2454 74.6502 29.7385 74.0365 29.7385Z" fill="#3166B6"></path>
        </g>
        <path id="Vector_7" d="M74.0425 35.9248C71.8591 35.9248 70.0781 34.1438 70.0781 31.9604C70.0781 29.777 71.8591 27.9961 74.0425 27.9961C76.2259 27.9961 78.0068 29.777 78.0068 31.9604C78.0068 34.1438 76.2359 35.9248 74.0425 35.9248ZM74.0425 30.1996C73.0765 30.1996 72.2917 30.9844 72.2917 31.9504C72.2917 32.9163 73.0765 33.7011 74.0425 33.7011C75.0084 33.7011 75.7932 32.9163 75.7932 31.9504C75.7932 30.9844 75.0084 30.1996 74.0425 30.1996Z" fill="#3166B6"></path>
      </g>
    </g>
  </g>
</svg>
