<?xml version="1.0" encoding="UTF-8"?>
<svg xmlns="http://www.w3.org/2000/svg" width="48" height="48" viewBox="0 0 48 48" fill="none">
  <g id="wsópraca akademicko-naukowa (1) 1">
    <g id="Group">
      <path id="Vector" d="M19.0946 25.306C18.4441 25.306 17.7937 25.0771 17.2757 24.6073C16.7216 24.1014 16.4084 23.4147 16.3843 22.6679C16.3602 21.921 16.6372 21.2103 17.1673 20.6803L24.0817 13.7176C25.3104 12.4769 27.0812 11.8746 28.8158 12.1034C30.4059 12.3203 32.0201 12.0673 33.4897 11.4048L33.7065 11.3084C34.0077 11.1639 34.3691 11.2964 34.5016 11.6096C34.6461 11.9107 34.5016 12.2721 34.2004 12.4046L33.9836 12.501C32.3212 13.2599 30.4782 13.549 28.6592 13.3081C27.298 13.1274 25.9127 13.5972 24.949 14.5729L18.0346 21.5355C17.7455 21.8367 17.5889 22.2222 17.6009 22.6438C17.613 23.0654 17.7937 23.4388 18.0948 23.7159C18.6971 24.258 19.6126 24.2339 20.1788 23.6557L24.0576 19.7286C24.6358 19.1384 25.5272 18.9697 26.2862 19.307C27.1294 19.6804 28.0931 19.6202 28.8761 19.1504L31.0444 17.8374C31.3335 17.6687 31.6948 17.7531 31.8755 18.0422C32.0442 18.3313 31.9599 18.6927 31.6708 18.8734L29.5025 20.1864C28.3822 20.861 26.9969 20.9573 25.7923 20.4153C25.4911 20.2827 25.1418 20.343 24.9129 20.5839L21.0341 24.5109C20.492 25.0289 19.7933 25.306 19.0946 25.306Z" fill="white"></path>
      <path id="Vector_2" d="M37.6123 31.6313C37.4557 31.6313 37.2871 31.5711 37.1666 31.4386C36.9378 31.1977 36.9619 30.8122 37.2028 30.5833L38.7688 29.1257C40.2384 27.7645 41.2382 26.0178 41.6478 24.0543C41.7562 23.5604 41.8887 23.0666 42.0694 22.5968L42.7199 20.8019C42.8283 20.4887 43.1776 20.3321 43.4908 20.4405C43.804 20.5489 43.9606 20.8983 43.8522 21.2115L43.2017 23.0063C43.0451 23.4279 42.9247 23.8616 42.8283 24.3073C42.3585 26.5117 41.2382 28.4873 39.5879 30.0051L38.0219 31.4627C37.9135 31.5831 37.7569 31.6313 37.6123 31.6313Z" fill="white"></path>
      <path id="Vector_3" d="M43.9108 21.6576C43.4771 21.6576 43.0314 21.4889 42.6941 21.1757L33.2259 12.0448C32.8765 11.7195 32.6838 11.2497 32.6958 10.7679C32.6958 10.286 32.9006 9.82829 33.25 9.50305L36.5145 6.47948C36.7554 6.2506 37.1409 6.26265 37.3697 6.51562C37.5986 6.76859 37.5866 7.14202 37.3336 7.37089L34.0811 10.3945C33.9727 10.5029 33.9125 10.6354 33.9125 10.792C33.9125 10.9486 33.9727 11.0811 34.0811 11.1895L43.5494 20.3204C43.7542 20.5132 44.0794 20.5252 44.2842 20.3325L46.9584 17.9233C47.1993 17.7064 47.5848 17.7185 47.8137 17.9715C48.0305 18.2244 48.0185 18.5979 47.7655 18.8267L45.0913 21.2359C44.754 21.513 44.3324 21.6576 43.9108 21.6576Z" fill="white"></path>
      <path id="Vector_4" d="M28.7731 39.5602C28.1106 39.5602 27.4481 39.3193 26.9301 38.8254L26.388 38.3195C26.1471 38.0906 26.135 37.7051 26.3639 37.4642C26.5928 37.2233 26.9783 37.2112 27.2192 37.4401L27.7613 37.946C28.3395 38.4881 29.2309 38.4881 29.8091 37.934C30.0982 37.6569 30.2669 37.2835 30.2669 36.8739C30.2669 36.4644 30.1103 36.0909 29.8212 35.8139L26.0025 32.0555C25.7616 31.8266 25.7616 31.4411 25.9905 31.2002C26.2194 30.9593 26.6048 30.9593 26.8458 31.1882L32.0135 36.2716C32.6038 36.8619 33.5434 36.8619 34.1337 36.2837C34.4348 35.9946 34.5914 35.6091 34.6034 35.1995C34.6034 34.79 34.4469 34.3924 34.1457 34.1033L30.6282 30.634C30.3873 30.4052 30.3873 30.0197 30.6162 29.7788C30.8571 29.5379 31.2305 29.5379 31.4715 29.7667L34.4107 32.6578C34.9648 33.1999 35.8322 33.2119 36.3983 32.6698C36.6754 32.4048 36.832 32.0434 36.832 31.67C36.832 31.2845 36.6874 30.9232 36.4224 30.6461L26.7012 20.7442C26.4723 20.5033 26.4723 20.1299 26.7133 19.8889C26.9542 19.6601 27.3276 19.6601 27.5685 19.901L37.2897 29.8029C37.7836 30.3088 38.0486 30.9713 38.0486 31.6821C38.0366 32.3928 37.7475 33.0553 37.2415 33.5372C36.7958 33.9708 36.2297 34.2117 35.6635 34.2599C35.7719 34.549 35.8201 34.8622 35.8201 35.1875C35.8201 35.9343 35.519 36.621 34.9889 37.1389C34.0011 38.0906 32.4954 38.1629 31.4353 37.3437C31.339 37.8978 31.0619 38.3917 30.6523 38.7893C30.1223 39.3072 29.4477 39.5602 28.7731 39.5602Z" fill="white"></path>
      <path id="Vector_5" d="M5.82058 23.1378C5.38692 23.1378 4.94122 22.9691 4.60393 22.6439L1.44785 19.536C1.20693 19.3071 1.20693 18.9216 1.43581 18.6807C1.66468 18.4398 2.05016 18.4398 2.29108 18.6687L5.44715 21.7645C5.65194 21.9693 5.98923 21.9693 6.19401 21.7645L16.0357 11.9228C16.2405 11.7181 16.2405 11.3928 16.0477 11.188L13.0603 8.08014C12.8314 7.83922 12.8435 7.45374 13.0723 7.22487C13.3133 6.99599 13.6987 6.99599 13.9276 7.23691L16.915 10.3448C17.5655 11.0194 17.5535 12.1035 16.8909 12.7661L7.04929 22.6077C6.712 22.9691 6.26629 23.1378 5.82058 23.1378Z" fill="white"></path>
      <path id="Vector_6" d="M24.6203 14.6214C24.5239 14.6214 24.4155 14.5973 24.3312 14.5492L22.8977 13.7421C21.4522 12.9229 19.7537 12.682 18.1395 13.0554L16.1278 13.5132C15.8025 13.5855 15.4773 13.3807 15.405 13.0554C15.3327 12.7302 15.5375 12.405 15.8628 12.3327L17.8745 11.8749C19.7898 11.4413 21.7894 11.7183 23.5 12.682L24.9335 13.4891C25.2226 13.6457 25.331 14.0191 25.1623 14.3082C25.0298 14.513 24.8251 14.6214 24.6203 14.6214Z" fill="white"></path>
      <path id="Vector_7" d="M12.3851 30.6574C12.2285 30.6574 12.084 30.5972 11.9635 30.4888L11.5539 30.0912C10.4336 28.995 9.54223 27.7302 8.8797 26.3088C8.45808 25.4053 7.91601 24.55 7.28961 23.7791L6.28979 22.5745C6.07296 22.3215 6.10909 21.936 6.37411 21.7312C6.62708 21.5144 7.01255 21.5626 7.21733 21.8156L8.21716 23.0202C8.91583 23.8634 9.50609 24.803 9.97589 25.8028C10.5782 27.0918 11.3853 28.2361 12.3972 29.236L12.8067 29.6335C13.0476 29.8624 13.0476 30.2478 12.8188 30.4888C12.6983 30.5972 12.5417 30.6574 12.3851 30.6574Z" fill="white"></path>
      <path id="Vector_8" d="M16.646 36.743C15.9594 36.743 15.2848 36.4659 14.7909 35.9239C13.8633 34.8999 13.9356 33.3099 14.9595 32.3703L17.3206 30.214C18.3445 29.2865 19.9346 29.3587 20.8742 30.3706C21.8138 31.3825 21.7294 32.9846 20.7176 33.9242L18.3565 36.0805C17.8626 36.5262 17.2483 36.743 16.646 36.743ZM15.6823 35.1168C16.1641 35.6468 16.9953 35.6829 17.5254 35.2011L19.8864 33.0448C20.4164 32.563 20.4526 31.7318 19.9707 31.1897C19.4889 30.6597 18.6577 30.6236 18.1277 31.1054L15.7666 33.2617C15.2366 33.7556 15.1884 34.5867 15.6823 35.1168Z" fill="white"></path>
      <path id="Vector_9" d="M14.1109 33.9537C13.4242 33.9537 12.7496 33.6766 12.2558 33.1345C11.798 32.6406 11.5691 31.9902 11.6053 31.3276C11.6414 30.6651 11.9305 30.0387 12.4244 29.593L12.8942 29.1593C13.9181 28.2318 15.5082 28.3041 16.4478 29.3159C16.9056 29.8098 17.1344 30.4603 17.0983 31.1228C17.0622 31.7854 16.773 32.4118 16.2792 32.8575L15.8094 33.2911C15.3155 33.7368 14.7132 33.9537 14.1109 33.9537ZM13.1472 32.3154C13.629 32.8454 14.4602 32.8816 14.9902 32.3997L15.46 31.9661C15.713 31.7251 15.8696 31.4119 15.8816 31.0626C15.8937 30.7133 15.7732 30.376 15.5443 30.123C15.0625 29.593 14.2313 29.5568 13.7013 30.0387L13.2315 30.4724C12.9785 30.7133 12.8219 31.0265 12.8099 31.3758C12.7858 31.7251 12.9062 32.0624 13.1472 32.3154Z" fill="white"></path>
      <path id="Vector_10" d="M19.3452 39.4664C18.6586 39.4664 17.984 39.1894 17.4901 38.6473C17.0324 38.1534 16.8035 37.5029 16.8396 36.8404C16.8758 36.1658 17.1649 35.5515 17.6588 35.1058L20.4294 32.5761C20.9233 32.1183 21.5738 31.8894 22.2363 31.9256C22.9109 31.9617 23.5252 32.2508 23.983 32.7447C24.4407 33.2386 24.6696 33.8891 24.6335 34.5516C24.5973 35.2262 24.3082 35.8406 23.8143 36.2863L21.0317 38.8159C20.5619 39.2496 19.9475 39.4664 19.3452 39.4664ZM18.3815 37.8402C18.8634 38.3702 19.6946 38.4064 20.2246 37.9245L23.0072 35.3949C23.2602 35.1539 23.4168 34.8407 23.4289 34.4914C23.4409 34.1421 23.3204 33.8048 23.0916 33.5518C22.8506 33.2988 22.5374 33.1422 22.1881 33.1302C21.8267 33.1422 21.5015 33.2386 21.2485 33.4675L18.4659 35.9972C18.2129 36.2381 18.0563 36.5513 18.0443 36.9006C18.0202 37.25 18.1406 37.5872 18.3815 37.8402Z" fill="white"></path>
      <path id="Vector_11" d="M23.3452 40.9636C22.6586 40.9636 21.984 40.6866 21.4901 40.1445C21.0324 39.6506 20.8035 39.0001 20.8396 38.3376C20.8758 37.663 21.1649 37.0487 21.6588 36.603L23.6464 34.796C24.6703 33.8685 26.2604 33.9408 27.2 34.9526C28.1275 35.9766 28.0553 37.5666 27.0434 38.5062L25.0558 40.3132C24.5498 40.7468 23.9475 40.9636 23.3452 40.9636ZM22.3695 39.3254C22.8513 39.8554 23.6825 39.8915 24.2126 39.4097L26.2002 37.6028C26.7302 37.1209 26.7663 36.2898 26.2845 35.7597C25.8026 35.2297 24.9715 35.1936 24.4414 35.6754L22.4538 37.4823C22.2009 37.7232 22.0443 38.0364 22.0322 38.3858C22.0202 38.7351 22.1406 39.0724 22.3695 39.3254Z" fill="white"></path>
    </g>
  </g>
</svg>
