<?xml version="1.0" encoding="UTF-8"?>
<svg xmlns="http://www.w3.org/2000/svg" width="128" height="128" viewBox="0 0 128 128" fill="none">
  <g id="1 miejsce dzienik gazeta prawna">
    <g id="Group">
      <g id="Group_2">
        <g id="Group_3">
          <g id="Group_4">
            <g id="Group_5">
              <path id="Vector" d="M51.6393 90.6764C51.2961 90.6764 50.9529 90.5409 50.691 90.288C50.691 90.288 48.6138 88.2289 47.9816 87.5786C47.9455 87.5425 47.9093 87.4974 47.8732 87.4522C46.9069 86.1607 45.2812 83.5055 45.2812 80.2452C45.2812 74.6549 50.5555 70.3018 50.7813 70.1212C51.278 69.7148 51.9915 69.7148 52.4882 70.1212C52.714 70.3018 57.9882 74.6549 57.9882 80.2452C57.9882 85.8356 52.714 90.1887 52.4882 90.3693C52.2443 90.577 51.9373 90.6764 51.6393 90.6764ZM49.9865 85.7633C50.3478 86.1336 51.0703 86.8561 51.6663 87.4432C52.9759 86.1156 55.2879 83.3339 55.2879 80.2452C55.2879 77.1204 52.9488 74.3298 51.6393 73.0202C50.3297 74.3388 47.9906 77.1385 47.9906 80.2452C47.9906 82.0244 48.7222 84.0293 49.9865 85.7633Z" fill="white"></path>
            </g>
            <g id="Group_6">
              <path id="Vector_2" d="M42.5538 95.6874C36.9635 95.6874 32.6104 90.4132 32.4298 90.1874C32.0234 89.6907 32.0234 88.9772 32.4298 88.4805C32.6104 88.2547 36.9635 82.9805 42.5538 82.9805C45.8051 82.9805 48.4693 84.6061 49.7608 85.5724C50.3568 86.024 50.4833 86.8729 50.0317 87.469C49.5802 88.0741 48.7312 88.1915 48.1352 87.7399C46.3921 86.4394 44.3601 85.6898 42.5538 85.6898C39.429 85.6898 36.6384 88.0289 35.3198 89.3385C36.6384 90.648 39.4381 92.9871 42.5538 92.9871C46.8437 92.9871 50.5465 88.5257 50.5826 88.4805C51.0613 87.9025 51.9102 87.8122 52.4882 88.2909C53.0662 88.7605 53.1565 89.6094 52.6869 90.1964C52.4973 90.4042 48.1442 95.6874 42.5538 95.6874Z" fill="white"></path>
            </g>
          </g>
          <g id="Group_7">
            <path id="Vector_3" d="M37.2433 79.0065C37.2433 79.0065 35.5996 76.6854 35.1119 75.9539C35.0848 75.9087 35.0487 75.8546 35.0306 75.8094C34.3171 74.4005 33.2153 71.5828 33.7662 68.4489C34.7145 63.0753 40.5126 59.797 40.7564 59.6615C41.3164 59.3454 42.0208 59.4719 42.4362 59.9595C42.5898 60.1311 46.121 64.2765 46.139 69.0179C46.139 69.7675 45.5339 70.3726 44.7844 70.3726C44.0348 70.3726 43.4297 69.7675 43.4297 69.0179C43.4206 66.444 41.9937 63.9694 41.0906 62.6689C39.6185 63.7166 36.9452 65.9834 36.4304 68.9276C36.1324 70.6255 36.4846 72.6575 37.4058 74.5179C37.9387 75.3037 39.4559 77.435 39.4559 77.435L37.2433 79.0065Z" fill="white"></path>
          </g>
          <g id="Group_8">
            <path id="Vector_4" d="M29.2814 83.7847C29.2001 83.7847 29.1279 83.7757 29.0466 83.7666C23.673 82.8183 20.3946 77.0203 20.2592 76.7674C19.9431 76.2075 20.0695 75.503 20.5572 75.0876C20.774 74.8979 25.8405 70.581 31.2141 71.5202C34.3389 72.0712 36.6148 74.0761 37.6985 75.2231C38.2133 75.7649 38.1862 76.6229 37.6353 77.1377C37.0934 77.6525 36.2355 77.6254 35.7207 77.0745C34.2757 75.5392 32.4694 74.4825 30.7445 74.1845C27.8003 73.6697 24.7567 75.4037 23.2756 76.4242C24.3232 77.8963 26.5901 80.5696 29.5343 81.0843C30.2748 81.2108 30.7625 81.9152 30.6361 82.6558C30.5006 83.3241 29.9316 83.7847 29.2814 83.7847Z" fill="white"></path>
          </g>
          <g id="Group_9">
            <path id="Vector_5" d="M27.2187 64.8816C27.2187 64.8816 26.3517 62.3348 26.1078 61.5401C26.0898 61.4859 26.0807 61.4317 26.0717 61.3775C25.8098 59.9054 25.5659 57.0244 26.9206 54.3241C29.2507 49.682 35.419 48.2641 35.6809 48.2099C36.3041 48.0654 36.9453 48.3905 37.2072 48.9776C37.2885 49.1672 39.2483 53.5835 38.2368 57.774C38.0652 58.4965 37.3337 58.9481 36.6021 58.7765C35.8706 58.6049 35.4281 57.8734 35.5997 57.1418C36.1325 54.9472 35.5726 52.554 35.1391 51.1993C33.5134 51.7592 30.5693 53.0778 29.332 55.5433C28.3205 57.5663 28.5463 59.8512 28.7178 60.8266C28.9888 61.6846 29.7835 64.0237 29.7835 64.0237L27.2187 64.8816Z" fill="white"></path>
          </g>
          <g id="Group_10">
            <path id="Vector_6" d="M19.4457 67.5919C19.238 67.5919 19.0302 67.5467 18.8406 67.4474C14.1985 65.1263 12.7806 58.9489 12.7264 58.687C12.591 58.0639 12.9071 57.4227 13.4941 57.1608C13.7379 57.0524 19.536 54.4875 24.1781 56.8085C26.8784 58.1632 28.4137 60.6107 29.082 61.9473C29.4162 62.6156 29.1453 63.4284 28.4769 63.7626C27.8086 64.0968 26.9958 63.8258 26.6617 63.1575C26.2462 62.3176 25.0451 60.2675 22.9679 59.2199C20.5023 57.9826 17.3595 58.687 15.7158 59.2108C16.2757 60.8365 17.5943 63.7807 20.0598 65.0179C20.7281 65.3521 20.9991 66.1649 20.6649 66.8332C20.4211 67.3209 19.9424 67.5919 19.4457 67.5919Z" fill="white"></path>
          </g>
          <g id="Group_11">
            <path id="Vector_7" d="M24.1032 49.0766C24.1032 49.0766 23.9045 46.9181 23.8594 46.2588C23.8594 46.2046 23.8594 46.1504 23.8594 46.0872C23.9316 44.8499 24.2838 42.5018 25.8914 40.5782C28.655 37.2908 33.866 37.345 34.0828 37.3359C34.724 37.345 35.2659 37.8056 35.3923 38.4378C35.4194 38.5913 36.0787 42.1135 34.7691 45.1841C34.4711 45.8705 33.6763 46.1866 32.99 45.8976C32.3036 45.5995 31.9875 44.8048 32.2765 44.1184C32.8635 42.7457 32.9087 41.1833 32.8545 40.1356C31.4818 40.2982 29.242 40.8039 27.9686 42.3302C26.8668 43.6488 26.6229 45.3918 26.5688 46.1685C26.6229 46.9 26.8036 48.8327 26.8036 48.8327L24.1032 49.0766Z" fill="white"></path>
          </g>
          <g id="Group_12">
            <path id="Vector_8" d="M17.9452 50.7209C17.6381 50.7209 17.3311 50.6125 17.0782 50.4048C13.7908 47.6413 13.836 42.4392 13.836 42.2135C13.845 41.5722 14.3056 41.0304 14.9378 40.9039C15.1545 40.8588 20.2753 39.9105 23.5626 42.6741C25.4773 44.2816 26.2449 46.5394 26.5249 47.7406C26.6965 48.4721 26.2449 49.1946 25.5134 49.3662C24.7909 49.5378 24.0594 49.0863 23.8878 48.3547C23.7252 47.6503 23.1924 45.8892 21.8196 44.7422C20.3023 43.4688 18.0084 43.3604 16.6266 43.4327C16.7892 44.8054 17.2949 47.0452 18.8212 48.3186C19.3902 48.7972 19.4715 49.6552 18.9838 50.2242C18.7128 50.5583 18.3245 50.7209 17.9452 50.7209Z" fill="white"></path>
          </g>
          <g id="Group_13">
            <g id="Group_14">
              <path id="Vector_9" d="M20.1388 38.2488C19.5337 38.2488 18.9738 37.8334 18.8203 37.2192C18.5312 36.0632 18.459 34.9253 18.6035 33.8506C19.2086 29.2717 23.9771 26.2914 24.1758 26.165C24.7177 25.8308 25.4311 25.9211 25.8737 26.3908C26.0362 26.5624 29.8655 30.6806 29.2604 35.2595C29.161 36 28.4837 36.5329 27.7431 36.4245C27.0026 36.3251 26.4788 35.6478 26.5781 34.9072C26.8761 32.6585 25.5395 30.4006 24.6454 29.1724C23.4713 30.1207 21.5838 31.954 21.2948 34.2028C21.1955 34.9434 21.2497 35.7381 21.4574 36.569C21.638 37.2915 21.1955 38.0321 20.4639 38.2127C20.3556 38.2398 20.2472 38.2488 20.1388 38.2488Z" fill="white"></path>
            </g>
          </g>
          <path id="Vector_10" d="M71.96 103.642C71.5356 103.642 71.1201 103.444 70.8582 103.082C67.634 98.6028 64.5815 97.501 61.0503 96.2185C58.1874 95.1799 54.9451 94.0059 51.2875 90.9353C50.7185 90.4566 50.6372 89.5986 51.1249 89.0297C51.6036 88.4607 52.4615 88.3794 53.0305 88.8671C56.3179 91.6307 59.1898 92.6693 61.9715 93.6808C65.7646 95.0535 69.341 96.354 73.0528 101.511C73.4863 102.116 73.3508 102.965 72.7457 103.398C72.5109 103.552 72.24 103.642 71.96 103.642Z" fill="white"></path>
        </g>
        <g id="Group_15">
          <g id="Group_16">
            <g id="Group_17">
              <path id="Vector_11" d="M76.858 90.6724C76.56 90.6724 76.2529 90.5731 76 90.3654C75.7743 90.1848 70.5 85.8317 70.5 80.2413C70.5 74.651 75.7743 70.2979 76 70.1173C76.4968 69.7109 77.2102 69.7109 77.7069 70.1173C77.9327 70.2979 83.207 74.651 83.207 80.2413C83.207 83.5016 81.5814 86.1568 80.615 87.4483C80.5789 87.4934 80.5428 87.5386 80.5066 87.5747C79.8835 88.225 77.7973 90.2841 77.7973 90.2841C77.5444 90.537 77.2012 90.6724 76.858 90.6724ZM76.858 73.0073C75.5485 74.3259 73.2094 77.1256 73.2094 80.2323C73.2094 83.321 75.5123 86.1026 76.8309 87.4302C77.4179 86.8432 78.1404 86.1207 78.5107 85.7504C79.7841 84.0254 80.5066 82.0205 80.5066 80.2323C80.5066 77.1075 78.1675 74.3168 76.858 73.0073Z" fill="white"></path>
            </g>
            <g id="Group_18">
              <path id="Vector_12" d="M85.9406 95.6848C80.3503 95.6848 75.9972 90.4105 75.8166 90.1847C75.347 89.6067 75.4373 88.7488 76.0153 88.2791C76.5933 87.8095 77.4513 87.8998 77.9209 88.4778C77.957 88.523 81.6508 92.9754 85.9497 92.9754C89.0654 92.9754 91.8561 90.6363 93.1747 89.3268C91.8561 88.0172 89.0564 85.6781 85.9497 85.6781C84.1434 85.6781 82.1114 86.4277 80.3683 87.7282C79.7723 88.1798 78.9233 88.0533 78.4718 87.4573C78.0202 86.8612 78.1467 86.0123 78.7427 85.5607C80.0342 84.5944 82.6894 82.9688 85.9497 82.9688C91.54 82.9688 95.8931 88.243 96.0737 88.4688C96.4801 88.9655 96.4801 89.679 96.0737 90.1757C95.884 90.4015 91.54 95.6848 85.9406 95.6848Z" fill="white"></path>
            </g>
          </g>
          <g id="Group_19">
            <path id="Vector_13" d="M91.2395 79.0053L89.0269 77.4338C89.0269 77.4338 90.5441 75.2934 91.077 74.5167C91.9982 72.6563 92.3594 70.6242 92.0524 68.9264C91.5285 65.9641 88.8643 63.7153 87.3922 62.6677C86.4981 63.9682 85.0622 66.4518 85.0531 69.0257C85.0531 69.7753 84.448 70.3804 83.6984 70.3804C82.9488 70.3804 82.3438 69.7753 82.3438 69.0257C82.3528 64.2843 85.893 60.148 86.0466 59.9674C86.462 59.4797 87.1664 59.3532 87.7264 59.6693C87.9702 59.8048 93.7773 63.0922 94.7166 68.4567C95.2675 71.5816 94.1566 74.4083 93.4522 75.8172C93.4251 75.8714 93.398 75.9166 93.3709 75.9617C92.8923 76.6842 91.2395 79.0053 91.2395 79.0053Z" fill="white"></path>
          </g>
          <g id="Group_20">
            <path id="Vector_14" d="M99.2064 83.7835C98.5651 83.7835 97.9871 83.3229 97.8697 82.6636C97.7433 81.923 98.231 81.2276 98.9715 81.0922C101.916 80.5684 104.183 77.9041 105.23 76.432C103.74 75.4025 100.697 73.6685 97.7614 74.1923C96.0364 74.4993 94.2211 75.547 92.7851 77.0823C92.2704 77.6242 91.4124 77.6513 90.8705 77.1455C90.3286 76.6307 90.3015 75.7728 90.8073 75.2309C91.882 74.0839 94.1579 72.079 97.2917 71.5281C102.656 70.5888 107.732 74.9058 107.949 75.0954C108.436 75.5108 108.554 76.2153 108.247 76.7752C108.111 77.0191 104.824 82.8262 99.4592 83.7744C99.3689 83.7744 99.2876 83.7835 99.2064 83.7835Z" fill="white"></path>
          </g>
          <g id="Group_21">
            <path id="Vector_15" d="M101.276 64.8798L98.7113 64.0128C98.7113 64.0128 99.506 61.6737 99.7769 60.8158C99.9395 59.8404 100.174 57.5555 99.1628 55.5325C97.9978 53.2024 95.171 51.8026 93.3648 51.1794C92.9313 52.5341 92.3713 54.9364 92.8951 57.131C93.0667 57.8625 92.6242 58.5941 91.8927 58.7657C91.1611 58.9463 90.4296 58.4947 90.258 57.7632C89.2465 53.5637 91.2063 49.1474 91.2876 48.9667C91.5495 48.3797 92.1907 48.0636 92.8138 48.1991C93.0758 48.2533 99.2531 49.6712 101.574 54.3132C102.929 57.0136 102.685 59.8946 102.423 61.3667C102.414 61.4208 102.396 61.475 102.387 61.5292C102.134 62.333 101.276 64.8798 101.276 64.8798Z" fill="white"></path>
          </g>
          <g id="Group_22">
            <path id="Vector_16" d="M109.052 67.5886C108.555 67.5886 108.076 67.3177 107.842 66.839C107.507 66.1707 107.778 65.3579 108.447 65.0237C110.912 63.7865 112.231 60.8423 112.791 59.2166C111.156 58.6928 108.013 57.9884 105.539 59.2257C103.461 60.2643 102.26 62.3234 101.845 63.1633C101.511 63.8316 100.698 64.1026 100.029 63.7684C99.3612 63.4342 99.0902 62.6214 99.4244 61.9531C100.093 60.6165 101.619 58.169 104.328 56.8143C108.97 54.4843 114.768 57.0491 115.012 57.1665C115.599 57.4285 115.915 58.0697 115.78 58.6928C115.726 58.9547 114.308 65.1321 109.666 67.4532C109.458 67.5435 109.25 67.5886 109.052 67.5886Z" fill="white"></path>
          </g>
          <g id="Group_23">
            <path id="Vector_17" d="M104.393 49.0766L101.693 48.8237C101.693 48.8237 101.873 46.891 101.927 46.1595C101.873 45.3919 101.629 43.6398 100.528 42.3212C99.2631 40.813 97.0143 40.3073 95.6416 40.1357C95.5874 41.1833 95.6326 42.7547 96.2196 44.1184C96.5176 44.8048 96.1925 45.5996 95.5061 45.8976C94.8198 46.1956 94.025 45.8705 93.727 45.1841C92.4174 42.1225 93.0767 38.5913 93.1038 38.4378C93.2212 37.8056 93.7721 37.345 94.4133 37.336C94.6211 37.336 99.8411 37.2908 102.605 40.5782C104.212 42.4928 104.574 44.85 104.637 46.0873C104.637 46.1414 104.637 46.1956 104.637 46.2498C104.592 46.9181 104.393 49.0766 104.393 49.0766Z" fill="white"></path>
          </g>
          <g id="Group_24">
            <path id="Vector_18" d="M110.554 50.7197C110.165 50.7197 109.786 50.5571 109.515 50.232C109.036 49.663 109.109 48.8051 109.687 48.3264C111.195 47.062 111.701 44.8132 111.872 43.4405C110.49 43.3682 108.205 43.4766 106.679 44.75C105.315 45.897 104.783 47.6581 104.611 48.3625C104.439 49.0941 103.708 49.5366 102.985 49.374C102.254 49.2024 101.802 48.4709 101.974 47.7484C102.254 46.5472 103.012 44.2894 104.936 42.6819C108.224 39.9183 113.344 40.8666 113.561 40.9117C114.193 41.0292 114.645 41.5801 114.663 42.2213C114.663 42.438 114.708 47.6491 111.421 50.4126C111.168 50.6113 110.861 50.7197 110.554 50.7197Z" fill="white"></path>
          </g>
          <g id="Group_25">
            <g id="Group_26">
              <path id="Vector_19" d="M108.359 38.2474C108.251 38.2474 108.143 38.2384 108.034 38.2113C107.312 38.0307 106.869 37.2991 107.041 36.5676C107.249 35.7367 107.303 34.942 107.203 34.2014C106.905 31.9707 105.027 30.1283 103.844 29.171C102.95 30.3902 101.622 32.6571 101.911 34.8968C102.01 35.6374 101.487 36.3238 100.746 36.4141C100.006 36.5224 99.3192 35.9896 99.2288 35.249C98.6237 30.6702 102.453 26.5519 102.616 26.3803C103.058 25.9198 103.763 25.8204 104.313 26.1546C104.512 26.281 109.281 29.2523 109.886 33.8402C110.03 34.9149 109.958 36.0528 109.669 37.2088C109.515 37.841 108.965 38.2474 108.359 38.2474Z" fill="white"></path>
            </g>
          </g>
          <path id="Vector_20" d="M56.5272 103.642C56.2563 103.642 55.9763 103.561 55.7324 103.39C55.1273 102.956 54.9919 102.107 55.4254 101.502C56.9155 99.4339 58.505 97.8264 60.2752 96.6071C60.8893 96.1827 61.7382 96.3362 62.1627 96.9503C62.5872 97.5645 62.4336 98.4134 61.8195 98.8379C60.3023 99.8855 58.9385 101.267 57.629 103.083C57.3671 103.444 56.9517 103.642 56.5272 103.642Z" fill="white"></path>
          <path id="Vector_21" d="M67.6432 96.0482C67.0923 96.0482 66.5685 95.705 66.3698 95.1631C66.1169 94.4587 66.4782 93.682 67.1736 93.4291C69.8197 92.4628 72.4478 91.379 75.4462 88.8593C76.0152 88.3716 76.8731 88.4529 77.3518 89.0219C77.8305 89.5908 77.7582 90.4488 77.1892 90.9274C73.8567 93.7362 70.8764 94.9554 68.1038 95.9669C67.9593 96.0211 67.7967 96.0482 67.6432 96.0482Z" fill="white"></path>
        </g>
      </g>
      <path id="Vector_22" d="M70.604 69.7018H58.5924C57.8428 69.7018 57.2377 69.0967 57.2377 68.3471C57.2377 68.1393 57.1835 48.7131 57.0751 41.6055C55.594 41.3255 52.8846 40.9101 51.1416 40.6663C50.4733 40.5759 49.9766 39.998 49.9766 39.3206V32.9265C49.9766 32.2853 50.4191 31.7344 51.0423 31.5989C55.7837 30.5784 59.4233 28.4741 61.8436 25.3402C62.0965 25.0061 62.4939 24.8164 62.9184 24.8164H70.5949C71.3445 24.8164 71.9496 25.4215 71.9496 26.1711V68.338C71.9586 69.0876 71.3445 69.7018 70.604 69.7018ZM59.9471 66.9924H69.2493V27.5348H63.5686C60.9495 30.6596 57.3009 32.8271 52.6859 34.0012V38.1465C54.5735 38.4265 57.897 38.9323 58.8362 39.2303C59.3871 39.4109 59.7574 39.9167 59.7755 40.4947C59.8748 45.6154 59.929 62.1336 59.9471 66.9924Z" fill="white"></path>
    </g>
  </g>
</svg>
