<?xml version="1.0" encoding="UTF-8"?>
<svg xmlns="http://www.w3.org/2000/svg" width="48" height="48" viewBox="0 0 48 48" fill="none">
  <g id="catalogue 1">
    <g id="_x39_5_1_">
      <path id="Vector" d="M43.3666 37.9248V9.171C43.3666 7.384 41.9131 5.93043 40.1261 5.93043H13.6959C13.2721 3.842 11.4227 2.26489 9.21069 2.26489C6.68651 2.26489 4.6333 4.31811 4.6333 6.84184V41.1654C4.6333 41.1745 4.63817 41.1819 4.63844 41.1909C4.65472 43.7435 6.71217 45.7353 9.20538 45.7353H35.5965C37.3839 45.7353 38.8383 44.2808 38.8383 42.4934V41.1654H40.1261C41.9131 41.1654 43.3666 39.7118 43.3666 37.9248ZM6.44462 6.84184C6.44462 5.31707 7.68548 4.07621 9.21069 4.07621C10.7359 4.07621 11.9768 5.31707 11.9768 6.84184V37.5184C11.1694 36.9077 10.1327 36.5823 9.20494 36.5823C8.18813 36.5823 7.2259 36.9205 6.44462 37.514V6.84184ZM37.027 42.4934C37.027 43.2823 36.3854 43.9239 35.5965 43.9239H9.20538C7.58249 43.9239 6.21576 42.5126 6.48862 40.7282C6.71532 39.3059 7.92445 38.3967 9.19787 38.3967C10.2694 38.3967 11.2623 39.0089 11.7237 40.0169C11.8411 40.2714 12.0569 41.1654 12.8824 41.1654H37.027V42.4934ZM41.5553 37.9248C41.5553 38.7129 40.9141 39.3541 40.1261 39.3541C3.46994 39.3492 16.8418 39.3509 13.7881 39.3505V7.74175H40.1261C40.9141 7.74175 41.5553 8.38296 41.5553 9.171V37.9248Z" fill="white"></path>
      <path id="Vector_2" d="M37.9327 34.8254H17.4103C16.9102 34.8254 16.5046 35.231 16.5046 35.7311C16.5046 36.2312 16.9102 36.6368 17.4103 36.6368H37.9327C38.4329 36.6368 38.8384 36.2312 38.8384 35.7311C38.8384 35.231 38.4329 34.8254 37.9327 34.8254Z" fill="white"></path>
      <path id="Vector_3" d="M37.9328 10.4587H31.9022C31.4021 10.4587 30.9966 10.8643 30.9966 11.3644C30.9966 11.8645 31.4021 12.2701 31.9022 12.2701H37.9328C38.4329 12.2701 38.8384 11.8645 38.8384 11.3644C38.8384 10.8643 38.4329 10.4587 37.9328 10.4587Z" fill="white"></path>
      <path id="Vector_4" d="M37.9328 15.332H31.9022C31.4021 15.332 30.9966 15.7375 30.9966 16.2377C30.9966 16.7378 31.4021 17.1434 31.9022 17.1434H37.9328C38.4329 17.1434 38.8384 16.7378 38.8384 16.2377C38.8384 15.7375 38.4329 15.332 37.9328 15.332Z" fill="white"></path>
      <path id="Vector_5" d="M37.9328 20.2056H31.9022C31.4021 20.2056 30.9966 20.6111 30.9966 21.1112C30.9966 21.6114 31.4021 22.0169 31.9022 22.0169H37.9328C38.4329 22.0169 38.8384 21.6114 38.8384 21.1112C38.8384 20.6111 38.4329 20.2056 37.9328 20.2056Z" fill="white"></path>
      <path id="Vector_6" d="M37.9327 25.0789H17.4103C16.9102 25.0789 16.5046 25.4844 16.5046 25.9845C16.5046 26.4847 16.9102 26.8902 17.4103 26.8902H37.9327C38.4329 26.8902 38.8384 26.4847 38.8384 25.9845C38.8384 25.4844 38.4329 25.0789 37.9327 25.0789Z" fill="white"></path>
      <path id="Vector_7" d="M37.9327 29.9521H17.4103C16.9102 29.9521 16.5046 30.3577 16.5046 30.8578C16.5046 31.358 16.9102 31.7635 17.4103 31.7635H37.9327C38.4329 31.7635 38.8384 31.358 38.8384 30.8578C38.8384 30.3577 38.4329 29.9521 37.9327 29.9521Z" fill="white"></path>
      <path id="Vector_8" d="M17.9057 22.0725H28.1669H28.1846C28.6961 22.0725 29.1844 21.6055 29.0725 21.0022V10.9057C29.0725 10.4055 28.667 10 28.1669 10H17.9057C17.4055 10 17 10.4055 17 10.9057V21.1669C17 21.638 17.4094 22.0725 17.9057 22.0725ZM22.1757 20.1992C22.1774 20.2019 22.178 20.205 22.1797 20.2077L22.2141 20.2612H19.5613L20.8866 18.193L22.1757 20.1992ZM24.3684 20.2612L23.9822 19.6602L25.1974 17.2241L26.7182 20.2612H24.3684ZM27.2612 11.8113V17.3001L26.0057 14.7927C25.8523 14.4863 25.5388 14.2926 25.196 14.2926C24.8529 14.293 24.5389 14.4867 24.3855 14.7941L22.8426 17.8865L21.6473 16.0261C21.4805 15.7665 21.1935 15.61 20.8853 15.61C20.5767 15.61 20.2892 15.7674 20.1229 16.027L18.8113 18.0744V11.8113H27.2612Z" fill="white"></path>
    </g>
  </g>
</svg>
