<?xml version="1.0" encoding="UTF-8"?>
<svg xmlns="http://www.w3.org/2000/svg" width="48" height="48" viewBox="0 0 48 48" fill="none">
  <g id="data-exchange 1">
    <g id="_x34_0">
      <path id="Vector" d="M12.7747 18.2456H6.79287C6.29272 18.2456 5.88721 18.6511 5.88721 19.1513C5.88721 19.6514 6.29272 20.0569 6.79287 20.0569H12.7747C13.2749 20.0569 13.6804 19.6514 13.6804 19.1513C13.6804 18.6511 13.2749 18.2456 12.7747 18.2456Z" fill="white"></path>
      <path id="Vector_2" d="M5.88721 14.6774C5.88721 15.1775 6.29272 15.583 6.79287 15.583H12.7747C13.2749 15.583 13.6804 15.1775 13.6804 14.6774C13.6804 14.1772 13.2749 13.7717 12.7747 13.7717H6.79287C6.29272 13.7717 5.88721 14.1772 5.88721 14.6774Z" fill="white"></path>
      <path id="Vector_3" d="M6.79287 11.1092H8.0209C8.52105 11.1092 8.92656 10.7037 8.92656 10.2035C8.92656 9.70336 8.52105 9.29785 8.0209 9.29785H6.79287C6.29272 9.29785 5.88721 9.70336 5.88721 10.2035C5.88721 10.7037 6.29272 11.1092 6.79287 11.1092Z" fill="white"></path>
      <path id="Vector_4" d="M41.2071 18.2456H35.2252C34.7251 18.2456 34.3196 18.6511 34.3196 19.1513C34.3196 19.6514 34.7251 20.0569 35.2252 20.0569H41.2071C41.7073 20.0569 42.1128 19.6514 42.1128 19.1513C42.1128 18.6511 41.7073 18.2456 41.2071 18.2456Z" fill="white"></path>
      <path id="Vector_5" d="M35.2252 13.7717C34.7251 13.7717 34.3196 14.1772 34.3196 14.6774C34.3196 15.1775 34.7251 15.583 35.2252 15.583H41.2071C41.7073 15.583 42.1128 15.1775 42.1128 14.6774C42.1128 14.1772 41.7073 13.7717 41.2071 13.7717H35.2252Z" fill="white"></path>
      <path id="Vector_6" d="M35.2252 11.1092H36.4537C36.9539 11.1092 37.3594 10.7037 37.3594 10.2035C37.3594 9.70336 36.9539 9.29785 36.4537 9.29785H35.2252C34.7251 9.29785 34.3196 9.70336 34.3196 10.2035C34.3196 10.7037 34.7251 11.1092 35.2252 11.1092Z" fill="white"></path>
      <path id="Vector_7" d="M22.3175 38.4908H28.2994C28.7995 38.4908 29.2051 38.0853 29.2051 37.5851C29.2051 37.085 28.7995 36.6794 28.2994 36.6794H22.3175C21.8174 36.6794 21.4119 37.085 21.4119 37.5851C21.4119 38.0853 21.8174 38.4908 22.3175 38.4908Z" fill="white"></path>
      <path id="Vector_8" d="M22.3175 34.0169H28.2994C28.7995 34.0169 29.2051 33.6114 29.2051 33.1112C29.2051 32.6111 28.7995 32.2056 28.2994 32.2056H22.3175C21.8174 32.2056 21.4119 32.6111 21.4119 33.1112C21.4119 33.6114 21.8174 34.0169 22.3175 34.0169Z" fill="white"></path>
      <path id="Vector_9" d="M22.3175 29.543H23.546C24.0462 29.543 24.4517 29.1375 24.4517 28.6373C24.4517 28.1372 24.0462 27.7317 23.546 27.7317H22.3175C21.8174 27.7317 21.4119 28.1372 21.4119 28.6373C21.4119 29.1375 21.8174 29.543 22.3175 29.543Z" fill="white"></path>
      <path id="Vector_10" d="M45.734 11.4427C45.7299 10.5903 45.3979 9.78951 44.7949 9.18694L42.2247 6.61677C41.6219 6.01309 40.8205 5.6806 39.9676 5.67673C39.9651 5.67673 39.9631 5.67529 39.9606 5.67529C39.9597 5.67529 39.959 5.67579 39.9582 5.67579C39.9564 5.67579 39.9548 5.67529 39.9531 5.67529H33.1902C31.8154 5.67529 30.697 6.79366 30.697 8.16807V21.1865C30.697 22.5613 31.8154 23.6797 33.1902 23.6797H43.2427C44.6171 23.6797 45.7355 22.5613 45.7355 21.1865V11.4582C45.7355 11.4563 45.735 11.4546 45.735 11.4528C45.735 11.4519 45.7355 11.4511 45.7355 11.4502C45.7355 11.4476 45.734 11.4454 45.734 11.4427ZM40.8662 7.83331C40.8916 7.85531 40.9197 7.873 40.9436 7.89699L43.5142 10.4676C43.5378 10.4911 43.5554 10.5194 43.5771 10.5445H41.3014C41.0657 10.5445 40.8662 10.3455 40.8662 10.1098V7.83331ZM43.9242 21.1865C43.9242 21.5624 43.6186 21.8684 43.2427 21.8684H33.1902C32.8144 21.8684 32.5083 21.5624 32.5083 21.1865V8.16807C32.5083 7.79219 32.8144 7.48661 33.1902 7.48661H39.0549V10.1098C39.0549 11.3485 40.0627 12.3559 41.3014 12.3559H43.9242V21.1865Z" fill="white"></path>
      <path id="Vector_11" d="M17.7869 26.6022V39.6206C17.7869 40.995 18.9052 42.1134 20.2796 42.1134H24.4641C24.5366 42.5574 24.671 42.9908 24.8756 43.3896C25.1025 43.8315 25.6459 44.0106 26.0952 43.7814C26.5401 43.5528 26.7157 43.0067 26.487 42.5618C26.413 42.4179 26.3643 42.2662 26.3201 42.1134H30.3326C31.707 42.1134 32.8253 40.995 32.8253 39.6206V29.8918C32.8253 29.0335 32.4915 28.2269 31.8847 27.6206L29.3137 25.05C28.707 24.4433 27.9004 24.109 27.0425 24.109H26.212V23.3864C26.212 22.8862 25.8065 22.4807 25.3063 22.4807C24.8062 22.4807 24.4007 22.8862 24.4007 23.3864V24.109H20.2796C18.9052 24.109 17.7869 25.2273 17.7869 26.6022ZM27.5554 26.0192C27.7319 26.0888 27.8947 26.1925 28.033 26.3307L30.6041 28.9013C30.6277 28.9249 30.6455 28.9534 30.6673 28.9786H27.9901C27.7544 28.9786 27.5554 28.7792 27.5554 28.5435V26.0192ZM25.7441 25.9203V28.5435C25.7441 29.7822 26.7515 30.79 27.9901 30.79H31.014V39.6206C31.014 39.9965 30.7084 40.3021 30.3326 40.3021H20.2796C19.9038 40.3021 19.5982 39.9965 19.5982 39.6206V26.6022C19.5982 26.2263 19.9038 25.9203 20.2796 25.9203H25.7441Z" fill="white"></path>
      <path id="Vector_12" d="M10.7119 4.07349C10.2807 3.81922 9.72573 3.96382 9.4719 4.39454C9.23791 4.79198 9.07932 5.22613 8.98309 5.6752H4.75743C3.38302 5.6752 2.26465 6.79357 2.26465 8.16798V21.1864C2.26465 22.5613 3.38302 23.6796 4.75743 23.6796H14.8099C16.1843 23.6796 17.3027 22.5613 17.3027 21.1864V11.4581C17.3027 11.4562 17.3022 11.4545 17.3022 11.4527C17.3022 11.4518 17.3027 11.4511 17.3027 11.4501C17.3027 11.4475 17.3012 11.4453 17.3012 11.4426C17.2971 10.5902 16.9651 9.78942 16.3621 9.18685L13.7919 6.61668C13.1891 6.013 12.3877 5.68051 11.5348 5.67664C11.5323 5.67664 11.5303 5.6752 11.5278 5.6752C11.5269 5.6752 11.5262 5.6757 11.5253 5.6757C11.5236 5.6757 11.522 5.6752 11.5203 5.6752H10.8809C10.9286 5.55309 10.9662 5.42679 11.0329 5.31347C11.2868 4.88231 11.143 4.32732 10.7119 4.07349ZM12.4334 7.83322C12.4587 7.85522 12.4869 7.87291 12.5108 7.8969L15.0814 10.4675C15.105 10.4911 15.1226 10.5194 15.1443 10.5445H12.8686C12.6329 10.5445 12.4334 10.3455 12.4334 10.1098V7.83322ZM12.8686 12.3558H15.4914V21.1864C15.4914 21.5623 15.1858 21.8683 14.8099 21.8683H4.75743C4.38154 21.8683 4.07597 21.5623 4.07597 21.1864V8.16798C4.07597 7.79209 4.38154 7.48652 4.75743 7.48652H10.6221V10.1098C10.6221 11.3484 11.6299 12.3558 12.8686 12.3558Z" fill="white"></path>
      <path id="Vector_13" d="M15.9858 3.17006C15.9858 3.67021 16.3914 4.07573 16.8915 4.07573H18.7028C19.203 4.07573 19.6085 3.67021 19.6085 3.17006C19.6085 2.66992 19.203 2.2644 18.7028 2.2644H16.8915C16.3914 2.2644 15.9858 2.66992 15.9858 3.17006Z" fill="white"></path>
      <path id="Vector_14" d="M26.212 6.58084C26.212 6.02365 26.1072 5.4806 25.9002 4.96719C25.7132 4.50331 25.1869 4.27822 24.7217 4.46527C24.2574 4.65233 24.0332 5.1799 24.2198 5.64378C24.3401 5.94139 24.4007 6.2567 24.4007 6.58084V7.08453C24.4007 7.58467 24.8062 7.99019 25.3063 7.99019C25.8065 7.99019 26.212 7.58467 26.212 7.08453V6.58084Z" fill="white"></path>
      <path id="Vector_15" d="M25.3063 8.896C24.8061 8.896 24.4006 9.30151 24.4006 9.80166V11.613C24.4006 12.1131 24.8061 12.5186 25.3063 12.5186C25.8064 12.5186 26.212 12.1131 26.212 11.613V9.80166C26.212 9.30151 25.8064 8.896 25.3063 8.896Z" fill="white"></path>
      <path id="Vector_16" d="M11.4924 3.48848C11.595 3.90063 11.9642 4.17569 12.3706 4.17569C12.6147 4.17569 12.3459 4.10835 14.1744 4.07575C14.6746 4.07575 15.0801 3.67023 15.0801 3.17008C15.0801 2.66994 14.6746 2.26442 14.1744 2.26442C13.4118 2.28367 12.9094 2.20329 12.1531 2.3909C11.6679 2.51162 11.3721 3.00293 11.4924 3.48848Z" fill="white"></path>
      <path id="Vector_17" d="M23.542 2.58984C22.516 2.16661 21.718 2.28482 21.4198 2.26437C20.9197 2.26437 20.5142 2.66988 20.5142 3.17003C20.5142 3.67017 20.9197 4.07569 21.4198 4.07569C23.1767 4.17413 22.7324 4.33306 23.1962 4.33306C23.5522 4.33306 23.8896 4.12168 24.0338 3.77233C24.2248 3.31021 24.0046 2.78088 23.542 2.58984Z" fill="white"></path>
      <path id="Vector_18" d="M37.0388 42.5561C36.8358 42.9532 36.5302 43.2902 36.1548 43.5312C35.7334 43.8009 35.6109 44.3612 35.8811 44.7822C36.1498 45.2015 36.709 45.3269 37.1321 45.0559C37.7777 44.642 38.3035 44.0623 38.652 43.3795C38.8793 42.9342 38.7028 42.3885 38.2571 42.1612C37.8118 41.9343 37.2661 42.1108 37.0388 42.5561Z" fill="white"></path>
      <path id="Vector_19" d="M39.1221 40.3098V38.4984C39.1221 37.9983 38.7166 37.5928 38.2165 37.5928C37.7163 37.5928 37.3108 37.9983 37.3108 38.4984V40.3098C37.3108 40.8099 37.7163 41.2154 38.2165 41.2154C38.7166 41.2154 39.1221 40.8099 39.1221 40.3098Z" fill="white"></path>
      <path id="Vector_20" d="M32.2191 43.9248C31.719 43.9248 31.3135 44.3303 31.3135 44.8305C31.3135 45.3306 31.719 45.7361 32.2191 45.7361H34.0305C34.5306 45.7361 34.9361 45.3306 34.9361 44.8305C34.9361 44.3303 34.5306 43.9248 34.0305 43.9248H32.2191Z" fill="white"></path>
      <path id="Vector_21" d="M38.2165 27.6305C38.7166 27.6305 39.1221 27.2249 39.1221 26.7248V24.9135C39.1221 24.4133 38.7166 24.0078 38.2165 24.0078C37.7163 24.0078 37.3108 24.4133 37.3108 24.9135V26.7248C37.3108 27.2249 37.7163 27.6305 38.2165 27.6305Z" fill="white"></path>
      <path id="Vector_22" d="M29.502 45.7362C30.0021 45.7362 30.4077 45.3307 30.4077 44.8305C30.4077 44.3304 30.0021 43.9249 29.502 43.9249C28.8828 43.9068 28.513 43.9802 27.9746 43.8134C27.497 43.6644 26.9893 43.9324 26.8412 44.41C26.693 44.8876 26.9601 45.3952 27.4377 45.5434C28.3142 45.8149 28.9245 45.7135 29.502 45.7362Z" fill="white"></path>
      <path id="Vector_23" d="M21.8981 14.6218C21.5444 14.9752 21.5444 15.5487 21.8981 15.9025L24.4836 18.4884C24.4324 18.6018 24.4006 18.7257 24.4006 18.8583V20.6696C24.4006 21.1697 24.8062 21.5753 25.3063 21.5753C25.8065 21.5753 26.212 21.1697 26.212 20.6696V18.8583C26.212 18.7247 26.1794 18.6002 26.1275 18.486L28.7176 15.9034C29.0718 15.5505 29.0727 14.9769 28.7193 14.6227C28.366 14.2685 27.7929 14.2676 27.4387 14.621L26.212 15.8441V14.33C26.212 13.8298 25.8065 13.4243 25.3063 13.4243C24.8062 13.4243 24.4006 13.8298 24.4006 14.33V15.844L23.1788 14.6218C22.825 14.2681 22.2519 14.2681 21.8981 14.6218Z" fill="white"></path>
      <path id="Vector_24" d="M34.8052 35.5174C35.1585 35.8716 35.7317 35.8725 36.0859 35.5192L37.3108 34.2978V35.7814C37.3108 36.2816 37.7163 36.6871 38.2165 36.6871C38.7166 36.6871 39.1221 36.2816 39.1221 35.7814V34.2942L40.3462 35.5183C40.7 35.8721 41.2731 35.8721 41.6269 35.5183C41.9806 35.1645 41.9806 34.5914 41.6269 34.2376L39.0283 31.6391C39.0848 31.521 39.1221 31.3927 39.1221 31.2531V29.4418C39.1221 28.9416 38.7166 28.5361 38.2165 28.5361C37.7163 28.5361 37.3108 28.9416 37.3108 29.4418V31.2531C37.3108 31.3946 37.3497 31.5242 37.4076 31.6436L34.807 34.2368C34.4528 34.5896 34.4519 35.1632 34.8052 35.5174Z" fill="white"></path>
    </g>
  </g>
</svg>
