<?xml version="1.0" encoding="UTF-8"?>
<svg xmlns="http://www.w3.org/2000/svg" width="48" height="48" viewBox="0 0 48 48" fill="none">
  <g id="email 1">
    <g id="_x31_0">
      <path id="Vector" d="M24.5471 32.3944C24.2234 32.1494 23.7759 32.1494 23.4522 32.3944L19.8968 35.0906C19.4988 35.3931 19.4201 35.9609 19.7225 36.3594C20.0232 36.7573 20.5919 36.8356 20.9917 36.534L23.9997 34.2526L27.0085 36.534C27.4039 36.8343 27.9745 36.7605 28.2777 36.3594C28.5801 35.9609 28.5014 35.3927 28.1034 35.0906L24.5471 32.3944Z" fill="white"></path>
      <path id="Vector_2" d="M8.42471 5.8951V15.8293L3.91764 19.2377C2.92244 19.9865 2.2832 21.2612 2.2832 22.5189V41.6046C2.2832 43.8381 4.10405 45.7274 6.40555 45.7274H41.5945C43.9123 45.7274 45.7169 43.8051 45.7169 41.6046V22.5189C45.7169 21.3164 45.1434 20.0348 44.0833 19.2381L39.5807 15.8339V5.8951C39.5807 3.89761 37.956 2.27246 35.958 2.27246H12.0474C10.0494 2.27246 8.42471 3.89761 8.42471 5.8951ZM8.42206 18.1025V23.7474L4.72402 20.948C5.01062 20.6403 4.83114 20.8388 8.42206 18.1025ZM4.09452 41.6046V22.7432C21.9873 36.2933 15.806 31.6122 17.1452 32.6264L4.23719 42.4008C4.14372 42.1502 4.09452 41.8828 4.09452 41.6046ZM41.5945 43.916H6.40555C6.10828 43.916 5.80058 43.8568 5.49276 43.7221C7.38884 42.2863 0.329767 47.6317 22.5403 30.8131C23.4008 30.168 24.6001 30.1671 25.4554 30.81C35.3679 38.3167 37.8824 40.2208 42.5069 43.7229C42.1996 43.8566 41.8925 43.916 41.5945 43.916ZM39.5807 18.1052C43.1425 20.8184 42.9809 20.6311 43.2747 20.9464L39.5807 23.7324V18.1052ZM43.9055 22.7395V41.6046C43.9055 41.8823 43.8563 42.1492 43.7619 42.4008L30.8531 32.6258C32.1877 31.6149 26.0184 36.2877 43.9055 22.7395ZM10.236 5.8951C10.236 4.89613 11.0488 4.08378 12.0474 4.08378H35.958C36.9566 4.08378 37.7693 4.89613 37.7693 5.8951C37.769 7.85992 37.7707 -1.22088 37.7658 25.1029L29.3531 31.4889L26.5494 29.3613C25.0512 28.2337 22.956 28.2337 21.4524 29.364C21.3611 29.4332 18.4673 31.6253 18.6492 31.4876L10.236 25.1174V5.8951Z" fill="white"></path>
      <path id="Vector_3" d="M23.9978 16.7701C25.9736 16.7701 27.5815 15.1622 27.5815 13.186C27.5815 11.2097 25.9736 9.60181 23.9978 9.60181C22.0211 9.60181 20.4132 11.2097 20.4132 13.186C20.4132 15.1622 22.0211 16.7701 23.9978 16.7701ZM23.9978 11.4131C24.9751 11.4131 25.7702 12.2082 25.7702 13.186C25.7702 14.1637 24.9751 14.9588 23.9978 14.9588C23.0196 14.9588 22.2245 14.1637 22.2245 13.186C22.2245 12.2082 23.0196 11.4131 23.9978 11.4131Z" fill="white"></path>
      <path id="Vector_4" d="M34.4147 16.3101C34.4147 10.567 29.7422 5.89502 23.9996 5.89502C18.2569 5.89502 13.5845 10.567 13.5845 16.3101C13.5845 22.0429 18.2141 26.7252 23.9996 26.7252C29.6542 26.7252 34.4147 22.195 34.4147 16.3101ZM16.7352 20.9138C15.8694 19.5456 15.3958 17.9527 15.3958 16.3101C15.3958 11.566 19.2555 7.70634 23.9996 7.70634C28.7437 7.70634 32.6033 11.566 32.6033 16.3101C32.6033 17.9576 32.1304 19.553 31.2675 20.9192C30.3621 19.6299 29.1254 18.5846 27.6832 17.9233C27.4259 17.8048 27.1287 17.8132 26.8802 17.9468C25.1228 18.8816 22.9135 18.8874 21.1084 17.9587C20.8634 17.8336 20.575 17.8256 20.323 17.9384C18.8772 18.588 17.6409 19.623 16.7352 20.9138ZM17.9283 22.3966C18.5914 21.2805 19.5516 20.3683 20.6971 19.7696C22.7923 20.7009 25.2484 20.6956 27.3047 19.7563C28.437 20.3599 29.392 21.2679 30.0718 22.3993C28.3846 24.0615 26.1439 24.9139 23.9996 24.9139C21.8395 24.9139 19.6001 24.0638 17.9283 22.3966Z" fill="white"></path>
    </g>
  </g>
</svg>
