<?xml version="1.0" encoding="UTF-8"?>
<svg xmlns="http://www.w3.org/2000/svg" width="215" height="42" viewBox="0 0 215 42" fill="none">
  <path d="M19.5653 25.0378C19.5329 25.0378 19.4951 25.0324 19.4627 25.0216L19.4357 25.0108L0.410146 18.9067C0.345323 18.8851 0.285903 18.8472 0.242688 18.7932L0.0860325 18.6042C-0.0166037 18.4853 -0.0274062 18.3125 0.0536224 18.172C0.134651 18.037 0.296707 17.9721 0.453362 18.0045L11.5867 20.5759L4.8127 14.5635C4.67225 14.4393 4.64524 14.2232 4.75868 14.0666L4.87212 13.9099C4.98556 13.7587 5.19624 13.7154 5.35829 13.8127L13.1965 18.4583L7.14092 8.41077C7.04369 8.24331 7.0869 8.03263 7.23815 7.91919L7.39481 7.80575C7.55146 7.69231 7.76754 7.71932 7.89179 7.86517L15.4653 16.6163L12.2079 3.48423C12.1593 3.29516 12.2673 3.1007 12.4564 3.04128L12.6401 2.98185C12.8237 2.92243 13.0236 3.01426 13.0938 3.19793L18.177 15.7574L19.1061 0.345722C19.1169 0.151253 19.279 0 19.4735 0H19.6679C19.8624 0 20.0245 0.151253 20.0353 0.345722L20.9644 15.7574L26.0476 3.19793C26.1178 3.01966 26.3177 2.92243 26.5013 2.98185L26.685 3.04128C26.8687 3.1007 26.9767 3.29516 26.9335 3.48423L23.6762 16.6163L31.2496 7.86517C31.3739 7.71932 31.5899 7.69772 31.7466 7.81116L31.9033 7.92459C32.0599 8.03803 32.1031 8.24871 32.0005 8.41617L25.945 18.4637L33.7831 13.8181C33.9452 13.7208 34.1558 13.764 34.2693 13.9153L34.3827 14.072C34.4962 14.2232 34.4746 14.4393 34.3287 14.5635L27.5547 20.5759L38.688 18.0045C38.8447 17.9721 39.0068 18.037 39.0878 18.172C39.1688 18.3071 39.158 18.4799 39.0554 18.6042L38.8987 18.7932C38.8555 18.8472 38.7961 18.8851 38.7313 18.9067L19.6895 25.0162C19.6409 25.0324 19.6031 25.0378 19.5653 25.0378ZM7.3624 20.3652L19.5653 24.2816L31.7682 20.3652L26.3069 21.6238C26.1448 21.6616 25.972 21.5806 25.8963 21.4348C25.8207 21.2835 25.8531 21.0998 25.9774 20.9864L31.7088 15.9032L25.059 19.8466C24.9132 19.933 24.7295 19.9114 24.6107 19.7872C24.4918 19.6683 24.4702 19.4793 24.5567 19.3334L29.7263 10.7552L23.2278 18.2692C23.1144 18.3989 22.9307 18.4367 22.7794 18.3557C22.6282 18.2746 22.5471 18.1072 22.5904 17.9397L25.2913 7.04949L21.04 17.5562C20.9752 17.7182 20.8077 17.8101 20.6403 17.7831C20.4674 17.7561 20.3432 17.6102 20.3324 17.4427L19.5761 4.90493L18.8198 17.4427C18.809 17.6156 18.6794 17.7561 18.5119 17.7831C18.3445 17.8101 18.177 17.7182 18.1122 17.5562L13.8609 7.05489L16.5618 17.9451C16.6051 18.1126 16.524 18.2854 16.3728 18.3611C16.2215 18.4421 16.0379 18.4043 15.9244 18.2746L9.42052 10.7606L14.5956 19.3442C14.682 19.4901 14.6604 19.6737 14.5415 19.798C14.4227 19.9168 14.239 19.9438 14.0932 19.8574L7.43802 15.914L13.1694 20.9972C13.2937 21.1106 13.3315 21.2943 13.2505 21.4456C13.1748 21.5968 13.0074 21.6724 12.8399 21.6346L7.3624 20.3652Z" fill="#0C1439"></path>
  <path fill-rule="evenodd" clip-rule="evenodd" d="M19.5651 24.4546L0.015625 18.3342V35.8742L19.5381 41.9892L19.5651 42L39.0984 35.8742L39.1254 18.3342L19.5651 24.4546Z" fill="#0C1439"></path>
  <path d="M96.5709 17.3259C96.6465 16.91 96.7923 16.6885 96.9868 16.6885C97.1813 16.6885 97.3325 16.8127 97.6458 17.4448L104.328 31.2358L110.972 17.2719C111.167 16.883 111.286 16.6831 111.507 16.6831C111.723 16.6831 111.869 16.9262 111.945 17.4394L114.165 32.5485C114.381 34.088 114.629 34.7957 115.359 35.0172C116.066 35.2386 116.553 35.2603 116.871 35.2603C117.087 35.2603 117.26 35.2819 117.26 35.4331C117.26 35.6276 116.968 35.7032 116.623 35.7032C116.012 35.7032 112.647 35.6276 111.669 35.5574C111.107 35.5087 110.962 35.4385 110.962 35.2873C110.962 35.163 111.059 35.0928 111.232 35.0172C111.377 34.9686 111.448 34.6498 111.356 33.9638L109.892 23.2032H109.795L104.474 34.3041C103.912 35.4547 103.788 35.6762 103.566 35.6762C103.345 35.6762 103.102 35.1846 102.713 34.4554C102.124 33.3318 100.19 29.5883 99.8984 28.9076C99.677 28.3944 98.213 25.3099 97.3541 23.4787H97.2569L95.9875 33.2129C95.9388 33.6505 95.9118 33.9692 95.9118 34.3635C95.9118 34.8281 96.2305 35.0496 96.6465 35.1468C97.084 35.244 97.4298 35.2711 97.6728 35.2711C97.8673 35.2711 98.0402 35.3197 98.0402 35.4439C98.0402 35.6654 97.8187 35.714 97.4568 35.714C96.4304 35.714 95.3284 35.6384 94.8855 35.6384C94.4209 35.6384 93.2487 35.714 92.4654 35.714C92.2223 35.714 92.0225 35.6654 92.0225 35.4439C92.0225 35.3197 92.1683 35.2711 92.4168 35.2711C92.6113 35.2711 92.7841 35.2711 93.1515 35.1954C93.8375 35.0496 94.032 34.0934 94.1562 33.2616L96.5709 17.3259Z" fill="#0C1439"></path>
  <path d="M64.7861 25.0007C64.8563 25.0007 64.932 24.9521 64.932 24.8279V24.3147C64.932 20.5982 64.932 19.9121 64.8834 19.1289C64.8293 18.297 64.6349 17.908 63.83 17.7352C63.6355 17.6865 63.2196 17.6649 62.8792 17.6649C62.6092 17.6649 62.4633 17.6163 62.4633 17.4435C62.4633 17.2706 62.6362 17.222 62.9765 17.222C64.2946 17.222 65.8341 17.2976 66.4931 17.2976C67.0819 17.2976 68.6215 17.222 69.5776 17.222C69.9179 17.222 70.0908 17.2706 70.0908 17.4435C70.0908 17.6163 69.9449 17.6649 69.6532 17.6649C69.4588 17.6649 69.2373 17.6865 68.9456 17.7352C68.2866 17.8594 68.0921 18.2754 68.0435 19.1289C67.9949 19.9121 67.9949 20.5982 67.9949 24.3147V28.6146C67.9949 30.8672 67.9949 32.7957 68.1191 33.8491C68.1893 34.5297 68.3406 35.0699 69.0752 35.1671C69.4156 35.2157 69.9557 35.2643 70.3231 35.2643C70.5932 35.2643 70.7174 35.34 70.7174 35.4588C70.7174 35.6317 70.5229 35.7019 70.2312 35.7019C68.6431 35.7019 67.1035 35.6263 66.4175 35.6263C65.8557 35.6263 64.3162 35.7019 63.36 35.7019C63.0197 35.7019 62.8468 35.6263 62.8468 35.4588C62.8468 35.3346 62.9441 35.2643 63.2358 35.2643C63.6031 35.2643 63.9002 35.2157 64.1163 35.1671C64.6079 35.0699 64.7267 34.5297 64.8293 33.822C64.9536 32.7957 64.9536 30.8618 64.9536 28.6092V26.4592C64.9536 26.362 64.878 26.3134 64.8077 26.3134H55.4678C55.3922 26.3134 55.322 26.3404 55.322 26.4592V28.6092C55.322 30.8618 55.322 32.7903 55.4462 33.8436C55.5165 34.5243 55.6677 35.0645 56.4024 35.1617C56.7427 35.2103 57.2829 35.2589 57.6502 35.2589C57.9203 35.2589 58.0391 35.3346 58.0391 35.4534C58.0391 35.6263 57.8447 35.6965 57.553 35.6965C55.9648 35.6965 54.4253 35.6209 53.7392 35.6209C53.1774 35.6209 51.6325 35.6965 50.6601 35.6965C50.3414 35.6965 50.174 35.6209 50.174 35.4534C50.174 35.3292 50.2712 35.2589 50.5629 35.2589C50.9302 35.2589 51.2219 35.2103 51.4434 35.1617C51.9296 35.0645 52.0538 34.5243 52.1511 33.8166C52.2753 32.7903 52.2753 30.8564 52.2753 28.6038V24.3039C52.2753 20.5874 52.2753 19.9013 52.2267 19.1181C52.1781 18.2862 51.9836 17.8972 51.1733 17.7244C50.9789 17.6757 50.5629 17.6541 50.2226 17.6541C49.9525 17.6541 49.8066 17.6055 49.8066 17.4327C49.8066 17.2598 49.9795 17.2112 50.3198 17.2112C51.6379 17.2112 53.1828 17.2868 53.8365 17.2868C54.4253 17.2868 55.9648 17.2112 56.9155 17.2112C57.2559 17.2112 57.4287 17.2598 57.4287 17.4327C57.4287 17.6055 57.2829 17.6541 56.9912 17.6541C56.7967 17.6541 56.5752 17.6757 56.2835 17.7244C55.6245 17.8486 55.4246 18.2646 55.376 19.1181C55.3274 19.9013 55.3274 20.5874 55.3274 24.3039V24.8171C55.3274 24.9413 55.3976 24.9899 55.4732 24.9899H64.7861V25.0007Z" fill="#0C1439"></path>
  <path d="M74.9584 24.3144C74.9584 20.5979 74.9585 19.9119 74.9098 19.1286C74.8612 18.2967 74.6667 17.9024 73.8565 17.7349C73.662 17.6863 73.246 17.6593 72.9003 17.6593C72.6302 17.6593 72.4844 17.6106 72.4844 17.4378C72.4844 17.2649 72.6572 17.2163 73.0192 17.2163C74.3156 17.2163 75.8552 17.2919 76.5898 17.2919C77.1732 17.2919 78.7182 17.2163 79.5933 17.2163C79.9606 17.2163 80.1335 17.2649 80.1335 17.4378C80.1335 17.6106 79.9876 17.6593 79.7391 17.6593C79.469 17.6593 79.3232 17.6809 79.0315 17.7349C78.3725 17.8591 78.178 18.2751 78.1294 19.1286C78.0754 19.9119 78.0753 20.5979 78.0753 24.3144V27.7392C78.0753 31.2829 78.7884 32.7738 79.9876 33.7569C81.0896 34.6645 82.2132 34.7617 83.0451 34.7617C84.1201 34.7617 85.4436 34.4214 86.4213 33.4436C87.7664 32.0986 87.8366 29.8946 87.8366 27.3773V24.3198C87.8366 20.6033 87.8366 19.9173 87.788 19.134C87.7394 18.3021 87.5449 17.9078 86.7346 17.7403C86.5401 17.6917 86.1242 17.6647 85.8541 17.6647C85.584 17.6647 85.4381 17.616 85.4381 17.4432C85.4381 17.2703 85.611 17.2217 85.9513 17.2217C87.1992 17.2217 88.7387 17.2973 88.7657 17.2973C89.0574 17.2973 90.597 17.2217 91.5531 17.2217C91.8988 17.2217 92.0663 17.2703 92.0663 17.4432C92.0663 17.616 91.9204 17.6647 91.6287 17.6647C91.3586 17.6647 91.2128 17.6863 90.9211 17.7403C90.262 17.8645 90.0676 18.2805 90.019 19.134C89.9703 19.9173 89.9703 20.6033 89.9703 24.3198V26.9343C89.9703 29.6515 89.7002 32.5361 87.6475 34.2971C85.9135 35.7881 84.1525 36.0582 82.5643 36.0582C81.2679 36.0582 78.9234 35.9879 77.1354 34.3728C75.8876 33.2492 74.9584 31.4395 74.9584 27.8905V24.3144Z" fill="#0C1439"></path>
  <path d="M123.141 29.329C123.022 29.329 122.973 29.3776 122.925 29.5234L121.607 33.0185C121.364 33.6289 121.239 34.2177 121.239 34.5094C121.239 34.9469 121.455 35.2657 122.217 35.2657H122.584C122.876 35.2657 122.952 35.3143 122.952 35.4601C122.952 35.6546 122.806 35.7032 122.536 35.7032C121.753 35.7032 120.705 35.6276 119.948 35.6276C119.678 35.6276 118.339 35.7032 117.069 35.7032C116.75 35.7032 116.604 35.6546 116.604 35.4601C116.604 35.3143 116.702 35.2657 116.896 35.2657C117.112 35.2657 117.458 35.2386 117.652 35.217C118.776 35.0712 119.235 34.2393 119.727 33.0185L125.853 17.6608C126.144 16.9478 126.29 16.6831 126.539 16.6831C126.755 16.6831 126.906 16.9046 127.149 17.4664C127.732 18.8115 131.643 28.7888 133.205 32.5053C134.134 34.7039 134.841 35.0496 135.355 35.1684C135.722 35.2441 136.089 35.2657 136.381 35.2657C136.575 35.2657 136.7 35.2873 136.7 35.4601C136.7 35.6546 136.478 35.7032 135.571 35.7032C134.69 35.7032 132.907 35.7032 130.952 35.6546C130.514 35.6276 130.217 35.6276 130.217 35.4601C130.217 35.3143 130.315 35.2657 130.558 35.2386C130.73 35.19 130.903 34.9686 130.779 34.6768L128.829 29.491C128.78 29.3668 128.705 29.3182 128.586 29.3182H123.141V29.329ZM128.121 28.1081C128.24 28.1081 128.267 28.0325 128.24 27.9623L126.042 21.923C126.015 21.8257 125.993 21.7015 125.917 21.7015C125.847 21.7015 125.799 21.8257 125.772 21.923L123.524 27.9407C123.503 28.0379 123.524 28.1081 123.622 28.1081H128.121Z" fill="#0C1439"></path>
  <path d="M140.634 32.385C140.683 34.2918 141.002 34.9293 141.488 35.1021C141.904 35.248 142.368 35.275 142.763 35.275C143.033 35.275 143.179 35.3236 143.179 35.4695C143.179 35.6639 142.957 35.7125 142.617 35.7125C141.023 35.7125 140.051 35.6369 139.586 35.6369C139.365 35.6369 138.214 35.7125 136.945 35.7125C136.626 35.7125 136.41 35.6855 136.41 35.4695C136.41 35.3236 136.556 35.275 136.799 35.275C137.118 35.275 137.555 35.248 137.901 35.1508C138.533 34.9563 138.636 34.2432 138.657 32.1203L138.879 17.6432C138.879 17.157 138.949 16.8113 139.198 16.8113C139.468 16.8113 139.684 17.13 140.1 17.5676C140.391 17.8863 144.113 21.8729 147.684 25.4165C149.342 27.0803 152.648 30.6023 153.064 30.9913H153.183L152.94 20.0146C152.913 18.5237 152.697 18.0591 152.108 17.8106C151.741 17.6648 151.152 17.6648 150.812 17.6648C150.52 17.6648 150.417 17.5892 150.417 17.4433C150.417 17.2488 150.687 17.2218 151.049 17.2218C152.324 17.2218 153.496 17.2975 154.01 17.2975C154.274 17.2975 155.209 17.2218 156.403 17.2218C156.721 17.2218 156.964 17.2434 156.964 17.4433C156.964 17.5892 156.819 17.6648 156.521 17.6648C156.278 17.6648 156.078 17.6648 155.787 17.735C155.101 17.9295 154.906 18.4427 154.879 19.8147L154.615 35.2426C154.615 35.7828 154.517 35.9988 154.296 35.9988C154.026 35.9988 153.729 35.7287 153.464 35.4641C151.924 33.9947 148.791 30.7914 146.252 28.2741C143.584 25.6326 140.872 22.5751 140.429 22.1105H140.354L140.634 32.385Z" fill="#0C1439"></path>
  <path d="M162.414 24.3141C162.414 20.5976 162.414 19.9116 162.365 19.1283C162.316 18.2964 162.073 17.8805 161.533 17.7562C161.263 17.6806 160.95 17.659 160.653 17.659C160.41 17.659 160.264 17.6104 160.264 17.4159C160.264 17.2701 160.458 17.2214 160.852 17.2214C161.782 17.2214 163.321 17.2971 164.034 17.2971C164.645 17.2971 166.087 17.2214 167.016 17.2214C167.335 17.2214 167.529 17.2701 167.529 17.4159C167.529 17.6104 167.383 17.659 167.14 17.659C166.897 17.659 166.703 17.6806 166.406 17.7346C165.741 17.8589 165.547 18.2748 165.498 19.1283C165.45 19.9116 165.45 20.5976 165.45 24.3141V28.614C165.45 30.9855 165.449 32.9194 165.547 33.9727C165.622 34.6318 165.795 35.0747 166.524 35.172C166.865 35.2206 167.405 35.2692 167.772 35.2692C168.042 35.2692 168.161 35.3448 168.161 35.4637C168.161 35.6365 167.967 35.7068 167.697 35.7068C166.082 35.7068 164.542 35.6311 163.883 35.6311C163.321 35.6311 161.782 35.7068 160.804 35.7068C160.485 35.7068 160.312 35.6311 160.312 35.4637C160.312 35.3394 160.41 35.2692 160.707 35.2692C161.074 35.2692 161.366 35.2206 161.587 35.172C162.073 35.0747 162.225 34.6588 162.295 33.9511C162.414 32.9248 162.414 30.9909 162.414 28.6194V24.3141Z" fill="#0C1439"></path>
  <path d="M176.719 18.5957L173.078 18.693C171.658 18.7416 171.074 18.8658 170.707 19.4006C170.464 19.7679 170.339 20.0597 170.291 20.2541C170.242 20.4486 170.172 20.5458 170.021 20.5458C169.853 20.5458 169.805 20.4216 169.805 20.1515C169.805 19.7625 170.269 17.537 170.318 17.3425C170.388 17.0238 170.464 16.8779 170.61 16.8779C170.804 16.8779 171.053 17.121 171.658 17.1696C172.371 17.2453 173.294 17.2939 174.105 17.2939H183.785C184.568 17.2939 185.108 17.2182 185.47 17.1696C185.838 17.094 186.032 17.0508 186.129 17.0508C186.302 17.0508 186.324 17.1966 186.324 17.564C186.324 18.0771 186.248 19.7625 186.248 20.4C186.226 20.6431 186.172 20.7889 186.027 20.7889C185.832 20.7889 185.784 20.6701 185.757 20.3027L185.735 20.0326C185.681 19.3952 185.022 18.7092 182.85 18.6606L179.766 18.5903V28.6163C179.766 30.8689 179.766 32.7973 179.89 33.8507C179.96 34.5314 180.112 35.0715 180.841 35.1688C181.181 35.2174 181.721 35.266 182.089 35.266C182.359 35.266 182.478 35.3416 182.478 35.4605C182.478 35.6333 182.283 35.7036 182.013 35.7036C180.398 35.7036 178.858 35.6279 178.172 35.6279C177.61 35.6279 176.071 35.7036 175.093 35.7036C174.774 35.7036 174.602 35.6279 174.602 35.4605C174.602 35.3362 174.704 35.266 174.996 35.266C175.363 35.266 175.655 35.2174 175.876 35.1688C176.363 35.0715 176.514 34.5314 176.589 33.8237C176.708 32.7973 176.708 30.8635 176.708 28.6109V18.5957H176.719Z" fill="#0C1439"></path>
  <path d="M190.336 29.329C190.212 29.329 190.163 29.3776 190.115 29.5234L188.791 33.0185C188.548 33.6289 188.424 34.2177 188.424 34.5094C188.424 34.9469 188.645 35.2657 189.402 35.2657H189.769C190.061 35.2657 190.136 35.3143 190.136 35.4601C190.136 35.6546 189.991 35.7032 189.72 35.7032C188.937 35.7032 187.884 35.6276 187.128 35.6276C186.857 35.6276 185.512 35.7032 184.243 35.7032C183.924 35.7032 183.778 35.6546 183.778 35.4601C183.778 35.3143 183.876 35.2657 184.07 35.2657C184.286 35.2657 184.632 35.2386 184.826 35.217C185.95 35.0712 186.414 34.2393 186.901 33.0185L193.037 17.6608C193.329 16.9478 193.475 16.6831 193.723 16.6831C193.939 16.6831 194.091 16.9046 194.334 17.4664C194.917 18.8115 198.833 28.7888 200.4 32.5053C201.329 34.7039 202.037 35.0496 202.55 35.1684C202.917 35.2441 203.285 35.2657 203.576 35.2657C203.771 35.2657 203.895 35.2873 203.895 35.4601C203.895 35.6546 203.674 35.7032 202.771 35.7032C201.891 35.7032 200.108 35.7032 198.153 35.6546C197.715 35.6276 197.418 35.6276 197.418 35.4601C197.418 35.3143 197.515 35.2657 197.758 35.2386C197.931 35.19 198.099 34.9686 197.98 34.6768L196.024 29.491C195.976 29.3668 195.9 29.3182 195.781 29.3182H190.336V29.329ZM195.328 28.1081C195.446 28.1081 195.473 28.0325 195.446 27.9623L193.248 21.923C193.226 21.8257 193.199 21.7015 193.124 21.7015C193.048 21.7015 192.999 21.8257 192.978 21.923L190.725 27.9407C190.704 28.0379 190.725 28.1081 190.822 28.1081H195.328Z" fill="#0C1439"></path>
  <path d="M204.884 35.4119C204.49 35.239 204.42 35.1202 204.42 34.58C204.42 33.2349 204.517 31.7656 204.539 31.3766C204.56 31.0093 204.636 30.7446 204.836 30.7446C205.052 30.7446 205.079 30.9661 205.079 31.1606C205.079 31.4793 205.176 31.9925 205.3 32.4084C205.835 34.218 207.278 34.8771 208.795 34.8771C210.994 34.8771 212.074 33.3862 212.074 32.0897C212.074 30.8905 211.707 29.7669 209.681 28.1787L208.558 27.2982C205.868 25.1969 204.939 23.4845 204.939 21.502C204.939 18.8118 207.186 16.8779 210.589 16.8779C212.177 16.8779 213.203 17.121 213.841 17.2939C214.062 17.3425 214.181 17.4181 214.181 17.5856C214.181 17.9043 214.084 18.6119 214.084 20.5188C214.084 21.059 214.008 21.2535 213.814 21.2535C213.641 21.2535 213.565 21.1076 213.565 20.8159C213.565 20.5944 213.441 19.8382 212.928 19.2008C212.561 18.7362 211.853 18.0015 210.265 18.0015C208.455 18.0015 207.353 19.0549 207.353 20.5188C207.353 21.6424 207.915 22.5013 209.946 24.0409L210.632 24.554C213.592 26.7796 214.64 28.465 214.64 30.7878C214.64 32.2031 214.106 33.8939 212.339 35.0445C211.118 35.8278 209.746 36.0439 208.455 36.0439C207.034 36.0493 205.938 35.8764 204.884 35.4119Z" fill="#0C1439"></path>
  <path d="M61.8298 11.3221C61.6893 11.3221 61.4679 11.3113 61.2356 11.2681C61.0303 11.2194 60.609 11.1168 60.0202 9.72312C59.4854 8.45367 58.486 5.94178 57.6757 3.92147C57.0383 2.31711 56.4819 0.928821 56.3253 0.566894C56.1848 0.242779 56.066 0.010498 55.8283 0.010498C55.5798 0.010498 55.4663 0.253581 55.2881 0.691135L51.55 10.0418C51.2421 10.8143 50.9774 11.2194 50.394 11.3005C50.2805 11.3167 50.0807 11.3275 49.951 11.3275C49.6755 11.3275 49.6377 11.4841 49.6377 11.5814C49.6377 11.8623 49.9402 11.8623 50.0536 11.8623C50.5884 11.8623 51.1286 11.8407 51.4851 11.8299C51.6418 11.8245 51.7552 11.8191 51.8093 11.8191C52.0361 11.8191 52.3062 11.8299 52.5817 11.8407C52.8626 11.8515 53.1489 11.8623 53.3866 11.8623C53.6459 11.8623 53.7756 11.765 53.7756 11.5814C53.7756 11.3275 53.5271 11.3275 53.419 11.3275H53.1975C52.7708 11.3275 52.7384 11.16 52.7384 11.0034C52.7384 10.8413 52.814 10.4956 52.9545 10.1445L53.7594 8.01072C53.7648 7.99991 53.7647 7.98911 53.7701 7.98371L57.1085 7.99991L58.3023 11.16C58.3186 11.2032 58.324 11.2411 58.3078 11.2735C58.297 11.3005 58.2753 11.3167 58.2807 11.3167C58.1889 11.3275 57.9512 11.3491 57.9512 11.5868C57.9512 11.8083 58.1997 11.8245 58.4644 11.8353L58.5292 11.8407C59.723 11.8677 60.8196 11.8677 61.3436 11.8677C61.819 11.8677 62.1647 11.8677 62.1647 11.5868C62.1593 11.4085 62.0459 11.3221 61.8298 11.3221ZM56.7142 6.96275H54.1591L55.4555 3.50012L56.7142 6.96275Z" fill="#0C1439"></path>
  <path d="M83.5292 11.3221C83.3887 11.3221 83.1673 11.3113 82.935 11.2681C82.7297 11.2194 82.3084 11.1168 81.7196 9.72312C81.1848 8.45367 80.18 5.93099 79.3751 3.91067C78.7377 2.31171 78.1867 0.928821 78.03 0.566894C77.8896 0.242779 77.7708 0.010498 77.5331 0.010498C77.2846 0.010498 77.1711 0.253581 76.9929 0.691135L73.2548 10.0418C73.0927 10.4524 72.9361 10.7711 72.7254 10.9872C72.1042 10.6685 71.5478 10.1391 71.013 9.62589L70.9157 9.53405C70.3593 9.00466 67.6476 6.08764 66.9669 5.25034C67.5936 4.60212 69.6409 2.56559 70.1001 2.12264C70.6565 1.57704 71.1534 1.23133 71.6612 1.03686C71.9259 0.939622 72.2824 0.880205 72.4769 0.880205C72.7146 0.880205 72.8334 0.788373 72.8334 0.61011C72.8334 0.507474 72.7848 0.340015 72.4445 0.340015C72.2122 0.340015 71.8935 0.350815 71.5694 0.361619C71.2507 0.372422 70.9319 0.383231 70.7051 0.383231C70.4944 0.383231 70.1649 0.372422 69.857 0.361619C69.5815 0.350815 69.3222 0.340015 69.1763 0.340015C69.0845 0.340015 68.8036 0.340015 68.8036 0.61011C68.8036 0.826186 69.0035 0.869395 69.1061 0.891003C69.1493 0.901807 69.2087 0.912617 69.2087 1.05847C69.2087 1.24754 68.9062 1.60406 68.5605 2.0146L68.4957 2.08483C68.2364 2.38733 67.3505 3.30566 66.5726 4.11594C66.1675 4.53729 65.7893 4.93163 65.5516 5.18012V4.78578C65.5516 2.51698 65.5517 2.11184 65.5841 1.63647C65.6165 1.08547 65.7515 0.961232 66.027 0.912615C66.1999 0.885606 66.2809 0.869399 66.4214 0.869399C66.7293 0.869399 66.7671 0.680332 66.7671 0.599304C66.7671 0.329208 66.4538 0.329208 66.3187 0.329208C66.0432 0.329208 65.6381 0.340014 65.2708 0.35622C64.9628 0.367023 64.6819 0.377824 64.5199 0.377824C64.3794 0.377824 64.1418 0.372422 63.8609 0.361619C63.4395 0.350815 62.9101 0.334607 62.4402 0.334607C62.2997 0.334607 61.9756 0.334607 61.9756 0.604703C61.9756 0.782965 62.1052 0.874798 62.3645 0.874798C62.586 0.874798 62.8183 0.891005 62.9155 0.918014C63.3099 0.999043 63.4179 1.15029 63.4503 1.64187C63.4773 2.11183 63.4773 2.52238 63.4773 4.79118V7.41111C63.4773 8.77239 63.4773 9.95 63.4071 10.5658C63.3477 11.0034 63.2774 11.2303 63.0776 11.2681C62.9101 11.3059 62.7427 11.3221 62.5698 11.3221C62.2619 11.3221 62.1971 11.4625 62.1971 11.576C62.1971 11.7056 62.2727 11.8569 62.6292 11.8569C62.9695 11.8569 63.4179 11.8407 63.8122 11.8299C64.1039 11.8191 64.3632 11.8137 64.5091 11.8137C64.6549 11.8137 64.8926 11.8191 65.1789 11.8299C65.6111 11.8407 66.1513 11.8569 66.6482 11.8569C67.0372 11.8569 67.0642 11.6408 67.0642 11.576C67.0642 11.4517 66.9615 11.3221 66.7347 11.3221C66.5456 11.3221 66.2215 11.2951 66.027 11.2627C65.865 11.2357 65.6435 11.1384 65.6057 10.582C65.5625 9.9446 65.5625 8.77239 65.5625 7.40571V6.36313C65.9028 6.8277 68.809 10.2363 69.4788 10.8305C70.1433 11.4193 70.5592 11.7542 71.4019 11.8299C71.4775 11.8353 71.5532 11.8407 71.6072 11.8461C71.6558 11.8569 71.7098 11.8623 71.7854 11.8623H72.0393C72.1582 11.8623 72.2878 11.8623 72.4445 11.8623H73.7409C73.876 11.8623 73.9732 11.8515 74.0434 11.8299L74.3081 11.8407C74.5944 11.8515 74.8807 11.8623 75.1238 11.8623C75.3831 11.8623 75.5128 11.765 75.5128 11.5814C75.5128 11.3275 75.2643 11.3275 75.1562 11.3275H74.9348C74.508 11.3275 74.4756 11.16 74.4756 11.0034C74.4756 10.8413 74.5512 10.4956 74.6917 10.1445L75.4966 8.01072C75.502 7.99991 75.502 7.98911 75.5074 7.98371L78.8457 7.99991L80.0396 11.16C80.0558 11.2032 80.0612 11.2411 80.045 11.2735C80.0342 11.3005 80.0126 11.3167 80.018 11.3167C79.9261 11.3275 79.6884 11.3491 79.6884 11.5868C79.6884 11.8083 79.9369 11.8245 80.2016 11.8353L80.2664 11.8407C81.4603 11.8677 82.5568 11.8677 83.0808 11.8677C83.5562 11.8677 83.9019 11.8677 83.9019 11.5868C83.8587 11.4085 83.7507 11.3221 83.5292 11.3221ZM78.4136 6.96275H75.8585L77.1549 3.50012L78.4136 6.96275Z" fill="#0C1439"></path>
  <path d="M88.5475 0.338623C88.0289 0.338623 87.4887 0.354822 87.0404 0.365626C86.7217 0.37643 86.4462 0.381839 86.2517 0.381839C86.0788 0.381839 85.8087 0.37643 85.5008 0.365626C85.0741 0.354822 84.5663 0.338623 84.1072 0.338623C83.9667 0.338623 83.6426 0.338623 83.6426 0.608718C83.6426 0.786981 83.7722 0.878814 84.0315 0.878814C84.253 0.878814 84.4853 0.89502 84.5825 0.92203C84.9768 1.00306 85.0849 1.15431 85.1173 1.64588C85.1443 2.11585 85.1443 2.52639 85.1443 4.79519V7.41511C85.1443 8.77639 85.1443 9.95401 85.0687 10.5698C85.0093 11.0074 84.939 11.2343 84.7392 11.2775C84.5663 11.3153 84.4042 11.3315 84.2314 11.3315C83.9235 11.3315 83.8587 11.4719 83.8587 11.5854C83.8587 11.715 83.9343 11.8663 84.2908 11.8663C84.4367 11.8663 84.6041 11.8609 84.777 11.8501C84.9552 11.8447 85.1443 11.8339 85.328 11.8339C85.6845 11.8177 86.0086 11.8177 86.1707 11.8177C86.5056 11.8177 86.9702 11.8555 87.4617 11.8933L87.6184 11.9041C88.191 11.9473 88.8014 11.9959 89.3416 11.9959C92.345 11.9959 93.8954 10.7373 94.4248 10.1971C94.9272 9.68932 96.0886 8.25781 96.0886 5.9512C96.0886 4.02272 95.2837 2.78028 94.6084 2.07804C92.9501 0.338624 90.4058 0.338623 88.5475 0.338623ZM93.8306 6.38336C93.8306 8.11197 93.4362 9.28958 92.6259 9.98643C91.7724 10.7265 90.8055 11.0236 89.293 11.0236C88.2072 11.0236 87.6292 10.7481 87.4509 10.4834C87.3861 10.3916 87.3375 10.035 87.3105 9.42462C87.2943 9.14913 87.2835 8.00392 87.2835 6.42656V4.5521C87.2835 3.39609 87.2835 2.08343 87.2997 1.57566C87.2997 1.45681 87.3213 1.43521 87.4023 1.39739C87.4833 1.35958 87.9857 1.30556 88.3098 1.30556C90.0709 1.30556 91.4213 1.78093 92.4423 2.75867C92.8582 3.15301 93.8306 4.30362 93.8306 6.38336Z" fill="#0C1439"></path>
  <path d="M104.965 9.32777C104.727 9.32777 104.689 9.53844 104.668 9.66269C104.571 10.2407 104.408 10.5108 104.074 10.662C103.712 10.8295 103.096 10.8295 102.728 10.8295C101.248 10.8295 101.103 10.6296 101.076 9.7113C101.065 9.40879 101.07 8.64173 101.07 8.02591C101.07 7.77742 101.076 7.56135 101.076 7.41009V6.23247C101.076 6.22707 101.076 6.22167 101.076 6.21627C101.535 6.21627 102.874 6.23247 103.128 6.25948C103.668 6.3189 103.793 6.53498 103.847 6.73485C103.874 6.8645 103.885 6.99414 103.89 7.11299C103.895 7.1616 103.895 7.21022 103.901 7.24263C103.901 7.40469 104.009 7.51273 104.171 7.51273C104.441 7.51273 104.441 7.21022 104.441 7.09678C104.441 7.04276 104.452 6.84289 104.468 6.62141C104.479 6.43775 104.495 6.23788 104.5 6.10823C104.538 5.61126 104.581 5.33576 104.603 5.18451C104.614 5.09808 104.625 5.04406 104.625 5.01165C104.625 4.86039 104.533 4.75776 104.387 4.75776C104.257 4.75776 104.171 4.85499 104.047 4.99544C103.944 5.10888 103.739 5.14669 103.42 5.1737C103.209 5.18991 102.356 5.20072 101.081 5.20072C101.081 5.19531 101.081 5.18451 101.081 5.1737V1.40858C101.081 1.40317 101.081 1.39777 101.081 1.39777C101.464 1.39777 102.912 1.43018 103.15 1.45719C103.895 1.54902 103.966 1.72188 104.036 1.91095C104.101 2.0622 104.117 2.28369 104.117 2.39713C104.117 2.69423 104.284 2.74285 104.387 2.74285C104.473 2.74285 104.619 2.70504 104.668 2.46735C104.689 2.34311 104.706 2.046 104.722 1.78131C104.733 1.64626 104.738 1.52742 104.743 1.4734C104.77 1.01964 104.814 0.798159 104.841 0.663111C104.857 0.587484 104.862 0.538866 104.862 0.501052C104.862 0.252565 104.689 0.230957 104.635 0.230957C104.571 0.230957 104.5 0.252569 104.446 0.268774C104.419 0.279578 104.392 0.284976 104.365 0.290378C104.268 0.317388 104.063 0.344399 103.749 0.376811C103.496 0.393016 101.07 0.393016 100.033 0.393016C99.8601 0.393016 99.6008 0.382216 99.2929 0.371412L99.093 0.366005C98.9093 0.366005 98.7149 0.360606 98.515 0.360606C98.3043 0.355204 98.0937 0.3498 97.8884 0.3498C97.7479 0.3498 97.4238 0.3498 97.4238 0.619895C97.4238 0.798158 97.5535 0.88999 97.8128 0.88999C98.0342 0.88999 98.2665 0.906197 98.3638 0.933206C98.7581 1.01423 98.8661 1.16549 98.8985 1.65707C98.9255 2.12703 98.9256 2.53757 98.9256 4.80637V7.4263C98.9256 8.78758 98.9256 9.96519 98.8553 10.581C98.7959 11.0186 98.7257 11.2454 98.5258 11.2833C98.3583 11.3211 98.1909 11.3373 98.018 11.3373C97.7101 11.3373 97.6453 11.4777 97.6453 11.5912C97.6453 11.7208 97.7209 11.8775 98.0775 11.8775C98.2233 11.8775 98.3908 11.8721 98.5636 11.8613C98.7419 11.8559 98.931 11.8451 99.1146 11.8451C99.4712 11.8288 99.7953 11.8288 99.9573 11.8288C100.373 11.8288 100.822 11.8397 101.502 11.8721L101.929 11.8829C102.496 11.8991 103.198 11.9153 104.084 11.9153C104.652 11.9153 104.889 11.9153 105.019 11.4237C105.095 11.1158 105.219 10.0894 105.219 9.73831C105.219 9.59246 105.219 9.32777 104.965 9.32777Z" fill="#0C1439"></path>
  <path d="M121.396 11.3224C121.201 11.3224 120.92 11.3062 120.51 11.1819C120.159 11.0793 120.013 10.7498 119.872 9.78822L118.517 0.588778C118.495 0.448328 118.435 0.0107783 118.117 0.0107783C117.884 0.0107783 117.776 0.232258 117.668 0.442932L113.741 8.68624L109.798 0.540163C109.614 0.178235 109.49 0.00537109 109.274 0.00537109C109.139 0.00537109 108.961 0.0918059 108.89 0.507753L107.416 10.215C107.34 10.7282 107.227 11.2089 106.913 11.2792C106.703 11.3224 106.611 11.3224 106.492 11.3224C106.168 11.3224 106.119 11.4736 106.119 11.56C106.119 11.6735 106.173 11.8572 106.524 11.8572C106.794 11.8572 107.14 11.8409 107.443 11.8301C107.675 11.8193 107.875 11.8139 107.999 11.8139C108.107 11.8139 108.269 11.8193 108.474 11.8301C108.788 11.8409 109.182 11.8572 109.566 11.8572C109.711 11.8572 110.057 11.8572 110.057 11.56C110.057 11.506 110.03 11.3224 109.701 11.3224C109.517 11.3224 109.317 11.3008 109.106 11.2521C108.804 11.1819 108.766 11.0307 108.766 10.9064C108.766 10.6633 108.782 10.4743 108.809 10.2258L109.539 4.66182C109.711 5.02375 109.9 5.43429 110.09 5.83403C110.478 6.66592 110.851 7.4492 110.932 7.63827C111.11 8.05421 112.272 10.3014 112.65 11.0253L112.699 11.1171C112.958 11.6033 113.088 11.8463 113.293 11.8463C113.52 11.8463 113.606 11.6735 113.968 10.9388L117.063 4.48895L117.911 10.6903C117.966 11.0847 117.917 11.1873 117.917 11.1873C117.841 11.2197 117.674 11.29 117.674 11.4736C117.674 11.7221 117.982 11.7491 118.23 11.7707C118.819 11.8139 120.872 11.8572 121.261 11.8572C121.714 11.8572 121.785 11.6681 121.785 11.56C121.768 11.3224 121.488 11.3224 121.396 11.3224Z" fill="#0C1439"></path>
  <path d="M139.392 11.3221C139.247 11.3221 139.031 11.3113 138.798 11.2681C138.593 11.2194 138.172 11.1168 137.583 9.72312C137.048 8.45367 136.043 5.93099 135.238 3.91067C134.601 2.31171 134.05 0.928821 133.893 0.566894C133.753 0.242779 133.634 0.010498 133.396 0.010498C133.148 0.010498 133.034 0.253581 132.856 0.691135L129.118 10.0418C128.81 10.8143 128.545 11.2194 127.962 11.3005C127.854 11.3167 127.649 11.3275 127.519 11.3275C127.476 11.3275 127.438 11.3329 127.411 11.3437C127.368 11.3329 127.319 11.3275 127.271 11.3275C127.049 11.3275 126.73 11.3005 126.53 11.2681C126.174 11.2194 126.093 11.0358 126.05 10.6576C125.99 10.0256 125.99 8.86962 125.99 7.41111V4.79118C125.99 2.52238 125.99 2.11724 126.017 1.64187C126.05 1.09087 126.185 0.966631 126.455 0.918014C126.628 0.891005 126.736 0.874798 126.882 0.874798C127.19 0.874798 127.254 0.718143 127.254 0.588498C127.254 0.334608 126.919 0.334607 126.806 0.334607C126.493 0.334607 126.082 0.350815 125.715 0.361619C125.418 0.372422 125.153 0.377824 124.986 0.377824C124.786 0.377824 124.472 0.367023 124.143 0.35622C123.759 0.345416 123.349 0.329208 123.046 0.329208C122.884 0.329208 122.555 0.329209 122.555 0.583099C122.555 0.712744 122.62 0.869399 122.927 0.869399C123.122 0.869399 123.295 0.885608 123.435 0.923421C123.624 0.966637 123.803 1.08007 123.835 1.63647C123.862 2.10643 123.862 2.51698 123.862 4.78578V7.40571C123.862 8.86422 123.862 10.0148 123.786 10.636C123.738 11.1168 123.635 11.2249 123.457 11.2627C123.289 11.3005 123.122 11.3167 122.949 11.3167C122.641 11.3167 122.576 11.4571 122.576 11.5706C122.576 11.7002 122.652 11.8515 123.008 11.8515C123.349 11.8515 123.797 11.8353 124.186 11.8245C124.478 11.8137 124.737 11.8083 124.883 11.8083C125.04 11.8083 125.277 11.8137 125.564 11.8245C126.028 11.8353 126.601 11.8515 127.206 11.8515C127.276 11.8515 127.335 11.8461 127.389 11.8299C127.443 11.8461 127.514 11.8515 127.605 11.8515C128.14 11.8515 128.702 11.8299 129.037 11.8191C129.194 11.8137 129.307 11.8083 129.361 11.8083C129.588 11.8083 129.858 11.8191 130.134 11.8299C130.414 11.8407 130.701 11.8515 130.938 11.8515C131.198 11.8515 131.327 11.7542 131.327 11.5706C131.327 11.3167 131.079 11.3167 130.971 11.3167H130.749C130.323 11.3167 130.29 11.1492 130.29 10.9926C130.29 10.8305 130.366 10.4848 130.506 10.1337L131.311 7.99991C131.317 7.98911 131.322 7.9783 131.322 7.9729L134.66 7.98911L135.854 11.1492C135.87 11.1924 135.876 11.2303 135.86 11.2627C135.849 11.2897 135.827 11.3059 135.833 11.3059C135.741 11.3167 135.503 11.3383 135.503 11.576C135.503 11.7974 135.752 11.8137 136.016 11.8245L136.086 11.8299C137.28 11.8569 138.377 11.8569 138.901 11.8569C139.376 11.8569 139.722 11.8569 139.722 11.576C139.717 11.4085 139.609 11.3221 139.392 11.3221ZM134.271 6.96275H131.716L133.013 3.50012L134.271 6.96275Z" fill="#0C1439"></path>
</svg>
