<?xml version="1.0" encoding="UTF-8"?>
<svg xmlns="http://www.w3.org/2000/svg" width="215" height="42" viewBox="0 0 215 42" fill="none">
  <path d="M19.5653 25.0378C19.5329 25.0378 19.4951 25.0324 19.4627 25.0216L19.4357 25.0108L0.410146 18.9067C0.345323 18.8851 0.285903 18.8472 0.242688 18.7932L0.0860325 18.6042C-0.0166037 18.4853 -0.0274062 18.3125 0.0536224 18.172C0.134651 18.037 0.296707 17.9721 0.453362 18.0045L11.5867 20.5759L4.8127 14.5635C4.67225 14.4393 4.64524 14.2232 4.75868 14.0666L4.87212 13.9099C4.98556 13.7587 5.19624 13.7154 5.35829 13.8127L13.1965 18.4583L7.14092 8.41077C7.04369 8.24331 7.0869 8.03263 7.23815 7.91919L7.39481 7.80575C7.55146 7.69231 7.76754 7.71932 7.89179 7.86517L15.4653 16.6163L12.2079 3.48423C12.1593 3.29516 12.2673 3.1007 12.4564 3.04128L12.6401 2.98185C12.8237 2.92243 13.0236 3.01426 13.0938 3.19793L18.177 15.7574L19.1061 0.345722C19.1169 0.151253 19.279 0 19.4735 0H19.6679C19.8624 0 20.0245 0.151253 20.0353 0.345722L20.9644 15.7574L26.0476 3.19793C26.1178 3.01966 26.3177 2.92243 26.5013 2.98185L26.685 3.04128C26.8687 3.1007 26.9767 3.29516 26.9335 3.48423L23.6762 16.6163L31.2496 7.86517C31.3739 7.71932 31.5899 7.69772 31.7466 7.81116L31.9033 7.92459C32.0599 8.03803 32.1031 8.24871 32.0005 8.41617L25.945 18.4637L33.7831 13.8181C33.9452 13.7208 34.1558 13.764 34.2693 13.9153L34.3827 14.072C34.4962 14.2232 34.4746 14.4393 34.3287 14.5635L27.5547 20.5759L38.688 18.0045C38.8447 17.9721 39.0068 18.037 39.0878 18.172C39.1688 18.3071 39.158 18.4799 39.0554 18.6042L38.8987 18.7932C38.8555 18.8472 38.7961 18.8851 38.7313 18.9067L19.6895 25.0162C19.6409 25.0324 19.6031 25.0378 19.5653 25.0378ZM7.3624 20.3652L19.5653 24.2816L31.7682 20.3652L26.3069 21.6238C26.1448 21.6616 25.972 21.5806 25.8963 21.4348C25.8207 21.2835 25.8531 21.0998 25.9774 20.9864L31.7088 15.9032L25.059 19.8466C24.9132 19.933 24.7295 19.9114 24.6107 19.7872C24.4918 19.6683 24.4702 19.4793 24.5567 19.3334L29.7263 10.7552L23.2278 18.2692C23.1144 18.3989 22.9307 18.4367 22.7794 18.3557C22.6282 18.2746 22.5471 18.1072 22.5904 17.9397L25.2913 7.04949L21.04 17.5562C20.9752 17.7182 20.8077 17.8101 20.6403 17.7831C20.4674 17.7561 20.3432 17.6102 20.3324 17.4427L19.5761 4.90493L18.8198 17.4427C18.809 17.6156 18.6794 17.7561 18.5119 17.7831C18.3445 17.8101 18.177 17.7182 18.1122 17.5562L13.8609 7.05489L16.5618 17.9451C16.6051 18.1126 16.524 18.2854 16.3728 18.3611C16.2215 18.4421 16.0379 18.4043 15.9244 18.2746L9.42052 10.7606L14.5956 19.3442C14.682 19.4901 14.6604 19.6737 14.5415 19.798C14.4227 19.9168 14.239 19.9438 14.0932 19.8574L7.43802 15.914L13.1694 20.9972C13.2937 21.1106 13.3315 21.2943 13.2505 21.4456C13.1748 21.5968 13.0074 21.6724 12.8399 21.6346L7.3624 20.3652Z" fill="white"></path>
  <path fill-rule="evenodd" clip-rule="evenodd" d="M19.5651 24.4546L0.015625 18.3342V35.8742L19.5381 41.9892L19.5651 42L39.0984 35.8742L39.1254 18.3342L19.5651 24.4546Z" fill="white"></path>
  <path d="M96.5699 17.3257C96.6455 16.9097 96.7914 16.6883 96.9858 16.6883C97.1803 16.6883 97.3316 16.8125 97.6449 17.4445L104.327 31.2356L110.971 17.2717C111.166 16.8827 111.285 16.6829 111.506 16.6829C111.722 16.6829 111.868 16.9259 111.944 17.4391L114.164 32.5483C114.38 34.0878 114.628 34.7954 115.358 35.0169C116.065 35.2384 116.552 35.26 116.87 35.26C117.086 35.26 117.259 35.2816 117.259 35.4329C117.259 35.6273 116.967 35.703 116.622 35.703C116.011 35.703 112.646 35.6273 111.668 35.5571C111.106 35.5085 110.961 35.4383 110.961 35.287C110.961 35.1628 111.058 35.0926 111.231 35.0169C111.377 34.9683 111.447 34.6496 111.355 33.9635L109.891 23.203H109.794L104.473 34.3039C103.911 35.4545 103.787 35.676 103.565 35.676C103.344 35.676 103.101 35.1844 102.712 34.4551C102.123 33.3315 100.189 29.588 99.8975 28.9074C99.676 28.3942 98.2121 25.3097 97.3532 23.4785H97.2559L95.9865 33.2127C95.9379 33.6502 95.9108 33.969 95.9108 34.3633C95.9108 34.8279 96.2296 35.0493 96.6455 35.1466C97.0831 35.2438 97.4288 35.2708 97.6719 35.2708C97.8663 35.2708 98.0392 35.3194 98.0392 35.4437C98.0392 35.6652 97.8177 35.7138 97.4558 35.7138C96.4294 35.7138 95.3274 35.6381 94.8845 35.6381C94.4199 35.6381 93.2477 35.7138 92.4644 35.7138C92.2213 35.7138 92.0215 35.6652 92.0215 35.4437C92.0215 35.3194 92.1673 35.2708 92.4158 35.2708C92.6103 35.2708 92.7832 35.2708 93.1505 35.1952C93.8365 35.0493 94.031 34.0932 94.1552 33.2613L96.5699 17.3257Z" fill="white"></path>
  <path d="M64.7861 25.0005C64.8563 25.0005 64.932 24.9519 64.932 24.8276V24.3144C64.932 20.5979 64.932 19.9119 64.8834 19.1286C64.8293 18.2967 64.6349 17.9078 63.83 17.7349C63.6355 17.6863 63.2196 17.6647 62.8792 17.6647C62.6092 17.6647 62.4633 17.6161 62.4633 17.4432C62.4633 17.2704 62.6362 17.2217 62.9765 17.2217C64.2946 17.2217 65.8341 17.2974 66.4931 17.2974C67.0819 17.2974 68.6215 17.2217 69.5776 17.2217C69.9179 17.2217 70.0908 17.2704 70.0908 17.4432C70.0908 17.6161 69.9449 17.6647 69.6532 17.6647C69.4588 17.6647 69.2373 17.6863 68.9456 17.7349C68.2866 17.8592 68.0921 18.2751 68.0435 19.1286C67.9949 19.9119 67.9949 20.5979 67.9949 24.3144V28.6144C67.9949 30.867 67.9949 32.7954 68.1191 33.8488C68.1893 34.5294 68.3406 35.0696 69.0752 35.1669C69.4156 35.2155 69.9557 35.2641 70.3231 35.2641C70.5932 35.2641 70.7174 35.3397 70.7174 35.4586C70.7174 35.6314 70.5229 35.7017 70.2312 35.7017C68.6431 35.7017 67.1035 35.626 66.4175 35.626C65.8557 35.626 64.3162 35.7017 63.36 35.7017C63.0197 35.7017 62.8468 35.626 62.8468 35.4586C62.8468 35.3343 62.9441 35.2641 63.2358 35.2641C63.6031 35.2641 63.9002 35.2155 64.1163 35.1669C64.6079 35.0696 64.7267 34.5294 64.8293 33.8218C64.9536 32.7954 64.9536 30.8616 64.9536 28.609V26.459C64.9536 26.3618 64.878 26.3132 64.8077 26.3132H55.4678C55.3922 26.3132 55.322 26.3402 55.322 26.459V28.609C55.322 30.8616 55.322 32.79 55.4462 33.8434C55.5165 34.524 55.6677 35.0642 56.4024 35.1615C56.7427 35.2101 57.2829 35.2587 57.6502 35.2587C57.9203 35.2587 58.0391 35.3343 58.0391 35.4532C58.0391 35.626 57.8447 35.6963 57.553 35.6963C55.9648 35.6963 54.4253 35.6206 53.7392 35.6206C53.1774 35.6206 51.6325 35.6963 50.6601 35.6963C50.3414 35.6963 50.174 35.6206 50.174 35.4532C50.174 35.3289 50.2712 35.2587 50.5629 35.2587C50.9302 35.2587 51.2219 35.2101 51.4434 35.1615C51.9296 35.0642 52.0538 34.524 52.1511 33.8164C52.2753 32.79 52.2753 30.8561 52.2753 28.6036V24.3036C52.2753 20.5871 52.2753 19.9011 52.2267 19.1178C52.1781 18.2859 51.9836 17.897 51.1733 17.7241C50.9789 17.6755 50.5629 17.6539 50.2226 17.6539C49.9525 17.6539 49.8066 17.6053 49.8066 17.4324C49.8066 17.2596 49.9795 17.2109 50.3198 17.2109C51.6379 17.2109 53.1828 17.2866 53.8365 17.2866C54.4253 17.2866 55.9648 17.2109 56.9155 17.2109C57.2559 17.2109 57.4287 17.2596 57.4287 17.4324C57.4287 17.6053 57.2829 17.6539 56.9912 17.6539C56.7967 17.6539 56.5752 17.6755 56.2835 17.7241C55.6245 17.8484 55.4246 18.2643 55.376 19.1178C55.3274 19.9011 55.3274 20.5871 55.3274 24.3036V24.8168C55.3274 24.9411 55.3976 24.9897 55.4732 24.9897H64.7861V25.0005Z" fill="white"></path>
  <path d="M74.9565 24.3142C74.9565 20.5977 74.9565 19.9116 74.9079 19.1283C74.8593 18.2965 74.6648 17.9021 73.8545 17.7347C73.66 17.686 73.2441 17.659 72.8984 17.659C72.6283 17.659 72.4824 17.6104 72.4824 17.4375C72.4824 17.2647 72.6553 17.2161 73.0172 17.2161C74.3137 17.2161 75.8532 17.2917 76.5879 17.2917C77.1713 17.2917 78.7162 17.2161 79.5913 17.2161C79.9587 17.2161 80.1315 17.2647 80.1315 17.4375C80.1315 17.6104 79.9857 17.659 79.7372 17.659C79.4671 17.659 79.3212 17.6806 79.0295 17.7347C78.3705 17.8589 78.176 18.2748 78.1274 19.1283C78.0734 19.9116 78.0734 20.5977 78.0734 24.3142V27.739C78.0734 31.2826 78.7864 32.7736 79.9857 33.7567C81.0877 34.6642 82.2113 34.7615 83.0432 34.7615C84.1181 34.7615 85.4416 34.4211 86.4193 33.4434C87.7644 32.0983 87.8346 29.8943 87.8346 27.377V24.3196C87.8346 20.6031 87.8346 19.917 87.786 19.1337C87.7374 18.3018 87.5429 17.9075 86.7326 17.74C86.5382 17.6914 86.1222 17.6644 85.8521 17.6644C85.582 17.6644 85.4362 17.6158 85.4362 17.4429C85.4362 17.2701 85.609 17.2215 85.9494 17.2215C87.1972 17.2215 88.7368 17.2971 88.7638 17.2971C89.0555 17.2971 90.595 17.2215 91.5512 17.2215C91.8969 17.2215 92.0643 17.2701 92.0643 17.4429C92.0643 17.6158 91.9185 17.6644 91.6268 17.6644C91.3567 17.6644 91.2108 17.686 90.9191 17.74C90.2601 17.8643 90.0656 18.2802 90.017 19.1337C89.9684 19.917 89.9684 20.6031 89.9684 24.3196V26.9341C89.9684 29.6513 89.6983 32.5359 87.6456 34.2969C85.9116 35.7878 84.1505 36.0579 82.5624 36.0579C81.2659 36.0579 78.9215 35.9877 77.1335 34.3725C75.8856 33.2489 74.9565 31.4393 74.9565 27.8902V24.3142Z" fill="white"></path>
  <path d="M123.14 29.3287C123.021 29.3287 122.972 29.3773 122.924 29.5232L121.606 33.0182C121.363 33.6286 121.238 34.2174 121.238 34.5091C121.238 34.9467 121.454 35.2654 122.216 35.2654H122.583C122.875 35.2654 122.951 35.314 122.951 35.4599C122.951 35.6543 122.805 35.703 122.535 35.703C121.752 35.703 120.704 35.6273 119.947 35.6273C119.677 35.6273 118.338 35.703 117.068 35.703C116.749 35.703 116.604 35.6543 116.604 35.4599C116.604 35.314 116.701 35.2654 116.895 35.2654C117.111 35.2654 117.457 35.2384 117.651 35.2168C118.775 35.0709 119.234 34.239 119.726 33.0182L125.852 17.6606C126.143 16.9476 126.289 16.6829 126.538 16.6829C126.754 16.6829 126.905 16.9043 127.148 17.4661C127.731 18.8112 131.642 28.7885 133.204 32.505C134.133 34.7036 134.84 35.0493 135.354 35.1682C135.721 35.2438 136.088 35.2654 136.38 35.2654C136.574 35.2654 136.699 35.287 136.699 35.4599C136.699 35.6543 136.477 35.703 135.57 35.703C134.689 35.703 132.906 35.703 130.951 35.6543C130.513 35.6273 130.216 35.6273 130.216 35.4599C130.216 35.314 130.314 35.2654 130.557 35.2384C130.73 35.1898 130.902 34.9683 130.778 34.6766L128.828 29.4908C128.779 29.3665 128.704 29.3179 128.585 29.3179H123.14V29.3287ZM128.12 28.1079C128.239 28.1079 128.266 28.0323 128.239 27.962L126.041 21.9227C126.014 21.8255 125.992 21.7012 125.916 21.7012C125.846 21.7012 125.798 21.8255 125.771 21.9227L123.523 27.9404C123.502 28.0377 123.523 28.1079 123.621 28.1079H128.12Z" fill="white"></path>
  <path d="M140.634 32.3847C140.683 34.2916 141.002 34.929 141.488 35.1019C141.904 35.2477 142.368 35.2747 142.763 35.2747C143.033 35.2747 143.179 35.3234 143.179 35.4692C143.179 35.6637 142.957 35.7123 142.617 35.7123C141.023 35.7123 140.051 35.6367 139.586 35.6367C139.365 35.6367 138.214 35.7123 136.945 35.7123C136.626 35.7123 136.41 35.6853 136.41 35.4692C136.41 35.3234 136.556 35.2747 136.799 35.2747C137.118 35.2747 137.555 35.2477 137.901 35.1505C138.533 34.956 138.636 34.243 138.657 32.12L138.879 17.6429C138.879 17.1568 138.949 16.811 139.198 16.811C139.468 16.811 139.684 17.1298 140.1 17.5673C140.391 17.886 144.113 21.8726 147.684 25.4163C149.342 27.0801 152.648 30.6021 153.064 30.991H153.183L152.94 20.0144C152.913 18.5234 152.697 18.0589 152.108 17.8104C151.741 17.6645 151.152 17.6645 150.812 17.6645C150.52 17.6645 150.417 17.5889 150.417 17.4431C150.417 17.2486 150.687 17.2216 151.049 17.2216C152.324 17.2216 153.496 17.2972 154.01 17.2972C154.274 17.2972 155.209 17.2216 156.403 17.2216C156.721 17.2216 156.964 17.2432 156.964 17.4431C156.964 17.5889 156.819 17.6645 156.521 17.6645C156.278 17.6645 156.078 17.6645 155.787 17.7348C155.101 17.9292 154.906 18.4424 154.879 19.8145L154.615 35.2423C154.615 35.7825 154.517 35.9986 154.296 35.9986C154.026 35.9986 153.729 35.7285 153.464 35.4638C151.924 33.9945 148.791 30.7912 146.252 28.2739C143.584 25.6323 140.872 22.5749 140.429 22.1103H140.354L140.634 32.3847Z" fill="white"></path>
  <path d="M162.414 24.3139C162.414 20.5974 162.414 19.9113 162.365 19.1281C162.316 18.2962 162.073 17.8802 161.533 17.756C161.263 17.6803 160.95 17.6587 160.653 17.6587C160.41 17.6587 160.264 17.6101 160.264 17.4157C160.264 17.2698 160.458 17.2212 160.852 17.2212C161.782 17.2212 163.321 17.2968 164.034 17.2968C164.645 17.2968 166.087 17.2212 167.016 17.2212C167.335 17.2212 167.529 17.2698 167.529 17.4157C167.529 17.6101 167.383 17.6587 167.14 17.6587C166.897 17.6587 166.703 17.6804 166.406 17.7344C165.741 17.8586 165.547 18.2746 165.498 19.1281C165.45 19.9113 165.45 20.5974 165.45 24.3139V28.6138C165.45 30.9852 165.449 32.9191 165.547 33.9725C165.622 34.6315 165.795 35.0745 166.524 35.1717C166.865 35.2203 167.405 35.2689 167.772 35.2689C168.042 35.2689 168.161 35.3446 168.161 35.4634C168.161 35.6363 167.967 35.7065 167.697 35.7065C166.082 35.7065 164.542 35.6309 163.883 35.6309C163.321 35.6309 161.782 35.7065 160.804 35.7065C160.485 35.7065 160.312 35.6309 160.312 35.4634C160.312 35.3392 160.41 35.2689 160.707 35.2689C161.074 35.2689 161.366 35.2203 161.587 35.1717C162.073 35.0745 162.225 34.6585 162.295 33.9509C162.414 32.9245 162.414 30.9906 162.414 28.6192V24.3139Z" fill="white"></path>
  <path d="M176.719 18.5955L173.078 18.6927C171.658 18.7413 171.074 18.8656 170.707 19.4004C170.464 19.7677 170.339 20.0594 170.291 20.2539C170.242 20.4483 170.172 20.5456 170.021 20.5456C169.853 20.5456 169.805 20.4213 169.805 20.1512C169.805 19.7623 170.269 17.5367 170.318 17.3422C170.388 17.0235 170.464 16.8777 170.61 16.8777C170.804 16.8777 171.053 17.1208 171.658 17.1694C172.371 17.245 173.294 17.2936 174.105 17.2936H183.785C184.568 17.2936 185.108 17.218 185.47 17.1694C185.838 17.0938 186.032 17.0505 186.129 17.0505C186.302 17.0505 186.324 17.1964 186.324 17.5637C186.324 18.0769 186.248 19.7623 186.248 20.3997C186.226 20.6428 186.172 20.7887 186.027 20.7887C185.832 20.7887 185.784 20.6698 185.757 20.3025L185.735 20.0324C185.681 19.395 185.022 18.7089 182.85 18.6603L179.766 18.5901V28.616C179.766 30.8686 179.766 32.7971 179.89 33.8505C179.96 34.5311 180.112 35.0713 180.841 35.1685C181.181 35.2172 181.721 35.2658 182.089 35.2658C182.359 35.2658 182.478 35.3414 182.478 35.4602C182.478 35.6331 182.283 35.7033 182.013 35.7033C180.398 35.7033 178.858 35.6277 178.172 35.6277C177.61 35.6277 176.071 35.7033 175.093 35.7033C174.774 35.7033 174.602 35.6277 174.602 35.4602C174.602 35.336 174.704 35.2658 174.996 35.2658C175.363 35.2658 175.655 35.2172 175.876 35.1685C176.363 35.0713 176.514 34.5311 176.589 33.8235C176.708 32.7971 176.708 30.8632 176.708 28.6106V18.5955H176.719Z" fill="white"></path>
  <path d="M190.335 29.3287C190.211 29.3287 190.162 29.3773 190.114 29.5232L188.79 33.0182C188.547 33.6286 188.423 34.2174 188.423 34.5091C188.423 34.9467 188.644 35.2654 189.401 35.2654H189.768C190.06 35.2654 190.135 35.314 190.135 35.4599C190.135 35.6543 189.99 35.703 189.719 35.703C188.936 35.703 187.883 35.6273 187.127 35.6273C186.856 35.6273 185.511 35.703 184.242 35.703C183.923 35.703 183.777 35.6543 183.777 35.4599C183.777 35.314 183.875 35.2654 184.069 35.2654C184.285 35.2654 184.631 35.2384 184.825 35.2168C185.949 35.0709 186.413 34.239 186.9 33.0182L193.036 17.6606C193.328 16.9476 193.474 16.6829 193.722 16.6829C193.938 16.6829 194.09 16.9043 194.333 17.4661C194.916 18.8112 198.832 28.7885 200.399 32.505C201.328 34.7036 202.036 35.0493 202.549 35.1682C202.916 35.2438 203.284 35.2654 203.575 35.2654C203.77 35.2654 203.894 35.287 203.894 35.4599C203.894 35.6543 203.673 35.703 202.77 35.703C201.89 35.703 200.107 35.703 198.152 35.6543C197.714 35.6273 197.417 35.6273 197.417 35.4599C197.417 35.314 197.514 35.2654 197.757 35.2384C197.93 35.1898 198.098 34.9683 197.979 34.6766L196.023 29.4908C195.975 29.3665 195.899 29.3179 195.78 29.3179H190.335V29.3287ZM195.327 28.1079C195.445 28.1079 195.472 28.0323 195.445 27.962L193.247 21.9227C193.225 21.8255 193.198 21.7012 193.123 21.7012C193.047 21.7012 192.998 21.8255 192.977 21.9227L190.724 27.9404C190.703 28.0377 190.724 28.1079 190.821 28.1079H195.327Z" fill="white"></path>
  <path d="M204.884 35.4116C204.49 35.2388 204.42 35.1199 204.42 34.5797C204.42 33.2347 204.517 31.7653 204.539 31.3764C204.56 31.0091 204.636 30.7444 204.836 30.7444C205.052 30.7444 205.079 30.9659 205.079 31.1603C205.079 31.479 205.176 31.9922 205.3 32.4082C205.835 34.2178 207.278 34.8768 208.795 34.8768C210.994 34.8768 212.074 33.3859 212.074 32.0895C212.074 30.8902 211.707 29.7666 209.681 28.1785L208.558 27.298C205.868 25.1966 204.939 23.4842 204.939 21.5017C204.939 18.8116 207.186 16.8777 210.589 16.8777C212.177 16.8777 213.203 17.1208 213.841 17.2936C214.062 17.3423 214.181 17.4179 214.181 17.5853C214.181 17.904 214.084 18.6117 214.084 20.5186C214.084 21.0588 214.008 21.2532 213.814 21.2532C213.641 21.2532 213.565 21.1074 213.565 20.8157C213.565 20.5942 213.441 19.8379 212.928 19.2005C212.561 18.7359 211.853 18.0013 210.265 18.0013C208.455 18.0013 207.353 19.0547 207.353 20.5186C207.353 21.6422 207.915 22.5011 209.946 24.0406L210.632 24.5538C213.592 26.7794 214.64 28.4648 214.64 30.7876C214.64 32.2029 214.106 33.8937 212.339 35.0443C211.118 35.8276 209.746 36.0436 208.455 36.0436C207.034 36.049 205.938 35.8762 204.884 35.4116Z" fill="white"></path>
  <path d="M61.8288 11.3221C61.6884 11.3221 61.4669 11.3113 61.2346 11.2681C61.0293 11.2194 60.608 11.1168 60.0192 9.72312C59.4844 8.45367 58.485 5.94178 57.6748 3.92147C57.0373 2.31711 56.4809 0.928821 56.3243 0.566894C56.1838 0.242779 56.065 0.010498 55.8273 0.010498C55.5788 0.010498 55.4654 0.253581 55.2871 0.691135L51.549 10.0418C51.2411 10.8143 50.9764 11.2194 50.393 11.3005C50.2795 11.3167 50.0797 11.3275 49.95 11.3275C49.6745 11.3275 49.6367 11.4841 49.6367 11.5814C49.6367 11.8623 49.9392 11.8623 50.0527 11.8623C50.5875 11.8623 51.1276 11.8407 51.4842 11.8299C51.6408 11.8245 51.7543 11.8191 51.8083 11.8191C52.0352 11.8191 52.3053 11.8299 52.5808 11.8407C52.8617 11.8515 53.148 11.8623 53.3856 11.8623C53.6449 11.8623 53.7746 11.765 53.7746 11.5814C53.7746 11.3275 53.5261 11.3275 53.4181 11.3275H53.1966C52.7698 11.3275 52.7374 11.16 52.7374 11.0034C52.7374 10.8413 52.813 10.4956 52.9535 10.1445L53.7584 8.01072C53.7638 7.99991 53.7638 7.98911 53.7692 7.98371L57.1076 7.99991L58.3014 11.16C58.3176 11.2032 58.323 11.2411 58.3068 11.2735C58.296 11.3005 58.2744 11.3167 58.2798 11.3167C58.1879 11.3275 57.9502 11.3491 57.9502 11.5868C57.9502 11.8083 58.1987 11.8245 58.4634 11.8353L58.5282 11.8407C59.7221 11.8677 60.8187 11.8677 61.3426 11.8677C61.818 11.8677 62.1637 11.8677 62.1637 11.5868C62.1583 11.4085 62.0449 11.3221 61.8288 11.3221ZM56.7132 6.96275H54.1581L55.4546 3.50012L56.7132 6.96275Z" fill="white"></path>
  <path d="M83.5282 11.3221C83.3878 11.3221 83.1663 11.3113 82.934 11.2681C82.7287 11.2194 82.3074 11.1168 81.7186 9.72312C81.1838 8.45367 80.179 5.93099 79.3741 3.91067C78.7367 2.31171 78.1857 0.928821 78.0291 0.566894C77.8886 0.242779 77.7698 0.010498 77.5321 0.010498C77.2836 0.010498 77.1702 0.253581 76.9919 0.691135L73.2538 10.0418C73.0917 10.4524 72.9351 10.7711 72.7244 10.9872C72.1032 10.6685 71.5468 10.1391 71.012 9.62589L70.9148 9.53405C70.3584 9.00466 67.6466 6.08764 66.966 5.25034C67.5926 4.60212 69.6399 2.56559 70.0991 2.12264C70.6555 1.57704 71.1525 1.23133 71.6602 1.03686C71.9249 0.939622 72.2814 0.880205 72.4759 0.880205C72.7136 0.880205 72.8324 0.788373 72.8324 0.61011C72.8324 0.507474 72.7838 0.340015 72.4435 0.340015C72.2112 0.340015 71.8925 0.350815 71.5684 0.361619C71.2497 0.372422 70.931 0.383231 70.7041 0.383231C70.4934 0.383231 70.1639 0.372422 69.856 0.361619C69.5805 0.350815 69.3212 0.340015 69.1754 0.340015C69.0835 0.340015 68.8026 0.340015 68.8026 0.61011C68.8026 0.826186 69.0025 0.869395 69.1051 0.891003C69.1483 0.901807 69.2078 0.912617 69.2078 1.05847C69.2078 1.24754 68.9053 1.60406 68.5595 2.0146L68.4947 2.08483C68.2354 2.38733 67.3495 3.30566 66.5716 4.11594C66.1665 4.53729 65.7884 4.93163 65.5507 5.18012V4.78578C65.5507 2.51698 65.5507 2.11184 65.5831 1.63647C65.6155 1.08547 65.7505 0.961232 66.026 0.912615C66.1989 0.885606 66.2799 0.869399 66.4204 0.869399C66.7283 0.869399 66.7661 0.680332 66.7661 0.599304C66.7661 0.329208 66.4528 0.329208 66.3177 0.329208C66.0422 0.329208 65.6371 0.340014 65.2698 0.35622C64.9619 0.367023 64.681 0.377824 64.5189 0.377824C64.3785 0.377824 64.1408 0.372422 63.8599 0.361619C63.4385 0.350815 62.9091 0.334607 62.4392 0.334607C62.2987 0.334607 61.9746 0.334607 61.9746 0.604703C61.9746 0.782965 62.1043 0.874798 62.3635 0.874798C62.585 0.874798 62.8173 0.891005 62.9145 0.918014C63.3089 0.999043 63.4169 1.15029 63.4493 1.64187C63.4763 2.11183 63.4763 2.52238 63.4763 4.79118V7.41111C63.4763 8.77239 63.4763 9.95 63.4061 10.5658C63.3467 11.0034 63.2765 11.2303 63.0766 11.2681C62.9091 11.3059 62.7417 11.3221 62.5688 11.3221C62.2609 11.3221 62.1961 11.4625 62.1961 11.576C62.1961 11.7056 62.2717 11.8569 62.6282 11.8569C62.9686 11.8569 63.4169 11.8407 63.8113 11.8299C64.103 11.8191 64.3623 11.8137 64.5081 11.8137C64.654 11.8137 64.8916 11.8191 65.1779 11.8299C65.6101 11.8407 66.1503 11.8569 66.6473 11.8569C67.0362 11.8569 67.0632 11.6408 67.0632 11.576C67.0632 11.4517 66.9606 11.3221 66.7337 11.3221C66.5446 11.3221 66.2205 11.2951 66.026 11.2627C65.864 11.2357 65.6425 11.1384 65.6047 10.582C65.5615 9.9446 65.5615 8.77239 65.5615 7.40571V6.36313C65.9018 6.8277 68.808 10.2363 69.4779 10.8305C70.1423 11.4193 70.5582 11.7542 71.4009 11.8299C71.4766 11.8353 71.5522 11.8407 71.6062 11.8461C71.6548 11.8569 71.7088 11.8623 71.7845 11.8623H72.0384C72.1572 11.8623 72.2868 11.8623 72.4435 11.8623H73.74C73.875 11.8623 73.9722 11.8515 74.0425 11.8299L74.3072 11.8407C74.5935 11.8515 74.8798 11.8623 75.1228 11.8623C75.3821 11.8623 75.5118 11.765 75.5118 11.5814C75.5118 11.3275 75.2633 11.3275 75.1553 11.3275H74.9338C74.507 11.3275 74.4746 11.16 74.4746 11.0034C74.4746 10.8413 74.5502 10.4956 74.6907 10.1445L75.4956 8.01072C75.501 7.99991 75.501 7.98911 75.5064 7.98371L78.8448 7.99991L80.0386 11.16C80.0548 11.2032 80.0602 11.2411 80.044 11.2735C80.0332 11.3005 80.0116 11.3167 80.017 11.3167C79.9251 11.3275 79.6875 11.3491 79.6875 11.5868C79.6875 11.8083 79.9359 11.8245 80.2006 11.8353L80.2655 11.8407C81.4593 11.8677 82.5559 11.8677 83.0798 11.8677C83.5552 11.8677 83.9009 11.8677 83.9009 11.5868C83.8577 11.4085 83.7497 11.3221 83.5282 11.3221ZM78.4126 6.96275H75.8575L77.154 3.50012L78.4126 6.96275Z" fill="white"></path>
  <path d="M88.5475 0.338623C88.0289 0.338623 87.4887 0.354822 87.0404 0.365626C86.7217 0.37643 86.4462 0.381839 86.2517 0.381839C86.0788 0.381839 85.8087 0.37643 85.5008 0.365626C85.0741 0.354822 84.5663 0.338623 84.1072 0.338623C83.9667 0.338623 83.6426 0.338623 83.6426 0.608718C83.6426 0.786981 83.7722 0.878814 84.0315 0.878814C84.253 0.878814 84.4853 0.89502 84.5825 0.92203C84.9768 1.00306 85.0849 1.15431 85.1173 1.64588C85.1443 2.11585 85.1443 2.52639 85.1443 4.79519V7.41511C85.1443 8.77639 85.1443 9.95401 85.0687 10.5698C85.0093 11.0074 84.939 11.2343 84.7392 11.2775C84.5663 11.3153 84.4042 11.3315 84.2314 11.3315C83.9235 11.3315 83.8587 11.4719 83.8587 11.5854C83.8587 11.715 83.9343 11.8663 84.2908 11.8663C84.4367 11.8663 84.6041 11.8609 84.777 11.8501C84.9552 11.8447 85.1443 11.8339 85.328 11.8339C85.6845 11.8177 86.0086 11.8177 86.1707 11.8177C86.5056 11.8177 86.9702 11.8555 87.4617 11.8933L87.6184 11.9041C88.191 11.9473 88.8014 11.9959 89.3416 11.9959C92.345 11.9959 93.8954 10.7373 94.4248 10.1971C94.9272 9.68932 96.0886 8.25781 96.0886 5.9512C96.0886 4.02272 95.2837 2.78028 94.6084 2.07804C92.9501 0.338624 90.4058 0.338623 88.5475 0.338623ZM93.8306 6.38336C93.8306 8.11197 93.4362 9.28958 92.6259 9.98643C91.7724 10.7265 90.8055 11.0236 89.293 11.0236C88.2072 11.0236 87.6292 10.7481 87.4509 10.4834C87.3861 10.3916 87.3375 10.035 87.3105 9.42462C87.2943 9.14913 87.2835 8.00392 87.2835 6.42656V4.5521C87.2835 3.39609 87.2835 2.08343 87.2997 1.57566C87.2997 1.45681 87.3213 1.43521 87.4023 1.39739C87.4833 1.35958 87.9857 1.30556 88.3098 1.30556C90.0709 1.30556 91.4213 1.78093 92.4423 2.75867C92.8582 3.15301 93.8306 4.30362 93.8306 6.38336Z" fill="white"></path>
  <path d="M104.965 9.32777C104.727 9.32777 104.689 9.53844 104.668 9.66269C104.571 10.2407 104.408 10.5108 104.074 10.662C103.712 10.8295 103.096 10.8295 102.728 10.8295C101.248 10.8295 101.103 10.6296 101.076 9.7113C101.065 9.40879 101.07 8.64173 101.07 8.02591C101.07 7.77742 101.076 7.56135 101.076 7.41009V6.23247C101.076 6.22707 101.076 6.22167 101.076 6.21627C101.535 6.21627 102.874 6.23247 103.128 6.25948C103.668 6.3189 103.793 6.53498 103.847 6.73485C103.874 6.8645 103.885 6.99414 103.89 7.11299C103.895 7.1616 103.895 7.21022 103.901 7.24263C103.901 7.40469 104.009 7.51273 104.171 7.51273C104.441 7.51273 104.441 7.21022 104.441 7.09678C104.441 7.04276 104.452 6.84289 104.468 6.62141C104.479 6.43775 104.495 6.23788 104.5 6.10823C104.538 5.61126 104.581 5.33576 104.603 5.18451C104.614 5.09808 104.625 5.04406 104.625 5.01165C104.625 4.86039 104.533 4.75776 104.387 4.75776C104.257 4.75776 104.171 4.85499 104.047 4.99544C103.944 5.10888 103.739 5.14669 103.42 5.1737C103.209 5.18991 102.356 5.20072 101.081 5.20072C101.081 5.19531 101.081 5.18451 101.081 5.1737V1.40858C101.081 1.40317 101.081 1.39777 101.081 1.39777C101.464 1.39777 102.912 1.43018 103.15 1.45719C103.895 1.54902 103.966 1.72188 104.036 1.91095C104.101 2.0622 104.117 2.28369 104.117 2.39713C104.117 2.69423 104.284 2.74285 104.387 2.74285C104.473 2.74285 104.619 2.70504 104.668 2.46735C104.689 2.34311 104.706 2.046 104.722 1.78131C104.733 1.64626 104.738 1.52742 104.743 1.4734C104.77 1.01964 104.814 0.798159 104.841 0.663111C104.857 0.587484 104.862 0.538866 104.862 0.501052C104.862 0.252565 104.689 0.230957 104.635 0.230957C104.571 0.230957 104.5 0.252569 104.446 0.268774C104.419 0.279578 104.392 0.284976 104.365 0.290378C104.268 0.317388 104.063 0.344399 103.749 0.376811C103.496 0.393016 101.07 0.393016 100.033 0.393016C99.8601 0.393016 99.6008 0.382216 99.2929 0.371412L99.093 0.366005C98.9093 0.366005 98.7149 0.360606 98.515 0.360606C98.3043 0.355204 98.0937 0.3498 97.8884 0.3498C97.7479 0.3498 97.4238 0.3498 97.4238 0.619895C97.4238 0.798158 97.5535 0.88999 97.8128 0.88999C98.0342 0.88999 98.2665 0.906197 98.3638 0.933206C98.7581 1.01423 98.8661 1.16549 98.8985 1.65707C98.9255 2.12703 98.9256 2.53757 98.9256 4.80637V7.4263C98.9256 8.78758 98.9256 9.96519 98.8553 10.581C98.7959 11.0186 98.7257 11.2454 98.5258 11.2833C98.3583 11.3211 98.1909 11.3373 98.018 11.3373C97.7101 11.3373 97.6453 11.4777 97.6453 11.5912C97.6453 11.7208 97.7209 11.8775 98.0775 11.8775C98.2233 11.8775 98.3908 11.8721 98.5636 11.8613C98.7419 11.8559 98.931 11.8451 99.1146 11.8451C99.4712 11.8288 99.7953 11.8288 99.9573 11.8288C100.373 11.8288 100.822 11.8397 101.502 11.8721L101.929 11.8829C102.496 11.8991 103.198 11.9153 104.084 11.9153C104.652 11.9153 104.889 11.9153 105.019 11.4237C105.095 11.1158 105.219 10.0894 105.219 9.73831C105.219 9.59246 105.219 9.32777 104.965 9.32777Z" fill="white"></path>
  <path d="M121.396 11.3224C121.201 11.3224 120.92 11.3062 120.51 11.1819C120.159 11.0793 120.013 10.7498 119.872 9.78822L118.517 0.588778C118.495 0.448328 118.435 0.0107783 118.117 0.0107783C117.884 0.0107783 117.776 0.232258 117.668 0.442932L113.741 8.68624L109.798 0.540163C109.614 0.178235 109.49 0.00537109 109.274 0.00537109C109.139 0.00537109 108.961 0.0918059 108.89 0.507753L107.416 10.215C107.34 10.7282 107.227 11.2089 106.913 11.2792C106.703 11.3224 106.611 11.3224 106.492 11.3224C106.168 11.3224 106.119 11.4736 106.119 11.56C106.119 11.6735 106.173 11.8572 106.524 11.8572C106.794 11.8572 107.14 11.8409 107.443 11.8301C107.675 11.8193 107.875 11.8139 107.999 11.8139C108.107 11.8139 108.269 11.8193 108.474 11.8301C108.788 11.8409 109.182 11.8572 109.566 11.8572C109.711 11.8572 110.057 11.8572 110.057 11.56C110.057 11.506 110.03 11.3224 109.701 11.3224C109.517 11.3224 109.317 11.3008 109.106 11.2521C108.804 11.1819 108.766 11.0307 108.766 10.9064C108.766 10.6633 108.782 10.4743 108.809 10.2258L109.539 4.66182C109.711 5.02375 109.9 5.43429 110.09 5.83403C110.478 6.66592 110.851 7.4492 110.932 7.63827C111.11 8.05421 112.272 10.3014 112.65 11.0253L112.699 11.1171C112.958 11.6033 113.088 11.8463 113.293 11.8463C113.52 11.8463 113.606 11.6735 113.968 10.9388L117.063 4.48895L117.911 10.6903C117.966 11.0847 117.917 11.1873 117.917 11.1873C117.841 11.2197 117.674 11.29 117.674 11.4736C117.674 11.7221 117.982 11.7491 118.23 11.7707C118.819 11.8139 120.872 11.8572 121.261 11.8572C121.714 11.8572 121.785 11.6681 121.785 11.56C121.768 11.3224 121.488 11.3224 121.396 11.3224Z" fill="white"></path>
  <path d="M139.39 11.3221C139.245 11.3221 139.029 11.3113 138.796 11.2681C138.591 11.2194 138.17 11.1168 137.581 9.72312C137.046 8.45367 136.041 5.93099 135.236 3.91067C134.599 2.31171 134.048 0.928821 133.891 0.566894C133.751 0.242779 133.632 0.010498 133.394 0.010498C133.146 0.010498 133.032 0.253581 132.854 0.691135L129.116 10.0418C128.808 10.8143 128.543 11.2194 127.96 11.3005C127.852 11.3167 127.647 11.3275 127.517 11.3275C127.474 11.3275 127.436 11.3329 127.409 11.3437C127.366 11.3329 127.317 11.3275 127.269 11.3275C127.047 11.3275 126.728 11.3005 126.529 11.2681C126.172 11.2194 126.091 11.0358 126.048 10.6576C125.988 10.0256 125.988 8.86962 125.988 7.41111V4.79118C125.988 2.52238 125.988 2.11724 126.015 1.64187C126.048 1.09087 126.183 0.966631 126.453 0.918014C126.626 0.891005 126.734 0.874798 126.88 0.874798C127.188 0.874798 127.252 0.718143 127.252 0.588498C127.252 0.334608 126.917 0.334607 126.804 0.334607C126.491 0.334607 126.08 0.350815 125.713 0.361619C125.416 0.372422 125.151 0.377824 124.984 0.377824C124.784 0.377824 124.47 0.367023 124.141 0.35622C123.757 0.345416 123.347 0.329208 123.044 0.329208C122.882 0.329208 122.553 0.329209 122.553 0.583099C122.553 0.712744 122.618 0.869399 122.925 0.869399C123.12 0.869399 123.293 0.885608 123.433 0.923421C123.622 0.966637 123.801 1.08007 123.833 1.63647C123.86 2.10643 123.86 2.51698 123.86 4.78578V7.40571C123.86 8.86422 123.86 10.0148 123.784 10.636C123.736 11.1168 123.633 11.2249 123.455 11.2627C123.287 11.3005 123.12 11.3167 122.947 11.3167C122.639 11.3167 122.574 11.4571 122.574 11.5706C122.574 11.7002 122.65 11.8515 123.006 11.8515C123.347 11.8515 123.795 11.8353 124.184 11.8245C124.476 11.8137 124.735 11.8083 124.881 11.8083C125.038 11.8083 125.275 11.8137 125.562 11.8245C126.026 11.8353 126.599 11.8515 127.204 11.8515C127.274 11.8515 127.333 11.8461 127.387 11.8299C127.441 11.8461 127.512 11.8515 127.604 11.8515C128.138 11.8515 128.7 11.8299 129.035 11.8191C129.192 11.8137 129.305 11.8083 129.359 11.8083C129.586 11.8083 129.856 11.8191 130.132 11.8299C130.413 11.8407 130.699 11.8515 130.936 11.8515C131.196 11.8515 131.325 11.7542 131.325 11.5706C131.325 11.3167 131.077 11.3167 130.969 11.3167H130.747C130.321 11.3167 130.288 11.1492 130.288 10.9926C130.288 10.8305 130.364 10.4848 130.504 10.1337L131.309 7.99991C131.315 7.98911 131.32 7.9783 131.32 7.9729L134.658 7.98911L135.852 11.1492C135.868 11.1924 135.874 11.2303 135.858 11.2627C135.847 11.2897 135.825 11.3059 135.831 11.3059C135.739 11.3167 135.501 11.3383 135.501 11.576C135.501 11.7974 135.75 11.8137 136.014 11.8245L136.084 11.8299C137.278 11.8569 138.375 11.8569 138.899 11.8569C139.374 11.8569 139.72 11.8569 139.72 11.576C139.715 11.4085 139.607 11.3221 139.39 11.3221ZM134.269 6.96275H131.714L133.011 3.50012L134.269 6.96275Z" fill="white"></path>
</svg>
