<?xml version="1.0" encoding="UTF-8"?>
<svg xmlns="http://www.w3.org/2000/svg" width="48" height="48" viewBox="0 0 48 48" fill="none">
  <g id="online-education 1">
    <g id="_x31_9">
      <path id="Vector" d="M10.6154 29.6101H6.92308C6.41286 29.6101 6 30.0234 6 30.5332V34.2255C6 34.7353 6.41286 35.1486 6.92308 35.1486H10.6154C11.1256 35.1486 11.5385 34.7353 11.5385 34.2255V30.5332C11.5385 30.0234 11.1256 29.6101 10.6154 29.6101ZM9.69231 33.3024H7.84615V31.4563H9.69231V33.3024Z" fill="white"></path>
      <path id="Vector_2" d="M10.6154 36.9946H6.92308C6.41286 36.9946 6 37.4079 6 37.9177V41.61C6 42.1198 6.41286 42.5331 6.92308 42.5331H10.6154C11.1256 42.5331 11.5385 42.1198 11.5385 41.61V37.9177C11.5385 37.4079 11.1256 36.9946 10.6154 36.9946ZM9.69231 40.6869H7.84615V38.8408H9.69231V40.6869Z" fill="white"></path>
      <path id="Vector_3" d="M14.5386 35.1486H18.2309C18.7411 35.1486 19.1539 34.7353 19.1539 34.2255V30.5332C19.1539 30.0234 18.7411 29.6101 18.2309 29.6101H14.5386C14.0283 29.6101 13.6155 30.0234 13.6155 30.5332V34.2255C13.6155 34.7353 14.0283 35.1486 14.5386 35.1486ZM15.4616 31.4563H17.3078V33.3024H15.4616V31.4563Z" fill="white"></path>
      <path id="Vector_4" d="M21.2307 30.5332V34.2255C21.2307 34.7353 21.6436 35.1486 22.1538 35.1486H25.8461C26.3563 35.1486 26.7692 34.7353 26.7692 34.2255V30.5332C26.7692 30.0234 26.3563 29.6101 25.8461 29.6101H22.1538C21.6436 29.6101 21.2307 30.0234 21.2307 30.5332ZM23.0769 31.4563H24.923V33.3024H23.0769V31.4563Z" fill="white"></path>
      <path id="Vector_5" d="M33.1856 36.9988H14.816C14.1544 36.9988 13.6162 37.5374 13.6162 38.199V41.3374C13.6162 41.9991 14.1544 42.5372 14.816 42.5372H33.1856C33.8473 42.5372 34.3854 41.9991 34.3854 41.3374V38.199C34.3854 37.5374 33.8473 36.9988 33.1856 36.9988ZM32.5393 40.6911H15.4624V38.8449H32.5393V40.6911Z" fill="white"></path>
      <path id="Vector_6" d="M29.7693 35.1486H33.4616C33.9718 35.1486 34.3847 34.7353 34.3847 34.2255V30.5332C34.3847 30.0234 33.9718 29.6101 33.4616 29.6101H29.7693C29.2591 29.6101 28.8462 30.0234 28.8462 30.5332V34.2255C28.8462 34.7353 29.2591 35.1486 29.7693 35.1486ZM30.6923 31.4563H32.5385V33.3024H30.6923V31.4563Z" fill="white"></path>
      <path id="Vector_7" d="M37.3847 35.1486H41.0771C41.5873 35.1486 42.0001 34.7353 42.0001 34.2255V30.5332C42.0001 30.0234 41.5873 29.6101 41.0771 29.6101H37.3847C36.8745 29.6101 36.4617 30.0234 36.4617 30.5332V34.2255C36.4617 34.7353 36.8745 35.1486 37.3847 35.1486ZM38.3078 31.4563H40.154V33.3024H38.3078V31.4563Z" fill="white"></path>
      <path id="Vector_8" d="M37.3847 42.5331H41.0771C41.5873 42.5331 42.0001 42.1198 42.0001 41.61V37.9177C42.0001 37.4079 41.5873 36.9946 41.0771 36.9946H37.3847C36.8745 36.9946 36.4617 37.4079 36.4617 37.9177V41.61C36.4617 42.1198 36.8745 42.5331 37.3847 42.5331ZM38.3078 38.8408H40.154V40.6869H38.3078V38.8408Z" fill="white"></path>
      <path id="Vector_9" d="M40.8011 14.0638C40.8011 15.5379 41.9989 16.7424 43.4802 16.7424C44.939 16.7424 46.1539 15.5532 46.1539 14.0638C46.1539 12.9143 45.4206 11.9403 44.4006 11.5631V8.31573C44.4006 8.09493 44.3125 7.90039 44.1833 7.74151C43.9832 7.3913 43.6609 7.10362 43.2296 6.95725L28.3396 1.80281C27.8997 1.66083 27.4219 1.66128 26.9838 1.80912L12.1127 6.95455C11.3925 7.19659 10.9282 7.79604 10.9282 8.48204C10.9282 9.16804 11.3925 9.7675 12.1046 10.0068L15.3841 11.1415V16.0163H10.2927C7.92552 16.0163 6.00004 17.9418 6.00004 20.3085C6.00004 22.6748 7.92552 24.6003 10.2927 24.6003H20.8062C21.7115 24.6003 22.489 25.1428 22.8418 25.9177H3.6004C2.63315 25.9177 1.84619 26.7042 1.84619 27.6715V44.5487C1.84619 45.516 2.63315 46.303 3.6004 46.303H44.4006C45.3669 46.303 46.1539 45.516 46.1539 44.5487V27.6715C46.1539 26.7042 45.3669 25.9177 44.4006 25.9177H24.7781C24.3575 24.1091 22.7412 22.7541 20.8062 22.7541H10.2927C8.94325 22.7541 7.84619 21.6571 7.84619 20.3085C7.84619 18.96 8.94325 17.8624 10.2927 17.8624H15.4553C15.7241 19.3549 16.787 20.5935 18.275 21.0594C21.1506 21.9636 24.2831 22.4152 27.4598 22.4152C30.6662 22.4152 33.9177 21.9545 36.9898 21.0333C38.7603 20.5005 39.9493 18.9077 39.9493 17.0696V11.1424L42.5544 10.2405V11.5641C41.534 11.9421 40.8011 12.9154 40.8011 14.0638ZM44.3077 44.4568H3.69235V27.7639H44.3077V44.4568ZM42.888 14.6466C42.7329 14.4893 42.6473 14.2819 42.6473 14.0638C42.6473 13.6072 43.0214 13.2358 43.4802 13.2358C43.9363 13.2358 44.3077 13.6072 44.3077 14.0638C44.3077 14.8091 43.3961 15.1634 42.888 14.6466ZM27.5779 3.55701C27.6347 3.53898 27.7113 3.54124 27.7536 3.55341L38.8407 7.39265H29.7857C29.3312 6.55245 28.4004 5.96882 27.3164 5.96882C25.7894 5.96882 24.5472 7.11636 24.5472 8.52711C24.5472 9.93742 25.7894 11.085 27.3164 11.085C28.5743 11.085 29.6267 10.3015 29.9631 9.2388H39.8055C37.7706 9.94316 28.4753 13.1607 27.7491 13.412C27.695 13.4319 27.6365 13.4278 27.5869 13.4102L13.345 8.48159L27.5779 3.55701ZM28.2395 8.52711C28.2395 8.91293 27.8167 9.2388 27.3164 9.2388C26.8071 9.2388 26.3934 8.91969 26.3934 8.52711C26.3934 8.1413 26.8161 7.81497 27.3164 7.81497C27.8167 7.81497 28.2395 8.1413 28.2395 8.52711ZM38.1031 17.0696C38.1031 18.0869 37.4423 18.9694 36.4589 19.2651C30.6896 20.9959 24.2633 21.0071 18.8276 19.2975C17.872 18.9987 17.2302 18.1239 17.2302 17.121V11.7867L26.9703 15.1505C27.4328 15.3184 27.9382 15.3027 28.3576 15.155L38.1031 11.7814V17.0696Z" fill="white"></path>
    </g>
  </g>
</svg>
