<?xml version="1.0" encoding="UTF-8"?>
<svg xmlns="http://www.w3.org/2000/svg" width="128" height="128" viewBox="0 0 128 128" fill="none">
  <g id="2 miejsce rzeczpospolita">
    <g id="Group">
      <g id="Group_2">
        <g id="Group_3">
          <path id="Vector" d="M64.2528 95.2524C64.0721 95.2524 63.8915 95.2162 63.7199 95.144C60.0894 93.5816 54.6887 89.8788 49.8931 86.4559C41.3856 80.3959 35.8495 70.9673 34.6844 60.5994C34.278 56.9689 34.0703 53.266 34.0703 49.6084V43.7561C34.0703 43.2143 34.3954 42.7175 34.9012 42.5098C35.5785 42.2208 36.4094 41.9318 37.3667 41.5886C43.2099 39.5205 54.0836 35.6732 63.1239 22.325C63.6296 21.5844 64.8669 21.5844 65.3636 22.325C74.3949 35.6732 85.2775 39.5205 91.1208 41.5886C92.0871 41.9318 92.918 42.2208 93.5863 42.5098C94.092 42.7175 94.4172 43.2143 94.4172 43.7561V49.6084C94.4172 53.266 94.2095 56.9689 93.803 60.5994C92.647 70.9673 87.1018 80.3869 78.5944 86.4559C73.7988 89.8788 68.4072 93.5816 64.7676 95.144C64.614 95.2162 64.4334 95.2524 64.2528 95.2524ZM36.7887 44.6954V49.6174C36.7887 53.1757 36.9874 56.7702 37.3848 60.3014C38.4595 69.9016 43.5893 78.6348 51.4735 84.2523C55.9169 87.4223 60.857 90.827 64.2618 92.4165C67.6576 90.827 72.6067 87.4223 77.0501 84.2523C84.9253 78.6348 90.0641 69.9106 91.1388 60.3014C91.5362 56.7702 91.7349 53.1757 91.7349 49.6174V44.6954C91.2924 44.5328 90.7866 44.3522 90.2447 44.1625C84.3473 42.0763 73.564 38.2561 64.2708 25.4588C54.9777 38.2561 44.1944 42.0763 38.2969 44.1625C37.728 44.3522 37.2313 44.5238 36.7887 44.6954Z" fill="white"></path>
        </g>
        <path id="Vector_2" d="M54.5355 74.8859C54.0027 74.8859 53.4699 74.7233 53.0183 74.3982C52.2055 73.8112 51.7991 72.8358 51.9616 71.8424L53.5331 62.2602L46.5339 55.5319C45.8114 54.8365 45.5494 53.807 45.8475 52.8496C46.1545 51.8923 46.9583 51.2059 47.9518 51.0524L57.543 49.5894L61.7786 40.8561C62.2211 39.953 63.1152 39.384 64.1177 39.375C64.1267 39.375 64.1267 39.375 64.1358 39.375C65.1292 39.375 66.0323 39.9259 66.4749 40.82L70.837 49.49L80.4553 50.8176C81.4487 50.9531 82.2615 51.6304 82.5866 52.5877C82.9027 53.545 82.6589 54.5746 81.9454 55.279L75.0455 62.1067L76.7524 71.6617C76.9331 72.6462 76.5357 73.6306 75.7319 74.2266C74.9281 74.8227 73.8715 74.904 72.9774 74.4434L64.3525 69.991L55.7909 74.5698C55.3845 74.7866 54.96 74.8859 54.5355 74.8859ZM48.5388 53.7166L55.9173 60.8062C56.2425 61.1132 56.387 61.5648 56.3147 61.9983L54.662 72.0952L63.6842 67.2635C64.0816 67.0558 64.5512 67.0468 64.9486 67.2545L74.0431 71.9507L72.2368 61.8719C72.1555 61.4293 72.3 60.9868 72.6161 60.6707L79.8953 53.4728L69.7532 52.0729C69.3107 52.0097 68.9314 51.7388 68.7327 51.3414L64.1358 42.1928L59.6743 51.4046C59.4756 51.802 59.0963 52.082 58.6628 52.1542L48.5388 53.7166Z" fill="white"></path>
      </g>
      <g id="Group_4">
        <g id="Group_5">
          <g id="Group_6">
            <path id="Vector_3" d="M87.0249 106.722C86.2301 106.722 85.4173 106.65 84.5955 106.496C78.0297 105.241 73.8934 98.8468 73.7218 98.5759C73.3335 97.9708 73.487 97.167 74.074 96.7515C74.3359 96.5619 80.5404 92.1546 87.1061 93.419C93.6719 94.6743 97.7992 101.059 97.9798 101.339C98.3681 101.945 98.2146 102.748 97.6276 103.164C97.4018 103.335 92.6152 106.722 87.0249 106.722ZM76.8286 98.2327C78.2013 99.9396 81.1997 103.091 85.1102 103.841C89.0208 104.582 92.9765 102.775 94.873 101.692C93.5003 99.9847 90.5019 96.8328 86.5914 96.0832C82.6899 95.3336 78.7342 97.1579 76.8286 98.2327Z" fill="white"></path>
            <path id="Vector_4" d="M97.6301 94.4499C97.025 94.4499 96.4741 94.0434 96.3206 93.4293C96.14 92.7068 96.5825 91.9663 97.305 91.7856C101.17 90.8102 103.979 87.4958 105.253 85.7166C103.293 84.7503 99.2467 83.1608 95.3813 84.1362C90.0168 85.4908 86.7204 91.2979 86.6842 91.3612C86.323 92.0114 85.4921 92.2462 84.8419 91.885C84.1916 91.5237 83.9568 90.6928 84.318 90.0426C84.4716 89.7626 88.2376 83.1517 94.7221 81.5171C101.197 79.8824 107.646 83.9284 107.917 84.1C108.522 84.4884 108.721 85.2741 108.368 85.9063C108.215 86.1863 104.449 92.7971 97.9643 94.4318C97.8469 94.4408 97.7385 94.4499 97.6301 94.4499Z" fill="white"></path>
            <path id="Vector_5" d="M94.7411 80.7931C94.705 80.7931 94.6689 80.7931 94.6418 80.7931C93.8922 80.7389 93.3322 80.0886 93.3864 79.339C93.4135 79.0139 94.0277 71.4367 99.2116 67.2191C104.396 63.0015 111.946 63.9407 112.262 63.9769C112.975 64.0672 113.49 64.6994 113.436 65.4219C113.409 65.747 112.795 73.3242 107.611 77.5418C107.033 78.0114 106.175 77.9302 105.705 77.3431C105.235 76.7651 105.317 75.9072 105.904 75.4375C109.011 72.9088 110.148 68.7273 110.537 66.5779C108.351 66.5146 104.007 66.8036 100.919 69.3143C96.6287 72.8004 96.0868 79.4655 96.0868 79.5377C96.0326 80.2512 95.4456 80.7931 94.7411 80.7931Z" fill="white"></path>
            <path id="Vector_6" d="M100.285 65.5932C99.6888 65.5932 99.1379 65.1958 98.9754 64.5907C98.8941 64.2927 97.0246 57.1309 100.429 51.5857C103.834 46.0405 111.068 44.4781 111.375 44.4149C112.08 44.2704 112.775 44.6949 112.956 45.3903C113.037 45.6883 114.906 52.8501 111.502 58.3953C111.113 59.0365 110.273 59.2352 109.641 58.8378C109 58.4495 108.801 57.6096 109.199 56.9774C111.204 53.7171 110.924 49.5537 110.608 47.4404C108.585 48.1087 104.746 49.7433 102.741 53.0036C99.9507 57.5373 101.576 63.8231 101.594 63.8863C101.784 64.6088 101.36 65.3493 100.637 65.548C100.52 65.5751 100.402 65.5932 100.285 65.5932Z" fill="white"></path>
            <path id="Vector_7" d="M101.186 48.5965C100.734 48.5965 100.292 48.3707 100.039 47.9643C98.901 46.149 97.6005 43.3403 97.8624 40.2606C98.2959 35.2212 102.766 31.6267 102.956 31.4732C103.516 31.0216 104.329 31.1029 104.807 31.6358C104.97 31.8164 108.754 36.1243 108.312 41.1728C108.248 41.9224 107.58 42.4642 106.848 42.4101C106.099 42.3468 105.548 41.6876 105.62 40.947C105.846 38.3821 104.536 35.9437 103.624 34.5709C102.486 35.763 100.789 37.9486 100.563 40.5045C100.364 42.8436 101.412 45.0743 102.333 46.5373C102.73 47.1695 102.541 48.0094 101.908 48.4068C101.683 48.5332 101.43 48.5965 101.186 48.5965Z" fill="white"></path>
          </g>
        </g>
        <g id="Group_7">
          <g id="Group_8">
            <path id="Vector_8" d="M41.4658 106.723C35.8755 106.723 31.0979 103.328 30.8631 103.165C30.2761 102.75 30.1225 101.946 30.5109 101.341C30.6825 101.07 34.8188 94.6847 41.3845 93.4203C47.9502 92.165 54.1547 96.5632 54.4166 96.7528C55.0037 97.1683 55.1572 97.9721 54.7688 98.5772C54.5972 98.8481 50.4609 105.233 43.8952 106.498C43.0824 106.66 42.2696 106.723 41.4658 106.723ZM33.6176 101.693C35.5232 102.768 39.4699 104.583 43.3895 103.842C47.3 103.093 50.2984 99.9409 51.6711 98.234C49.7655 97.1593 45.8189 95.3349 41.9083 96.0845C37.9707 96.8432 34.9814 99.986 33.6176 101.693Z" fill="white"></path>
            <path id="Vector_9" d="M30.873 94.4504C30.7647 94.4504 30.6563 94.4413 30.5389 94.4052C24.0544 92.7705 20.2974 86.1597 20.1349 85.8797C19.7827 85.2565 19.9813 84.4618 20.5864 84.0734C20.8574 83.9019 27.3057 79.8649 33.7811 81.4905C40.2655 83.1252 44.0225 89.736 44.1851 90.016C44.5464 90.6663 44.3206 91.4971 43.6613 91.8584C43.011 92.2287 42.1802 91.9939 41.8189 91.3436C41.7828 91.2804 38.4503 85.4643 33.1218 84.1186C29.2655 83.1432 25.2104 84.7327 23.2507 85.6991C24.5241 87.4782 27.3328 90.8017 31.1982 91.7681C31.9207 91.9487 32.3632 92.6893 32.1826 93.4118C32.029 94.044 31.4781 94.4504 30.873 94.4504Z" fill="white"></path>
            <path id="Vector_10" d="M33.7611 80.7932C33.0567 80.7932 32.4606 80.2513 32.4155 79.5378C32.4064 79.4746 31.8465 72.7915 27.5837 69.3144C24.495 66.8037 20.151 66.5147 17.9654 66.578C18.3628 68.7274 19.5098 72.9269 22.5985 75.4376C23.1765 75.9073 23.2668 76.7652 22.7972 77.3432C22.3275 77.9212 21.4696 78.0115 20.8916 77.5419C15.7076 73.3243 15.0935 65.7381 15.0664 65.422C15.0122 64.7085 15.527 64.0763 16.2405 63.977C16.5566 63.9318 24.1067 63.0016 29.2906 67.2192C34.4746 71.4368 35.0887 79.023 35.1158 79.3391C35.17 80.0887 34.6101 80.7299 33.8605 80.7932C33.8243 80.7932 33.7972 80.7932 33.7611 80.7932Z" fill="white"></path>
            <path id="Vector_11" d="M28.2165 65.5932C28.0991 65.5932 27.9817 65.5751 27.8643 65.548C27.1418 65.3584 26.7173 64.6088 26.907 63.8863C26.9251 63.805 28.5416 57.5283 25.76 53.0036C23.7551 49.7433 19.9168 48.1087 17.8938 47.4404C17.5777 49.5446 17.2977 53.7171 19.3027 56.9774C19.691 57.6186 19.4923 58.4495 18.8601 58.8378C18.2279 59.2352 17.388 59.0275 16.9997 58.3953C13.5949 52.8501 15.4644 45.6883 15.5457 45.3903C15.7353 44.6949 16.4307 44.2704 17.1261 44.4149C17.4332 44.4781 24.6672 46.0405 28.072 51.5857C31.4768 57.1309 29.6073 64.2927 29.5261 64.5907C29.3635 65.1958 28.8126 65.5932 28.2165 65.5932Z" fill="white"></path>
            <path id="Vector_12" d="M27.3166 48.5978C27.0727 48.5978 26.8198 48.5346 26.5941 48.3901C25.9619 47.9928 25.7722 47.1528 26.1696 46.5207C27.0908 45.0576 28.1384 42.8269 27.9397 40.4878C27.7139 37.9229 26.0161 35.7464 24.8781 34.5542C23.966 35.918 22.6655 38.3654 22.8822 40.9303C22.9454 41.6799 22.3945 42.3302 21.654 42.3934C20.9044 42.4656 20.2541 41.9057 20.1909 41.1651C19.7574 36.1257 23.5325 31.8178 23.695 31.6281C24.1737 31.0953 24.9865 31.023 25.5464 31.4656C25.7361 31.6191 30.2066 35.2135 30.6401 40.253C30.911 43.3417 29.6015 46.1504 28.4635 47.9566C28.2016 48.3721 27.7681 48.5978 27.3166 48.5978Z" fill="white"></path>
          </g>
        </g>
      </g>
    </g>
  </g>
</svg>
