<?xml version="1.0" encoding="UTF-8"?>
<svg xmlns="http://www.w3.org/2000/svg" width="128" height="128" viewBox="0 0 128 128" fill="none">
  <g id="2 miejsce perspektywy">
    <g id="Group">
      <g id="Group_2">
        <g id="Group_3">
          <path id="Vector" d="M64.2012 39.1125C59.8029 39.1125 56.2266 35.2923 56.2266 30.6051C56.2266 25.9179 59.8029 22.0977 64.2012 22.0977C68.5994 22.0977 72.1758 25.9179 72.1758 30.6051C72.1758 35.2923 68.5994 39.1125 64.2012 39.1125ZM64.2012 24.798C61.2931 24.798 58.9359 27.399 58.9359 30.5961C58.9359 33.7931 61.3021 36.3941 64.2012 36.3941C67.1002 36.3941 69.4664 33.7931 69.4664 30.5961C69.4664 27.399 67.1092 24.798 64.2012 24.798Z" fill="white"></path>
        </g>
        <path id="Vector_2" d="M72.6924 68.9256C71.9428 68.9256 71.3377 68.3205 71.3377 67.5709V55.3697C71.3377 52.9493 72.2499 50.6373 73.9026 48.8672L89.7434 31.9336C90.7278 30.886 90.7007 29.2694 89.6802 28.2488C88.6506 27.2193 86.9708 27.2193 85.9322 28.2488L71.121 43.0691C69.5586 44.6315 67.4814 45.4895 65.2687 45.4895H63.2277C61.015 45.4895 58.9378 44.6315 57.3754 43.0691L42.5551 28.2488C41.5255 27.2193 39.8457 27.2193 38.8071 28.2488C37.7956 29.2603 37.7685 30.8769 38.7439 31.9336L54.5847 48.8672C56.2375 50.6373 57.1496 52.9493 57.1496 55.3697V67.5799C57.1496 68.3295 56.5445 68.9346 55.7949 68.9346C55.0453 68.9346 54.4402 68.3295 54.4402 67.5799V55.3697C54.4402 53.6357 53.79 51.983 52.6069 50.7186L36.7751 33.785C34.7882 31.6626 34.8424 28.3933 36.9015 26.3342C38.9878 24.248 42.3925 24.248 44.4788 26.3342L59.2991 41.1545C60.3467 42.2021 61.7465 42.7801 63.2277 42.7801H65.2687C66.7589 42.7801 68.1497 42.2021 69.2063 41.1545L84.0266 26.3342C86.1129 24.248 89.5176 24.248 91.6039 26.3342C93.663 28.3843 93.7081 31.6626 91.7303 33.785L75.8804 50.7186C74.6973 51.983 74.0471 53.6357 74.0471 55.3697V67.5799C74.0471 68.3205 73.433 68.9256 72.6924 68.9256Z" fill="white"></path>
      </g>
      <g id="Group_4">
        <g id="Group_5">
          <g id="Group_6">
            <g id="Group_7">
              <path id="Vector_3" d="M51.6393 93.3992C51.2961 93.3992 50.9529 93.2638 50.691 93.0109C50.691 93.0109 48.6138 90.9518 47.9817 90.3015C47.9455 90.2654 47.9094 90.2202 47.8733 90.1751C46.9069 88.8836 45.2813 86.2284 45.2813 82.9681C45.2813 77.3778 50.5556 73.0247 50.7813 72.8441C51.2781 72.4377 51.9915 72.4377 52.4883 72.8441C52.714 73.0247 57.9883 77.3778 57.9883 82.9681C57.9883 88.5585 52.714 92.9116 52.4883 93.0922C52.2444 93.2999 51.9373 93.3992 51.6393 93.3992ZM49.9866 88.4862C50.3478 88.8565 51.0703 89.579 51.6664 90.1661C52.9759 88.8385 55.2879 86.0568 55.2879 82.9681C55.2879 79.8433 52.9488 77.0527 51.6393 75.7431C50.3298 77.0617 47.9907 79.8614 47.9907 82.9681C47.9907 84.7563 48.7222 86.7613 49.9866 88.4862Z" fill="white"></path>
            </g>
            <g id="Group_8">
              <path id="Vector_4" d="M42.5538 98.4103C36.9635 98.4103 32.6104 93.1361 32.4298 92.9103C32.0234 92.4136 32.0234 91.7001 32.4298 91.2034C32.6104 90.9776 36.9635 85.7034 42.5538 85.7034C45.8051 85.7034 48.4603 87.329 49.7608 88.2953L48.1352 90.4628C46.3921 89.1623 44.3601 88.4127 42.5538 88.4127C39.429 88.4127 36.6384 90.7518 35.3198 92.0614C36.6384 93.3619 39.4381 95.71 42.5538 95.71C46.8708 95.71 50.5465 91.2576 50.5826 91.2124L52.6869 92.9193C52.4973 93.1361 48.1442 98.4103 42.5538 98.4103Z" fill="white"></path>
            </g>
          </g>
          <g id="Group_9">
            <path id="Vector_5" d="M37.2433 81.7333C37.2433 81.7333 35.5996 79.4122 35.1119 78.6807C35.0848 78.6356 35.0487 78.5904 35.0306 78.5362C34.3171 77.1273 33.2153 74.3096 33.7662 71.1757C34.7145 65.8021 40.5126 62.5238 40.7564 62.3883C41.3164 62.0722 42.0208 62.1987 42.4362 62.6864C42.5898 62.8579 46.121 66.9943 46.139 71.7447C46.139 72.4943 45.5339 73.0994 44.7844 73.0994C44.0348 73.0994 43.4297 72.4943 43.4297 71.7447C43.4206 69.1527 41.9937 66.6872 41.0996 65.3867C39.6275 66.4343 36.9543 68.7012 36.4304 71.6454C36.1324 73.3432 36.4846 75.3753 37.4058 77.2357C37.9387 78.0214 39.4559 80.1528 39.4559 80.1528L37.2433 81.7333Z" fill="white"></path>
          </g>
          <g id="Group_10">
            <path id="Vector_6" d="M29.2814 86.5103C29.2001 86.5103 29.1279 86.5012 29.0466 86.4922C23.673 85.5439 20.3946 79.7459 20.2592 79.502C19.9431 78.9421 20.0695 78.2376 20.5572 77.8222C20.774 77.6326 25.8405 73.3156 31.2141 74.2549C34.3389 74.8058 36.6148 76.8107 37.6985 77.9577C38.2133 78.4996 38.1862 79.3575 37.6353 79.8723C37.0934 80.3871 36.2355 80.36 35.7207 79.8091C34.2757 78.2738 32.4604 77.2171 30.7445 76.9191C27.8003 76.3953 24.7567 78.1383 23.2666 79.1588C24.3142 80.6309 26.5811 83.3042 29.5252 83.819C30.2658 83.9454 30.7535 84.6498 30.6271 85.3904C30.5006 86.0497 29.9316 86.5103 29.2814 86.5103Z" fill="white"></path>
          </g>
          <g id="Group_11">
            <path id="Vector_7" d="M27.2187 67.6162C27.2187 67.6162 26.3517 65.0694 26.1078 64.2747C26.0898 64.2205 26.0807 64.1663 26.0717 64.1121C25.8098 62.64 25.5659 59.7591 26.9206 57.0587C29.2507 52.4166 35.419 50.9987 35.6809 50.9445C36.3041 50.8 36.9453 51.1252 37.2072 51.7122C37.2885 51.9019 39.2483 56.3181 38.2368 60.5086C38.0652 61.2311 37.3337 61.6827 36.6021 61.5111C35.8706 61.3395 35.4281 60.608 35.5997 59.8765C36.1325 57.6819 35.5726 55.2886 35.1391 53.9339C33.5134 54.4938 30.5693 55.8124 29.332 58.2779C28.3205 60.3009 28.5463 62.5858 28.7178 63.5612C28.9888 64.4192 29.7835 66.7492 29.7835 66.7583L27.2187 67.6162Z" fill="white"></path>
          </g>
          <g id="Group_12">
            <path id="Vector_8" d="M19.4457 70.3265C19.238 70.3265 19.0302 70.2813 18.8406 70.182C14.1985 67.8519 12.7806 61.6836 12.7264 61.4217C12.591 60.7985 12.9071 60.1573 13.4941 59.8954C13.7379 59.787 19.536 57.2221 24.1781 59.5432C26.8784 60.8978 28.4137 63.3453 29.082 64.6819C29.4162 65.3503 29.1453 66.1631 28.4769 66.4972C27.8086 66.8314 26.9958 66.5604 26.6617 65.8921C26.2462 65.0522 25.0451 63.0021 22.9679 61.9635C20.6468 60.7985 17.5491 61.3675 15.7158 61.9455C16.2757 63.5711 17.5943 66.5153 20.0688 67.7526C20.7372 68.0867 21.0081 68.8995 20.6739 69.5679C20.4211 70.0555 19.9424 70.3265 19.4457 70.3265Z" fill="white"></path>
          </g>
          <g id="Group_13">
            <path id="Vector_9" d="M24.1032 51.8112C24.1032 51.8112 23.9045 49.6527 23.8594 48.9934C23.8594 48.9393 23.8594 48.8851 23.8594 48.8218C23.9316 47.5846 24.2838 45.2364 25.8914 43.3128C28.655 40.0254 33.866 40.0796 34.0828 40.0706C34.724 40.0796 35.2659 40.5402 35.3923 41.1724C35.4194 41.3259 36.0787 44.8481 34.7691 47.9187C34.4711 48.6051 33.6763 48.9212 32.99 48.6322C32.3036 48.3342 31.9875 47.5394 32.2765 46.853C32.8635 45.4803 32.9087 43.9179 32.8545 42.8702C31.4818 43.0328 29.242 43.5386 27.9686 45.0648C26.8668 46.3834 26.6229 48.1264 26.5688 48.9031C26.6229 49.6347 26.8036 51.5673 26.8036 51.5673L24.1032 51.8112Z" fill="white"></path>
          </g>
          <g id="Group_14">
            <path id="Vector_10" d="M17.9452 53.4477C17.6381 53.4477 17.3311 53.3393 17.0782 53.1316C13.7908 50.3681 13.836 45.166 13.836 44.9403C13.845 44.299 14.3056 43.7572 14.9378 43.6307C15.1545 43.5856 20.2753 42.6373 23.5626 45.4009C25.4773 47.0084 26.2449 49.2662 26.5249 50.4674C26.6965 51.1989 26.2449 51.9214 25.5134 52.093C24.7909 52.2646 24.0594 51.8131 23.8878 51.0815C23.7252 50.3771 23.1924 48.616 21.8196 47.469C20.3023 46.1956 18.0084 46.0872 16.6266 46.1595C16.7892 47.5322 17.2949 49.772 18.8212 51.0454C19.3902 51.5241 19.4715 52.382 18.9838 52.951C18.7128 53.2852 18.3245 53.4477 17.9452 53.4477Z" fill="white"></path>
          </g>
          <g id="Group_15">
            <g id="Group_16">
              <path id="Vector_11" d="M20.1388 40.9834C19.5337 40.9834 18.9738 40.568 18.8203 39.9539C18.5312 38.7979 18.459 37.6599 18.6035 36.5852C19.2086 32.0064 23.9771 29.026 24.1758 28.8996C24.7177 28.5654 25.4311 28.6558 25.8737 29.1254C26.0362 29.297 29.8655 33.4152 29.2604 37.9941C29.161 38.7346 28.4747 39.2585 27.7431 39.1591C27.0026 39.0598 26.4788 38.3824 26.5781 37.6419C26.8761 35.3931 25.5395 33.1353 24.6454 31.907C23.4713 32.8553 21.5838 34.6886 21.2948 36.9374C21.1955 37.678 21.2497 38.4727 21.4574 39.3036C21.638 40.0261 21.1955 40.7667 20.4639 40.9473C20.3556 40.9654 20.2472 40.9834 20.1388 40.9834Z" fill="white"></path>
            </g>
          </g>
          <path id="Vector_12" d="M71.96 106.369C71.5356 106.369 71.1201 106.17 70.8582 105.809C67.634 101.33 64.5815 100.228 61.0503 98.9453C58.1874 97.9068 54.9451 96.7327 51.2875 93.6621C50.7185 93.1834 50.6372 92.3254 51.1249 91.7565C51.6036 91.1875 52.4615 91.1062 53.0305 91.5939C56.3179 94.3575 59.1898 95.3961 61.9715 96.4076C65.7646 97.7803 69.341 99.0808 73.0618 104.238C73.4953 104.843 73.3599 105.692 72.7548 106.125C72.5109 106.288 72.24 106.369 71.96 106.369Z" fill="white"></path>
        </g>
        <g id="Group_17">
          <g id="Group_18">
            <g id="Group_19">
              <path id="Vector_13" d="M76.858 93.3992C76.56 93.3992 76.2529 93.2999 76 93.0922C75.7743 92.9116 70.5 88.5585 70.5 82.9681C70.5 77.3778 75.7743 73.0247 76 72.8441C76.4968 72.4377 77.2102 72.4377 77.7069 72.8441C77.9327 73.0247 83.207 77.3778 83.207 82.9681C83.207 86.2284 81.5814 88.8836 80.615 90.1751C80.5789 90.2202 80.5428 90.2654 80.5066 90.3015C79.8835 90.9518 77.7973 93.0109 77.7973 93.0109C77.5444 93.2728 77.2012 93.3992 76.858 93.3992ZM76.858 75.7431C75.5485 77.0617 73.2094 79.8614 73.2094 82.9681C73.2094 86.0568 75.5123 88.8385 76.8309 90.1661C77.4179 89.579 78.1404 88.8565 78.5107 88.4862C79.7841 86.7613 80.5066 84.7563 80.5066 82.9681C80.5066 79.8614 78.1675 77.0617 76.858 75.7431Z" fill="white"></path>
            </g>
            <g id="Group_20">
              <path id="Vector_14" d="M85.9444 98.4116C80.354 98.4116 76.0009 93.1373 75.8203 92.9115L77.9246 91.2046C77.9607 91.2498 81.6545 95.7022 85.9534 95.7022C89.0692 95.7022 91.8598 93.3631 93.1784 92.0536C91.8598 90.744 89.0601 88.4049 85.9534 88.4049C84.1471 88.4049 82.1151 89.1545 80.3721 90.455L78.7555 88.2875C80.0469 87.3212 82.7021 85.6956 85.9624 85.6956C91.5528 85.6956 95.9058 90.9698 96.0865 91.1956C96.4929 91.6923 96.4929 92.4058 96.0865 92.9025C95.8878 93.1373 91.5437 98.4116 85.9444 98.4116Z" fill="white"></path>
            </g>
          </g>
          <g id="Group_21">
            <path id="Vector_15" d="M91.2395 81.7294L89.0269 80.1579C89.0269 80.1579 90.5441 78.0175 91.077 77.2408C91.9982 75.3804 92.3594 73.3484 92.0524 71.6505C91.5376 68.7063 88.8643 66.4395 87.3922 65.3918C86.4981 66.6923 85.0622 69.1669 85.0531 71.7408C85.0531 72.4904 84.448 73.0955 83.6984 73.0955C82.9488 73.0955 82.3438 72.4904 82.3438 71.7408C82.3528 66.9994 85.893 62.8631 86.0466 62.6824C86.462 62.1948 87.1664 62.0683 87.7264 62.3844C87.9702 62.5199 93.7773 65.8073 94.7166 71.1718C95.2675 74.2966 94.1566 77.1234 93.4522 78.5323C93.4251 78.5775 93.398 78.6316 93.3709 78.6768C92.8923 79.4083 91.2395 81.7294 91.2395 81.7294Z" fill="white"></path>
          </g>
          <g id="Group_22">
            <path id="Vector_16" d="M99.2064 86.5103C98.5651 86.5103 97.9871 86.0497 97.8697 85.3904C97.7433 84.6498 98.231 83.9544 98.9715 83.819C101.916 83.3042 104.183 80.6309 105.23 79.1588C103.74 78.1293 100.697 76.3953 97.7614 76.9191C95.3139 77.3526 93.4625 79.0866 92.7851 79.8091C92.2704 80.351 91.4124 80.3781 90.8705 79.8723C90.3286 79.3575 90.3015 78.4996 90.8073 77.9577C91.882 76.8107 94.1579 74.8058 97.2917 74.2549C102.674 73.3156 107.732 77.6326 107.949 77.8222C108.436 78.2376 108.554 78.9421 108.247 79.502C108.111 79.7459 104.824 85.553 99.4592 86.4922C99.3689 86.5103 99.2876 86.5103 99.2064 86.5103Z" fill="white"></path>
          </g>
          <g id="Group_23">
            <path id="Vector_17" d="M101.276 67.6144L98.7113 66.7474C98.7113 66.7474 99.506 64.4083 99.7769 63.5504C99.9395 62.575 100.174 60.2901 99.1628 58.2671C97.9978 55.937 95.171 54.5372 93.3648 53.914C92.9313 55.2687 92.3713 57.671 92.8951 59.8656C93.0667 60.5972 92.6242 61.3287 91.8927 61.5003C91.1611 61.6809 90.4296 61.2293 90.258 60.4978C89.2465 56.2983 91.2063 51.882 91.2876 51.7014C91.5495 51.1143 92.1907 50.7982 92.8138 50.9337C93.0758 50.9879 99.2531 52.4058 101.574 57.0479C102.929 59.7482 102.685 62.6292 102.423 64.1013C102.414 64.1555 102.396 64.2097 102.387 64.2638C102.134 65.0676 101.276 67.6144 101.276 67.6144Z" fill="white"></path>
          </g>
          <g id="Group_24">
            <path id="Vector_18" d="M109.052 70.3231C108.555 70.3231 108.076 70.0522 107.842 69.5736C107.507 68.9052 107.778 68.0924 108.447 67.7583C110.777 66.5932 112.177 63.7755 112.8 61.9602C111.165 61.4364 108.013 60.7229 105.539 61.9692C103.461 63.0078 102.26 65.067 101.845 65.8978C101.511 66.5661 100.698 66.8371 100.029 66.5029C99.3612 66.1688 99.0902 65.356 99.4244 64.6876C100.093 63.351 101.628 60.9035 104.328 59.5489C108.97 57.2278 114.768 59.7837 115.012 59.9011C115.599 60.163 115.915 60.8042 115.78 61.4274C115.726 61.6893 114.308 67.8666 109.666 70.1877C109.458 70.278 109.25 70.3231 109.052 70.3231Z" fill="white"></path>
          </g>
          <g id="Group_25">
            <path id="Vector_19" d="M104.393 51.8097L101.693 51.5568C101.693 51.5568 101.873 49.6151 101.927 48.8926C101.873 48.1249 101.629 46.3729 100.528 45.0543C99.2541 43.5371 97.0143 43.0313 95.6416 42.8597C95.5874 43.9073 95.6326 45.4788 96.2196 46.8425C96.5176 47.5289 96.1925 48.3236 95.5061 48.6217C94.8198 48.9197 94.025 48.5946 93.727 47.9082C92.4174 44.8466 93.0767 41.3154 93.1038 41.1618C93.2212 40.5297 93.7721 40.0691 94.4133 40.06C94.6211 40.051 99.8411 40.0149 102.605 43.3023C104.212 45.2169 104.574 47.574 104.637 48.8113C104.637 48.8655 104.637 48.9197 104.637 48.9739C104.592 49.6512 104.393 51.8097 104.393 51.8097Z" fill="white"></path>
          </g>
          <g id="Group_26">
            <path id="Vector_20" d="M110.554 53.4438C110.165 53.4438 109.786 53.2812 109.515 52.9561C109.036 52.3871 109.109 51.5291 109.687 51.0505C111.195 49.7861 111.701 47.5373 111.872 46.1646C110.49 46.0923 108.205 46.2007 106.679 47.4741C105.315 48.6211 104.783 50.3822 104.611 51.0866C104.439 51.8181 103.708 52.2607 102.985 52.0981C102.254 51.9265 101.802 51.195 101.974 50.4725C102.254 49.2713 103.012 47.0135 104.936 45.406C108.224 42.6514 113.344 43.5907 113.561 43.6358C114.193 43.7532 114.645 44.3041 114.663 44.9454C114.663 45.1621 114.708 50.3731 111.421 53.1367C111.168 53.3444 110.861 53.4438 110.554 53.4438Z" fill="white"></path>
          </g>
          <g id="Group_27">
            <g id="Group_28">
              <path id="Vector_21" d="M108.359 40.982C108.251 40.982 108.143 40.973 108.034 40.9459C107.312 40.7653 106.869 40.0338 107.041 39.3022C107.249 38.4713 107.303 37.6766 107.203 36.936C106.905 34.7053 105.027 32.8629 103.844 31.9056C102.95 33.1248 101.622 35.3917 101.911 37.6314C102.01 38.372 101.487 39.0584 100.746 39.1487C100.006 39.248 99.3192 38.7242 99.2288 37.9837C98.6237 33.4048 102.453 29.2866 102.616 29.115C103.058 28.6544 103.763 28.555 104.313 28.8892C104.512 29.0156 109.281 31.9869 109.886 36.5748C110.03 37.6495 109.958 38.7874 109.669 39.9434C109.515 40.5666 108.965 40.982 108.359 40.982Z" fill="white"></path>
            </g>
          </g>
          <path id="Vector_22" d="M56.5272 106.369C56.2563 106.369 55.9763 106.288 55.7324 106.116C55.1273 105.683 54.9919 104.834 55.4254 104.229C56.9155 102.161 58.505 100.553 60.2752 99.3339C60.8893 98.9095 61.7382 99.063 62.1627 99.6771C62.5872 100.291 62.4336 101.14 61.8195 101.565C60.3023 102.612 58.9385 103.994 57.629 105.809C57.3671 106.171 56.9517 106.369 56.5272 106.369Z" fill="white"></path>
          <path id="Vector_23" d="M67.6432 98.7828C67.0923 98.7828 66.5685 98.4396 66.3698 97.8977C66.1169 97.1933 66.4782 96.4166 67.1736 96.1637C69.8197 95.1974 72.4478 94.1227 75.4462 91.5939C76.0152 91.1062 76.8731 91.1875 77.3518 91.7565C77.8305 92.3254 77.7582 93.1834 77.1892 93.6621C73.8567 96.4708 70.8764 97.69 68.1038 98.7015C67.9593 98.7557 67.7967 98.7828 67.6432 98.7828Z" fill="white"></path>
        </g>
      </g>
    </g>
  </g>
</svg>
